SplineFontDB: 3.0
FontName: Latte-Italic
FullName: Latte Italic
FamilyName: Latte
Weight: Book
Copyright: Copyright (c) 2016 by Guillaume Litaudon (www.guillaumelitaudon.fr) with Reserved Font Name "Latte".\nThis Font Software is licensed under the SIL Open Font License, Version 1.1.\n\nLatte is a variation of Carlito.\nCarlito is Copyright (c) 2010-2013 by tyPoland Lukasz Dziedzic with Reserved Font Name "Carlito". Licensed under the SIL Open Font License, Version 1.1.

StartChar: .notdef
Encoding: 1114112 -1 0
Width: 1038
GlyphClass: 2
Flags: MW
LayerCount: 2
Fore
SplineSet
241 1101 m 1,0,1
 359 1204 359 1204 494 1204 c 128,-1,2
 629 1204 629 1204 704 1139 c 128,-1,3
 779 1074 779 1074 779 955.5 c 128,-1,4
 779 837 779 837 681 758 c 0,5,6
 656 736 656 736 617 705.5 c 128,-1,7
 578 675 578 675 571 642 c 1,8,-1
 554 542 l 1,9,-1
 435 542 l 1,10,-1
 422 655 l 2,11,12
 421 660 421 660 421 665 c 0,13,14
 421 730 421 730 515 798 c 0,15,16
 616 870 616 870 616 955 c 0,17,18
 616 1003 616 1003 581.5 1031.5 c 128,-1,19
 547 1060 547 1060 500.5 1060 c 128,-1,20
 454 1060 454 1060 427 1051.5 c 128,-1,21
 400 1043 400 1043 380.5 1032.5 c 128,-1,22
 361 1022 361 1022 348 1013.5 c 128,-1,23
 335 1005 335 1005 317 1005 c 128,-1,24
 299 1005 299 1005 287 1026 c 2,25,-1
 241 1101 l 1,0,1
500 176 m 0,26,27
 417 176 417 176 390 240 c 0,28,29
 382 260 382 260 382 282 c 0,30,31
 382 330 382 330 413 361 c 0,32,33
 444 392 444 392 476 392 c 0,34,35
 478 392 l 0,36,37
 534 391 534 391 564.5 359.5 c 128,-1,38
 595 328 595 328 595 294 c 0,39,40
 595 238 595 238 564.5 207 c 128,-1,41
 534 176 534 176 500 176 c 0,26,27
43 1383 m 1,42,-1
 985 1383 l 1,43,-1
 985 0 l 1,44,-1
 43 0 l 1,45,-1
 43 1383 l 1,42,-1
93 53 m 1,46,-1
 930 53 l 1,47,-1
 930 1330 l 1,48,-1
 93 1330 l 1,49,-1
 93 53 l 1,46,-1
EndSplineSet
EndChar

StartChar: glyph1
Encoding: 0 -1 1
AltUni2: 000000.ffffffff.0
Width: 0
Flags: MW
LayerCount: 2
Fore
SplineSet
-42 -349 m 256,0,1
 -57 -349 -57 -349 -57 -331.5 c 128,-1,2
 -57 -314 -57 -314 -41 -314 c 128,-1,3
 -25 -314 -25 -314 -25 -331.5 c 128,-1,4
 -25 -349 -25 -349 -42 -349 c 256,0,1
EndSplineSet
EndChar

StartChar: A
Encoding: 65 65 3
Width: 1185
GlyphClass: 2
Flags: MW
LayerCount: 2
Fore
SplineSet
1131 0 m 1,0,-1
 995 0 l 2,1,2
 951 0 951 0 940 42 c 2,3,-1
 862 361 l 1,4,-1
 298 361 l 1,5,-1
 141 42 l 2,6,7
 121 0 121 0 77 0 c 2,8,-1
 -60 0 l 1,9,-1
 607 1314 l 1,10,-1
 786 1314 l 1,11,-1
 1131 0 l 1,0,-1
361 488 m 1,12,-1
 831 488 l 1,13,-1
 700 1026 l 1,14,15
 682 1111 682 1111 677 1149 c 1,16,17
 644 1065 644 1065 626 1025 c 1,18,-1
 361 488 l 1,12,-1
EndSplineSet
Substitution2: "sous-table 'sups' Exposant lookups25" A.superior
Position2: "sous-table 'cpsp' Chasses pour composition en capitales lookups0" dx=40 dy=0 dh=80 dv=0
EndChar

StartChar: Aogonek
Encoding: 260 260 4
Width: 1185
GlyphClass: 2
Flags: MW
LayerCount: 2
Fore
SplineSet
910 -204 m 0,0,1
 910 -88 910 -88 1052 0 c 1,2,-1
 995 0 l 2,3,4
 951 0 951 0 940 42 c 2,5,-1
 862 361 l 1,6,-1
 298 361 l 1,7,-1
 141 42 l 2,8,9
 121 0 121 0 77 0 c 2,10,-1
 -60 0 l 1,11,-1
 607 1314 l 1,12,-1
 786 1314 l 1,13,-1
 1129 8 l 1,14,-1
 1164 3 l 1,15,16
 1084 -41 1084 -41 1054 -105 c 0,17,18
 1042 -129 1042 -129 1042 -158.5 c 128,-1,19
 1042 -188 1042 -188 1060.5 -206.5 c 128,-1,20
 1079 -225 1079 -225 1104.5 -225 c 128,-1,21
 1130 -225 1130 -225 1144 -221.5 c 128,-1,22
 1158 -218 1158 -218 1167 -213.5 c 128,-1,23
 1176 -209 1176 -209 1181.5 -205.5 c 128,-1,24
 1187 -202 1187 -202 1191 -202 c 0,25,26
 1205 -202 1205 -202 1208 -214 c 2,27,-1
 1226 -277 l 1,28,29
 1158 -327 1158 -327 1074 -327 c 128,-1,30
 990 -327 990 -327 950 -293.5 c 128,-1,31
 910 -260 910 -260 910 -204 c 0,0,1
361 488 m 1,32,-1
 831 488 l 1,33,-1
 700 1026 l 1,34,35
 682 1111 682 1111 677 1149 c 1,36,37
 644 1065 644 1065 626 1025 c 1,38,-1
 361 488 l 1,32,-1
EndSplineSet
Position2: "sous-table 'cpsp' Chasses pour composition en capitales lookups0" dx=40 dy=0 dh=80 dv=0
EndChar

StartChar: AE
Encoding: 198 198 5
Width: 1563
GlyphClass: 2
Flags: MW
LayerCount: 2
Fore
SplineSet
1566 1172 m 1,0,-1
 935 1172 l 1,1,-1
 935 731 l 1,2,-1
 1401 731 l 1,3,-1
 1384 593 l 1,4,-1
 935 593 l 1,5,-1
 935 142 l 1,6,-1
 1440 142 l 1,7,-1
 1421 0 l 1,8,-1
 768 0 l 1,9,-1
 768 361 l 1,10,-1
 310 361 l 1,11,-1
 124 42 l 2,12,13
 99 0 99 0 55 0 c 2,14,-1
 -82 0 l 1,15,-1
 705 1314 l 1,16,-1
 1583 1314 l 1,17,-1
 1566 1172 l 1,0,-1
384 488 m 1,18,-1
 768 488 l 1,19,-1
 768 1166 l 1,20,21
 743 1103 743 1103 712 1050 c 2,22,-1
 384 488 l 1,18,-1
EndSplineSet
Position2: "sous-table 'cpsp' Chasses pour composition en capitales lookups0" dx=40 dy=0 dh=80 dv=0
EndChar

StartChar: B
Encoding: 66 66 6
Width: 1114
GlyphClass: 2
Flags: MW
LayerCount: 2
Fore
SplineSet
773 675 m 1,0,1
 1017 623 1017 623 1017 409 c 0,2,3
 1017 226 1017 226 887 114 c 0,4,5
 756 0 756 0 532 0 c 1,6,-1
 90 0 l 1,7,-1
 252 1314 l 1,8,-1
 649 1314 l 2,9,10
 952 1314 952 1314 1026 1142 c 0,11,12
 1050 1088 1050 1088 1050 1025 c 0,13,14
 1050 901 1050 901 979 808.5 c 128,-1,15
 908 716 908 716 773 675 c 1,0,1
340 600 m 1,16,-1
 284 138 l 1,17,-1
 546 138 l 2,18,19
 766 138 766 138 824 298 c 0,20,21
 843 349 843 349 843 424 c 0,22,23
 843 498 843 498 783 549 c 0,24,25
 723 600 723 600 602 600 c 2,26,-1
 340 600 l 1,16,-1
872 989 m 0,27,28
 872 1177 872 1177 633 1177 c 2,29,-1
 411 1177 l 1,30,-1
 355 723 l 1,31,-1
 570 723 l 2,32,33
 792 723 792 723 853 881 c 0,34,35
 872 930 872 930 872 989 c 0,27,28
EndSplineSet
Substitution2: "sous-table 'sups' Exposant lookups25" B.superior
Position2: "sous-table 'cpsp' Chasses pour composition en capitales lookups0" dx=40 dy=0 dh=80 dv=0
EndChar

StartChar: C
Encoding: 67 67 7
Width: 1070
GlyphClass: 2
Flags: MW
LayerCount: 2
Fore
SplineSet
1003 183 m 5,0,1
 831 -14 831 -14 562 -14 c 4,2,3
 341 -14 341 -14 213.5 142.5 c 132,-1,4
 86 299 86 299 86 551 c 4,5,6
 86 892 86 892 278 1112 c 4,7,8
 368 1214 368 1214 489 1271.5 c 132,-1,9
 610 1329 610 1329 748 1329 c 4,10,11
 984 1329 984 1329 1115 1155 c 5,12,-1
 1055 1082 l 5,13,14
 1036 1061 1036 1061 1020 1061 c 132,-1,15
 1004 1061 1004 1061 993 1069.5 c 132,-1,16
 982 1078 982 1078 968 1091 c 4,17,18
 928 1127 928 1127 877 1151.5 c 132,-1,19
 826 1176 826 1176 732 1176 c 4,20,21
 533 1176 533 1176 399.5 1008.5 c 132,-1,22
 266 841 266 841 266 566 c 4,23,24
 266 368 266 368 357 253 c 132,-1,25
 448 138 448 138 592 137 c 4,26,27
 594 137 594 137 595 137 c 4,28,29
 769 137 769 137 882 248 c 4,30,31
 903 268 903 268 919 268 c 4,32,33
 920 268 920 268 920 269 c 4,34,35
 935 269 935 269 940 259 c 5,36,-1
 1003 183 l 5,0,1
EndSplineSet
Substitution2: "sous-table 'sups' Exposant lookups25" C.superior
Position2: "sous-table 'cpsp' Chasses pour composition en capitales lookups0" dx=40 dy=0 dh=80 dv=0
EndChar

StartChar: Ccedilla
Encoding: 199 199 8
Width: 1070
GlyphClass: 2
Flags: MW
LayerCount: 2
Fore
SplineSet
567 -66 m 5,0,1
 702 -99 702 -99 702 -188 c 4,2,3
 702 -254 702 -254 643 -295 c 132,-1,4
 584 -336 584 -336 501.5 -336 c 132,-1,5
 419 -336 419 -336 361 -305 c 5,6,-1
 384 -253 l 6,7,8
 392 -237 392 -237 402.5 -237 c 132,-1,9
 413 -237 413 -237 419.5 -240.5 c 132,-1,10
 426 -244 426 -244 442 -252 c 132,-1,11
 458 -260 458 -260 492 -260 c 132,-1,12
 526 -260 526 -260 547 -241 c 132,-1,13
 568 -222 568 -222 568 -191.5 c 132,-1,14
 568 -161 568 -161 534 -147 c 132,-1,15
 500 -133 500 -133 436 -124 c 5,16,-1
 482 -8 l 5,17,18
 297 20 297 20 191.5 171 c 132,-1,19
 86 322 86 322 86 551 c 4,20,21
 86 892 86 892 278 1112 c 4,22,23
 368 1214 368 1214 489 1271.5 c 132,-1,24
 610 1329 610 1329 748 1329 c 4,25,26
 984 1329 984 1329 1115 1155 c 5,27,-1
 1055 1082 l 5,28,29
 1036 1061 1036 1061 1020 1061 c 132,-1,30
 1004 1061 1004 1061 993 1069.5 c 132,-1,31
 982 1078 982 1078 968 1091 c 4,32,33
 928 1127 928 1127 877 1151.5 c 132,-1,34
 826 1176 826 1176 732 1176 c 4,35,36
 533 1176 533 1176 399.5 1008.5 c 132,-1,37
 266 841 266 841 266 566 c 4,38,39
 266 368 266 368 357 253 c 132,-1,40
 448 138 448 138 592 137 c 4,41,42
 594 137 594 137 595 137 c 4,43,44
 769 137 769 137 882 248 c 4,45,46
 903 268 903 268 919 268 c 4,47,48
 920 268 920 268 920 269 c 4,49,50
 935 269 935 269 940 259 c 5,51,-1
 1003 183 l 5,52,53
 840 -3 840 -3 588 -13 c 5,54,-1
 567 -66 l 5,0,1
EndSplineSet
Position2: "sous-table 'cpsp' Chasses pour composition en capitales lookups0" dx=40 dy=0 dh=80 dv=0
EndChar

StartChar: D
Encoding: 68 68 9
Width: 1260
GlyphClass: 2
Flags: MW
LayerCount: 2
Fore
SplineSet
1222 729 m 0,0,1
 1222 583 1222 583 1170.5 444.5 c 128,-1,2
 1119 306 1119 306 1028 207 c 0,3,4
 838 0 838 0 537 0 c 2,5,-1
 86 0 l 1,6,-1
 248 1314 l 1,7,-1
 699 1314 l 2,8,9
 937 1314 937 1314 1079.5 1159 c 128,-1,10
 1222 1004 1222 1004 1222 729 c 0,0,1
1005.5 493 m 128,-1,12
 1041 605 1041 605 1041 725 c 0,13,14
 1041 944 1041 944 945.5 1058 c 128,-1,15
 850 1172 850 1172 682 1172 c 2,16,-1
 408 1172 l 1,17,-1
 281 142 l 1,18,-1
 554 142 l 2,19,20
 774 142 774 142 906 303 c 0,21,11
 970 381 970 381 1005.5 493 c 128,-1,12
EndSplineSet
Substitution2: "sous-table 'sups' Exposant lookups25" D.superior
Position2: "sous-table 'cpsp' Chasses pour composition en capitales lookups0" dx=40 dy=0 dh=80 dv=0
EndChar

StartChar: E
Encoding: 69 69 11
Width: 1000
GlyphClass: 2
Flags: MW
LayerCount: 2
Fore
SplineSet
999 1172 m 1,0,-1
 412 1172 l 1,1,-1
 358 732 l 1,2,-1
 832 732 l 1,3,-1
 815 594 l 1,4,-1
 341 594 l 1,5,-1
 286 142 l 1,6,-1
 874 142 l 1,7,-1
 857 0 l 1,8,-1
 90 0 l 1,9,-1
 252 1314 l 1,10,-1
 1017 1314 l 1,11,-1
 999 1172 l 1,0,-1
EndSplineSet
Substitution2: "sous-table 'sups' Exposant lookups25" E.superior
Position2: "sous-table 'cpsp' Chasses pour composition en capitales lookups0" dx=40 dy=0 dh=80 dv=0
EndChar

StartChar: Eogonek
Encoding: 280 280 12
Width: 1000
GlyphClass: 2
Flags: MW
LayerCount: 2
Fore
SplineSet
766 0 m 1,0,1
 650 -62 650 -62 650 -159 c 0,2,3
 650 -188 650 -188 668.5 -206.5 c 128,-1,4
 687 -225 687 -225 712.5 -225 c 128,-1,5
 738 -225 738 -225 752 -221.5 c 128,-1,6
 766 -218 766 -218 775 -213.5 c 128,-1,7
 784 -209 784 -209 789.5 -205.5 c 128,-1,8
 795 -202 795 -202 799 -202 c 0,9,10
 813 -202 813 -202 816 -214 c 2,11,-1
 834 -277 l 1,12,13
 766 -327 766 -327 682 -327 c 128,-1,14
 598 -327 598 -327 558 -293.5 c 128,-1,15
 518 -260 518 -260 518 -204 c 0,16,17
 518 -88 518 -88 660 0 c 1,18,-1
 90 0 l 1,19,-1
 252 1314 l 1,20,-1
 1017 1314 l 1,21,-1
 999 1172 l 1,22,-1
 412 1172 l 1,23,-1
 358 732 l 1,24,-1
 832 732 l 1,25,-1
 815 594 l 1,26,-1
 341 594 l 1,27,-1
 286 142 l 1,28,-1
 874 142 l 1,29,-1
 857 0 l 1,30,-1
 766 0 l 1,0,1
EndSplineSet
Position2: "sous-table 'cpsp' Chasses pour composition en capitales lookups0" dx=40 dy=0 dh=80 dv=0
EndChar

StartChar: F
Encoding: 70 70 13
Width: 941
GlyphClass: 2
Flags: MW
LayerCount: 2
Fore
SplineSet
970 1172 m 1,0,-1
 406 1172 l 1,1,-1
 349 708 l 1,2,-1
 831 708 l 1,3,-1
 812 565 l 1,4,-1
 332 565 l 1,5,-1
 263 0 l 1,6,-1
 85 0 l 1,7,-1
 247 1314 l 1,8,-1
 988 1314 l 1,9,-1
 970 1172 l 1,0,-1
EndSplineSet
Substitution2: "sous-table 'sups' Exposant lookups25" F.superior
Position2: "sous-table 'cpsp' Chasses pour composition en capitales lookups0" dx=40 dy=0 dh=80 dv=0
EndChar

StartChar: G
Encoding: 71 71 14
Width: 1292
GlyphClass: 2
Flags: MW
LayerCount: 2
Fore
SplineSet
383 246 m 0,0,1
 434 188 434 188 508 157.5 c 128,-1,2
 582 127 582 127 652 127 c 0,3,4
 768 127 768 127 841.5 146 c 128,-1,5
 915 165 915 165 990 204 c 1,6,-1
 1027 497 l 1,7,-1
 835 497 l 2,8,9
 818 496 818 496 808 506 c 0,10,11
 800 514 800 514 800 525 c 0,12,13
 800 527 800 527 800 530 c 2,14,-1
 810 630 l 1,15,-1
 1203 630 l 1,16,-1
 1140 127 l 1,17,18
 932 -14 932 -14 658 -14 c 0,19,20
 397 -14 397 -14 245.5 147.5 c 128,-1,21
 94 309 94 309 94 567 c 0,22,23
 94 906 94 906 298 1118 c 0,24,25
 502 1329 502 1329 814 1329 c 0,26,27
 815 1329 815 1329 817 1329 c 0,28,29
 1091 1329 1091 1329 1253 1158 c 1,30,-1
 1198 1084 l 2,31,32
 1180 1059 1180 1059 1161 1059 c 128,-1,33
 1142 1059 1142 1059 1123 1070.5 c 128,-1,34
 1104 1082 1104 1082 1078 1100 c 0,35,36
 968 1176 968 1176 828 1176 c 0,37,38
 565 1176 565 1176 419.5 1011 c 128,-1,39
 274 846 274 846 274 573 c 0,40,41
 274 366 274 366 383 246 c 0,0,1
EndSplineSet
Substitution2: "sous-table 'sups' Exposant lookups25" G.superior
Position2: "sous-table 'cpsp' Chasses pour composition en capitales lookups0" dx=40 dy=0 dh=80 dv=0
EndChar

StartChar: H
Encoding: 72 72 15
Width: 1276
GlyphClass: 2
Flags: MW
LayerCount: 2
Fore
SplineSet
1077 0 m 1,0,-1
 899 0 l 1,1,-1
 973 599 l 1,2,-1
 338 599 l 1,3,-1
 265 0 l 1,4,-1
 87 0 l 1,5,-1
 249 1314 l 1,6,-1
 426 1314 l 1,7,-1
 354 726 l 1,8,-1
 988 726 l 1,9,-1
 1061 1314 l 1,10,-1
 1238 1314 l 1,11,-1
 1077 0 l 1,0,-1
EndSplineSet
Substitution2: "sous-table 'sups' Exposant lookups25" H.superior
Position2: "sous-table 'cpsp' Chasses pour composition en capitales lookups0" dx=40 dy=0 dh=80 dv=0
EndChar

StartChar: Hbar
Encoding: 294 294 16
Width: 1344
GlyphClass: 2
Flags: MW
LayerCount: 2
Fore
SplineSet
1243 1057 m 1,0,-1
 1385 1057 l 1,1,-1
 1374 951 l 1,2,-1
 1230 951 l 1,3,-1
 1114 0 l 1,4,-1
 936 0 l 1,5,-1
 1010 599 l 1,6,-1
 375 599 l 1,7,-1
 302 0 l 1,8,-1
 124 0 l 1,9,-1
 241 951 l 1,10,-1
 99 951 l 1,11,-1
 111 1057 l 1,12,-1
 254 1057 l 1,13,-1
 286 1314 l 1,14,-1
 463 1314 l 1,15,-1
 431 1057 l 1,16,-1
 1066 1057 l 1,17,-1
 1098 1314 l 1,18,-1
 1275 1314 l 1,19,-1
 1243 1057 l 1,0,-1
391 726 m 1,20,-1
 1025 726 l 1,21,-1
 1053 951 l 1,22,-1
 418 951 l 1,23,-1
 391 726 l 1,20,-1
EndSplineSet
Position2: "sous-table 'cpsp' Chasses pour composition en capitales lookups0" dx=40 dy=0 dh=80 dv=0
EndChar

StartChar: I
Encoding: 73 73 17
Width: 516
GlyphClass: 2
Flags: MW
LayerCount: 2
Fore
SplineSet
293 0 m 1,0,-1
 115 0 l 1,1,-1
 276 1314 l 1,2,-1
 453 1314 l 1,3,-1
 293 0 l 1,0,-1
EndSplineSet
Substitution2: "sous-table 'sups' Exposant lookups25" I.superior
Position2: "sous-table 'cpsp' Chasses pour composition en capitales lookups0" dx=40 dy=0 dh=80 dv=0
EndChar

StartChar: Iogonek
Encoding: 302 302 18
Width: 516
GlyphClass: 2
Flags: MW
LayerCount: 2
Fore
SplineSet
264 0 m 1,0,1
 148 -62 148 -62 148 -159 c 0,2,3
 148 -188 148 -188 166.5 -206.5 c 128,-1,4
 185 -225 185 -225 210.5 -225 c 128,-1,5
 236 -225 236 -225 250 -221.5 c 128,-1,6
 264 -218 264 -218 273 -213.5 c 128,-1,7
 282 -209 282 -209 287.5 -205.5 c 128,-1,8
 293 -202 293 -202 297 -202 c 0,9,10
 311 -202 311 -202 314 -214 c 2,11,-1
 332 -277 l 1,12,13
 264 -327 264 -327 180 -327 c 128,-1,14
 96 -327 96 -327 56 -293.5 c 128,-1,15
 16 -260 16 -260 16 -204 c 0,16,17
 16 -88 16 -88 158 0 c 1,18,-1
 115 0 l 1,19,-1
 276 1314 l 1,20,-1
 453 1314 l 1,21,-1
 293 0 l 1,22,-1
 264 0 l 1,0,1
EndSplineSet
Position2: "sous-table 'cpsp' Chasses pour composition en capitales lookups0" dx=40 dy=0 dh=80 dv=0
EndChar

StartChar: J
Encoding: 74 74 19
Width: 653
GlyphClass: 2
Flags: MW
LayerCount: 2
Fore
SplineSet
541 437 m 2,0,1
 514 219 514 219 413.5 102 c 128,-1,2
 313 -15 313 -15 147 -15 c 0,3,4
 61 -15 61 -15 -11 11 c 1,5,-1
 3 114 l 2,6,7
 8 148 8 148 41 148 c 0,8,9
 58 148 58 148 83 140.5 c 128,-1,10
 108 133 108 133 149 133 c 0,11,12
 329 133 329 133 365 433 c 2,13,-1
 473 1314 l 1,14,-1
 648 1314 l 1,15,-1
 541 437 l 2,0,1
EndSplineSet
Substitution2: "sous-table 'sups' Exposant lookups25" J.superior
Position2: "sous-table 'cpsp' Chasses pour composition en capitales lookups0" dx=40 dy=0 dh=80 dv=0
EndChar

StartChar: K
Encoding: 75 75 20
Width: 1064
GlyphClass: 2
Flags: MW
LayerCount: 2
Fore
SplineSet
352 738 m 1,0,-1
 406 738 l 2,1,2
 459 738 459 738 490 776 c 2,3,-1
 891 1275 l 1,4,5
 925 1314 925 1314 981 1314 c 2,6,-1
 1131 1314 l 1,7,-1
 663 746 l 1,8,9
 627 704 627 704 590 688 c 1,10,11
 635 670 635 670 661 624 c 1,12,-1
 998 0 l 1,13,-1
 845 0 l 2,14,15
 812 0 812 0 798.5 10 c 128,-1,16
 785 20 785 20 775 37 c 2,17,-1
 485 560 l 2,18,19
 472 583 472 583 455 592.5 c 128,-1,20
 438 602 438 602 402 602 c 2,21,-1
 335 602 l 1,22,-1
 261 0 l 1,23,-1
 86 0 l 1,24,-1
 247 1315 l 1,25,-1
 423 1315 l 1,26,-1
 352 738 l 1,0,-1
EndSplineSet
Substitution2: "sous-table 'sups' Exposant lookups25" K.superior
Position2: "sous-table 'cpsp' Chasses pour composition en capitales lookups0" dx=40 dy=0 dh=80 dv=0
EndChar

StartChar: L
Encoding: 76 76 21
Width: 861
GlyphClass: 2
Flags: MW
LayerCount: 2
Fore
SplineSet
281 148 m 1,0,-1
 792 148 l 1,1,-1
 774 0 l 1,2,-1
 86 0 l 1,3,-1
 248 1314 l 1,4,-1
 424 1314 l 1,5,-1
 281 148 l 1,0,-1
EndSplineSet
Substitution2: "sous-table 'sups' Exposant lookups25" L.superior
Position2: "sous-table 'cpsp' Chasses pour composition en capitales lookups0" dx=40 dy=0 dh=80 dv=0
EndChar

StartChar: Lslash
Encoding: 321 321 22
Width: 880
GlyphClass: 2
Flags: MW
LayerCount: 2
Fore
SplineSet
400 746 m 1,0,-1
 715 917 l 1,1,-1
 700 800 l 2,2,3
 697 773 697 773 672 759 c 2,4,-1
 382 599 l 1,5,-1
 327 148 l 1,6,-1
 838 148 l 1,7,-1
 820 0 l 1,8,-1
 132 0 l 1,9,-1
 195 509 l 1,10,-1
 24 421 l 1,11,-1
 39 541 l 2,12,13
 42 564 42 564 66 578 c 1,14,-1
 213 655 l 1,15,-1
 294 1314 l 1,16,-1
 470 1314 l 1,17,-1
 400 746 l 1,0,-1
EndSplineSet
Position2: "sous-table 'cpsp' Chasses pour composition en capitales lookups0" dx=40 dy=0 dh=80 dv=0
EndChar

StartChar: Lcaron
Encoding: 317 317 23
Width: 866
GlyphClass: 2
Flags: MW
LayerCount: 2
Fore
SplineSet
219 148 m 1,0,-1
 730 148 l 1,1,-1
 712 0 l 1,2,-1
 24 0 l 1,3,-1
 186 1314 l 1,4,-1
 362 1314 l 1,5,-1
 219 148 l 1,0,-1
767 1352 m 2,6,7
 793 1352 793 1352 793 1322 c 0,8,9
 793 1292 793 1292 692 1086 c 0,10,11
 675 1053 675 1053 630 1053 c 2,12,-1
 574 1053 l 1,13,-1
 660 1352 l 1,14,-1
 767 1352 l 2,6,7
EndSplineSet
Position2: "sous-table 'cpsp' Chasses pour composition en capitales lookups0" dx=40 dy=0 dh=80 dv=0
EndChar

StartChar: M
Encoding: 77 77 24
Width: 1751
GlyphClass: 2
Flags: MW
LayerCount: 2
Fore
SplineSet
839 462 m 1,0,1
 852 430 852 430 862 388 c 1,2,3
 878 427 878 427 901 463 c 1,4,-1
 1488 1282 l 2,5,6
 1502 1303 1502 1303 1514 1308.5 c 128,-1,7
 1526 1314 1526 1314 1550 1314 c 2,8,-1
 1679 1314 l 1,9,-1
 1518 0 l 1,10,-1
 1362 0 l 1,11,-1
 1487 964 l 2,12,13
 1491 1001 1491 1001 1505 1064 c 1,14,-1
 923 230 l 1,15,16
 899 191 899 191 855 191 c 2,17,-1
 830 191 l 2,18,19
 785 191 785 191 769 230 c 1,20,-1
 388 1063 l 1,21,22
 385 990 385 990 383 968 c 2,23,-1
 262 0 l 1,24,-1
 107 0 l 1,25,-1
 268 1314 l 1,26,-1
 396 1314 l 2,27,28
 420 1314 420 1314 431 1308 c 128,-1,29
 442 1302 442 1302 456 1283 c 1,30,-1
 839 462 l 1,0,1
EndSplineSet
Substitution2: "sous-table 'sups' Exposant lookups25" M.superior
Position2: "sous-table 'cpsp' Chasses pour composition en capitales lookups0" dx=40 dy=0 dh=80 dv=0
EndChar

StartChar: N
Encoding: 78 78 25
Width: 1320
GlyphClass: 2
Flags: MW
LayerCount: 2
Fore
SplineSet
379 1309 m 128,-1,1
 390 1304 390 1304 401 1284 c 2,2,-1
 993 287 l 1,3,4
 995 308 995 308 996.5 327.5 c 128,-1,5
 998 347 998 347 1000 364 c 2,6,-1
 1118 1314 l 1,7,-1
 1274 1314 l 1,8,-1
 1113 0 l 1,9,-1
 1024 0 l 2,10,11
 985 0 985 0 964 34 c 2,12,-1
 371 1031 l 1,13,14
 370 1014 370 1014 369 997 c 128,-1,15
 368 980 368 980 366 966 c 2,16,-1
 247 0 l 1,17,-1
 92 0 l 1,18,-1
 254 1314 l 1,19,-1
 345 1314 l 2,20,0
 368 1314 368 1314 379 1309 c 128,-1,1
EndSplineSet
Substitution2: "sous-table 'sups' Exposant lookups25" N.superior
Position2: "sous-table 'cpsp' Chasses pour composition en capitales lookups0" dx=40 dy=0 dh=80 dv=0
EndChar

StartChar: Eng
Encoding: 330 330 26
Width: 1284
GlyphClass: 2
Flags: MW
LayerCount: 2
Fore
SplineSet
403 1308 m 128,-1,1
 414 1302 414 1302 425 1282 c 2,2,-1
 997 292 l 1,3,4
 998 322 998 322 1004 379 c 1,5,-1
 1119 1314 l 1,6,-1
 1273 1314 l 1,7,-1
 1118 43 l 1,8,-1
 1117 43 l 1,9,-1
 1113 5 l 1,10,11
 1084 -235 1084 -235 922 -304 c 0,12,13
 866 -328 866 -328 790 -328 c 0,14,15
 714 -328 714 -328 646 -295 c 1,16,-1
 673 -226 l 2,17,18
 686 -193 686 -193 713 -193 c 256,19,20
 724 -193 724 -193 741 -200 c 128,-1,21
 758 -207 758 -207 790 -207 c 0,22,23
 931 -207 931 -207 955 -13 c 1,24,-1
 961 38 l 1,25,-1
 394 1021 l 1,26,27
 392 974 392 974 388 941 c 2,28,-1
 271 0 l 1,29,-1
 117 0 l 1,30,-1
 279 1314 l 1,31,-1
 369 1314 l 2,32,0
 392 1314 392 1314 403 1308 c 128,-1,1
EndSplineSet
Substitution2: "sous-table 'ss03' Style 3 lookups33" Eng.ss03
Substitution2: "sous-table 'ss02' Style 2 lookups31" Eng.ss02
Substitution2: "sous-table 'ss01' Style 1 lookups29" Eng.ss01
Position2: "sous-table 'cpsp' Chasses pour composition en capitales lookups0" dx=40 dy=0 dh=80 dv=0
EndChar

StartChar: O
Encoding: 79 79 27
Width: 1340
GlyphClass: 2
Flags: MW
LayerCount: 2
Fore
SplineSet
1266.5 982 m 128,-1,1
 1303 876 1303 876 1303 757.5 c 128,-1,2
 1303 639 1303 639 1279.5 539 c 128,-1,3
 1256 439 1256 439 1212 354 c 0,4,5
 1124 183 1124 183 967 84.5 c 128,-1,6
 810 -14 810 -14 613 -14 c 0,7,8
 372 -14 372 -14 231 147.5 c 128,-1,9
 90 309 90 309 90 563 c 0,10,11
 90 895 90 895 287 1113 c 0,12,13
 379 1215 379 1215 505.5 1272 c 128,-1,14
 632 1329 632 1329 766 1329 c 128,-1,15
 900 1329 900 1329 997 1285.5 c 128,-1,16
 1094 1242 1094 1242 1162 1165 c 128,-1,0
 1230 1088 1230 1088 1266.5 982 c 128,-1,1
1085 492 m 0,17,18
 1121 606 1121 606 1121 726 c 0,19,20
 1121 948 1121 948 1023 1065 c 128,-1,21
 925 1182 925 1182 757 1182 c 0,22,23
 540 1182 540 1182 405 1013 c 128,-1,24
 270 844 270 844 270 567 c 0,25,26
 270 369 270 369 367 251 c 128,-1,27
 464 133 464 133 633 133 c 0,28,29
 850 133 850 133 984 299 c 0,30,31
 1048 378 1048 378 1085 492 c 0,17,18
EndSplineSet
Substitution2: "sous-table 'sups' Exposant lookups25" O.superior
Position2: "sous-table 'cpsp' Chasses pour composition en capitales lookups0" dx=40 dy=0 dh=80 dv=0
EndChar

StartChar: Oslash
Encoding: 216 216 28
Width: 1347
GlyphClass: 2
Flags: MW
LayerCount: 2
Fore
SplineSet
1176 1150 m 1,0,1
 1305 994 1305 994 1305 751 c 0,2,3
 1305 417 1305 417 1108.5 201.5 c 128,-1,4
 912 -14 912 -14 615 -14 c 0,5,6
 443 -14 443 -14 315 74 c 1,7,-1
 217 -49 l 1,8,9
 175 -100 175 -100 113 -100 c 2,10,-1
 42 -100 l 1,11,-1
 237 144 l 1,12,13
 92 304 92 304 92 563 c 0,14,15
 92 895 92 895 289 1113 c 0,16,17
 484 1329 484 1329 802 1329 c 0,18,19
 970 1329 970 1329 1100 1224 c 1,20,-1
 1182 1326 l 2,21,22
 1202 1352 1202 1352 1217.5 1362.5 c 128,-1,23
 1233 1373 1233 1373 1263 1373 c 2,24,-1
 1354 1373 l 1,25,-1
 1176 1150 l 1,0,1
996 1094 m 1,26,27
 904 1182 904 1182 778 1182 c 0,28,29
 542 1182 542 1182 407 1013 c 128,-1,30
 272 844 272 844 272 567 c 0,31,32
 272 394 272 394 346 281 c 1,33,-1
 996 1094 l 1,26,27
1087 492.5 m 128,-1,35
 1123 606 1123 606 1123 716 c 0,36,37
 1123 900 1123 900 1063 1009 c 1,38,-1
 418 203 l 1,39,40
 506 133 506 133 624.5 133 c 128,-1,41
 743 133 743 133 832.5 176 c 128,-1,42
 922 219 922 219 986.5 299 c 128,-1,34
 1051 379 1051 379 1087 492.5 c 128,-1,35
EndSplineSet
Position2: "sous-table 'cpsp' Chasses pour composition en capitales lookups0" dx=40 dy=0 dh=80 dv=0
EndChar

StartChar: OE
Encoding: 338 338 29
Width: 1775
GlyphClass: 2
Flags: MW
LayerCount: 2
Fore
SplineSet
961 197 m 1,0,1
 795 -13 795 -13 536 -13 c 0,2,3
 330 -13 330 -13 208.5 144 c 128,-1,4
 87 301 87 301 87 555 c 0,5,6
 88 891 88 891 262 1110 c 0,7,8
 437 1329 437 1329 697 1329 c 0,9,10
 698 1329 698 1329 699 1329 c 256,11,12
 830 1329 830 1329 924 1264 c 128,-1,13
 1018 1199 1018 1199 1071 1088 c 1,14,-1
 1099 1314 l 1,15,-1
 1802 1314 l 1,16,-1
 1785 1172 l 1,17,-1
 1238 1172 l 1,18,-1
 1184 731 l 1,19,-1
 1623 731 l 1,20,-1
 1606 593 l 1,21,-1
 1167 593 l 1,22,-1
 1112 142 l 1,23,-1
 1659 142 l 1,24,-1
 1640 0 l 1,25,-1
 937 0 l 1,26,-1
 961 197 l 1,0,1
971.5 500 m 128,-1,28
 1003 616 1003 616 1003 735 c 0,29,30
 1003 956 1003 956 922.5 1071.5 c 128,-1,31
 842 1187 842 1187 701 1187 c 0,32,33
 508 1186 508 1186 387 1012 c 0,34,35
 267 839 267 839 267 561 c 0,36,37
 267 361 267 361 347.5 245 c 128,-1,38
 428 129 428 129 572 129 c 0,39,40
 764 130 764 130 883 302 c 0,41,27
 940 384 940 384 971.5 500 c 128,-1,28
EndSplineSet
Position2: "sous-table 'cpsp' Chasses pour composition en capitales lookups0" dx=40 dy=0 dh=80 dv=0
EndChar

StartChar: P
Encoding: 80 80 30
Width: 1058
GlyphClass: 2
Flags: MW
LayerCount: 2
Fore
SplineSet
638 1314 m 2,0,1
 1056 1314 1056 1314 1056 952 c 0,2,3
 1056 860 1056 860 1021.5 774 c 128,-1,4
 987 688 987 688 921 625 c 0,5,6
 782 492 782 492 536 492 c 2,7,-1
 341 492 l 1,8,-1
 281 0 l 1,9,-1
 106 0 l 1,10,-1
 267 1314 l 1,11,-1
 638 1314 l 2,0,1
426 1177 m 1,12,-1
 358 630 l 1,13,-1
 553 630 l 2,14,15
 707 630 707 630 793 718 c 128,-1,16
 879 806 879 806 879 930 c 0,17,18
 879 1177 879 1177 621 1177 c 2,19,-1
 426 1177 l 1,12,-1
EndSplineSet
Substitution2: "sous-table 'sups' Exposant lookups25" P.superior
Position2: "sous-table 'cpsp' Chasses pour composition en capitales lookups0" dx=40 dy=0 dh=80 dv=0
EndChar

StartChar: Thorn
Encoding: 222 222 31
Width: 1058
GlyphClass: 2
Flags: MW
LayerCount: 2
Fore
SplineSet
470 1070 m 1,0,-1
 665 1070 l 2,1,2
 976 1070 976 1070 1058 865 c 0,3,4
 1084 801 1084 801 1084 709.5 c 128,-1,5
 1084 618 1084 618 1049 531 c 128,-1,6
 1014 444 1014 444 948 382 c 0,7,8
 808 250 808 250 569 250 c 0,9,10
 567 250 567 250 565 250 c 1,11,-1
 369 250 l 1,12,-1
 338 0 l 1,13,-1
 163 0 l 1,14,-1
 324 1314 l 1,15,-1
 500 1314 l 1,16,-1
 470 1070 l 1,0,-1
453 932 m 1,17,-1
 386 388 l 1,18,-1
 582 388 l 2,19,20
 735 388 735 388 821 476 c 128,-1,21
 907 564 907 564 907 688 c 128,-1,22
 907 812 907 812 843.5 872 c 128,-1,23
 780 932 780 932 647 932 c 2,24,-1
 453 932 l 1,17,-1
EndSplineSet
Position2: "sous-table 'cpsp' Chasses pour composition en capitales lookups0" dx=40 dy=0 dh=80 dv=0
EndChar

StartChar: Q
Encoding: 81 81 32
Width: 1360
GlyphClass: 2
Flags: MW
LayerCount: 2
Fore
SplineSet
827 17 m 1,0,1
 726 -14 726 -14 613 -14 c 0,2,3
 382 -14 382 -14 240 147.5 c 128,-1,4
 98 309 98 309 98 563 c 0,5,6
 98 895 98 895 295 1113 c 0,7,8
 387 1215 387 1215 513.5 1272 c 128,-1,9
 640 1329 640 1329 774 1329 c 0,10,11
 1025 1329 1025 1329 1168 1167 c 128,-1,12
 1311 1005 1311 1005 1311 751 c 0,13,14
 1311 420 1311 420 1117 204 c 0,15,16
 1056 136 1056 136 980 88 c 1,17,-1
 1249 -272 l 1,18,-1
 1106 -272 l 2,19,20
 1039 -272 1039 -272 1008 -230 c 2,21,-1
 827 17 l 1,0,1
1093 492 m 0,22,23
 1129 606 1129 606 1129 726 c 0,24,25
 1129 948 1129 948 1031 1065 c 128,-1,26
 933 1182 933 1182 765 1182 c 0,27,28
 548 1182 548 1182 413 1013 c 128,-1,29
 278 844 278 844 278 567 c 0,30,31
 278 369 278 369 375 251 c 128,-1,32
 472 133 472 133 641 133 c 0,33,34
 858 133 858 133 992 299 c 0,35,36
 1056 378 1056 378 1093 492 c 0,22,23
EndSplineSet
Substitution2: "sous-table 'sups' Exposant lookups25" Q.superior
Position2: "sous-table 'cpsp' Chasses pour composition en capitales lookups0" dx=40 dy=0 dh=80 dv=0
EndChar

StartChar: R
Encoding: 82 82 33
Width: 1112
GlyphClass: 2
Flags: MW
LayerCount: 2
Fore
SplineSet
621 1314 m 2,0,1
 1036 1314 1036 1314 1036 996 c 0,2,3
 1036 839 1036 839 942.5 727.5 c 128,-1,4
 849 616 849 616 687 578 c 1,5,6
 718 556 718 556 738 522 c 1,7,-1
 1027 0 l 1,8,-1
 870 0 l 2,9,10
 824 0 824 0 803 38 c 2,11,-1
 551 508 l 1,12,13
 540 531 540 531 523.5 540.5 c 128,-1,14
 507 550 507 550 472 550 c 2,15,-1
 348 550 l 1,16,-1
 281 0 l 1,17,-1
 106 0 l 1,18,-1
 267 1314 l 1,19,-1
 621 1314 l 2,0,1
604 1177 m 2,20,-1
 425 1177 l 1,21,-1
 364 677 l 1,22,-1
 535 677 l 1,23,24
 537 677 537 677 539 677 c 0,25,26
 691 677 691 677 776 758 c 128,-1,27
 861 839 861 839 861 969 c 0,28,29
 861 1177 861 1177 604 1177 c 2,20,-1
EndSplineSet
Substitution2: "sous-table 'sups' Exposant lookups25" R.superior
Position2: "sous-table 'cpsp' Chasses pour composition en capitales lookups0" dx=40 dy=0 dh=80 dv=0
EndChar

StartChar: S
Encoding: 83 83 34
Width: 926
GlyphClass: 2
Flags: MW
LayerCount: 2
Fore
SplineSet
873 1109 m 2,0,1
 854 1082 854 1082 834 1082 c 128,-1,2
 814 1082 814 1082 796 1098 c 0,3,4
 702 1182 702 1182 611 1182 c 0,5,6
 609 1182 609 1182 607 1182 c 0,7,8
 462 1182 462 1182 396 1118 c 0,9,10
 328 1053 328 1053 328 954 c 256,11,12
 328 837 328 837 496 760 c 0,13,14
 544 738 544 738 594 716 c 0,15,16
 725 659 725 659 776 615 c 0,17,18
 859 543 859 543 859 446 c 0,19,20
 859 248 859 248 728.5 117 c 128,-1,21
 598 -14 598 -14 385 -14 c 0,22,23
 264 -14 264 -14 168.5 32.5 c 128,-1,24
 73 79 73 79 11 158 c 1,25,-1
 73 241 l 2,26,27
 90 264 90 264 116 264 c 256,28,29
 134 264 134 264 160 240 c 0,30,31
 220 184 220 184 272 158 c 128,-1,32
 324 132 324 132 398 131 c 0,33,34
 405 131 l 0,35,36
 539 131 539 131 614 204 c 0,37,38
 689 278 689 278 689 397 c 0,39,40
 689 487 689 487 606 540 c 0,41,42
 567 564 567 564 471 600 c 0,43,44
 374 636 374 636 328 658 c 0,45,46
 162 737 162 737 162 912 c 0,47,48
 162 1086 162 1086 282 1206 c 128,-1,49
 402 1326 402 1326 604 1326 c 0,50,51
 605 1326 605 1326 606 1327 c 0,52,53
 808 1327 808 1327 925 1183 c 1,54,-1
 873 1109 l 2,0,1
EndSplineSet
Substitution2: "sous-table 'sups' Exposant lookups25" S.superior
Position2: "sous-table 'cpsp' Chasses pour composition en capitales lookups0" dx=40 dy=0 dh=80 dv=0
EndChar

StartChar: Scedilla
Encoding: 350 350 35
Width: 926
GlyphClass: 2
Flags: MW
LayerCount: 2
Fore
SplineSet
434 -66 m 1,0,1
 569 -99 569 -99 569 -188 c 0,2,3
 568 -254 568 -254 509 -295 c 128,-1,4
 450 -336 450 -336 368 -336 c 128,-1,5
 286 -336 286 -336 228 -305 c 1,6,-1
 251 -253 l 2,7,8
 259 -237 259 -237 269.5 -237 c 128,-1,9
 280 -237 280 -237 286.5 -240.5 c 128,-1,10
 293 -244 293 -244 309 -252 c 128,-1,11
 325 -260 325 -260 359 -260 c 128,-1,12
 393 -260 393 -260 414 -241 c 128,-1,13
 435 -222 435 -222 435 -191.5 c 128,-1,14
 435 -161 435 -161 401 -147 c 128,-1,15
 367 -133 367 -133 303 -124 c 1,16,-1
 347 -13 l 1,17,18
 132 3 132 3 11 158 c 1,19,-1
 73 241 l 2,20,21
 90 264 90 264 116 264 c 256,22,23
 133 264 133 264 160 240 c 0,24,25
 220 184 220 184 272 158 c 128,-1,26
 324 132 324 132 398 131 c 0,27,28
 401 131 401 131 405 131 c 0,29,30
 539 131 539 131 614 204 c 0,31,32
 689 278 689 278 689 397 c 0,33,34
 689 487 689 487 606 540 c 0,35,36
 567 564 567 564 471 600 c 0,37,38
 374 636 374 636 328 658 c 0,39,40
 162 737 162 737 162 912 c 0,41,42
 162 1086 162 1086 282 1206 c 128,-1,43
 402 1326 402 1326 604 1326 c 0,44,45
 605 1326 605 1326 606 1327 c 0,46,47
 808 1327 808 1327 925 1183 c 1,48,-1
 873 1109 l 2,49,50
 854 1082 854 1082 834 1082 c 128,-1,51
 814 1082 814 1082 796 1098 c 0,52,53
 702 1182 702 1182 611 1182 c 0,54,55
 609 1182 609 1182 607 1182 c 0,56,57
 462 1182 462 1182 396 1118 c 0,58,59
 328 1053 328 1053 328 954 c 256,60,61
 328 837 328 837 496 760 c 0,62,63
 544 738 544 738 594 716 c 0,64,65
 725 659 725 659 776 615 c 0,66,67
 859 543 859 543 859 450 c 0,68,69
 859 267 859 267 749 139.5 c 128,-1,70
 639 12 639 12 456 -9 c 1,71,-1
 434 -66 l 1,0,1
EndSplineSet
Substitution2: "sous-table 'salt' Alternatives stylistiques dans Latin lookup 8" uni0218
Position2: "sous-table 'cpsp' Chasses pour composition en capitales lookups0" dx=40 dy=0 dh=80 dv=0
EndChar

StartChar: T
Encoding: 84 84 36
Width: 998
GlyphClass: 2
Flags: MW
LayerCount: 2
Fore
SplineSet
1080 1314 m 1,0,-1
 1062 1167 l 1,1,-1
 675 1167 l 1,2,-1
 532 0 l 1,3,-1
 357 0 l 1,4,-1
 499 1167 l 1,5,-1
 112 1167 l 1,6,-1
 129 1314 l 1,7,-1
 1080 1314 l 1,0,-1
EndSplineSet
Substitution2: "sous-table 'sups' Exposant lookups25" T.superior
Position2: "sous-table 'cpsp' Chasses pour composition en capitales lookups0" dx=40 dy=0 dh=80 dv=0
EndChar

StartChar: Tbar
Encoding: 358 358 37
Width: 998
GlyphClass: 2
Flags: MW
LayerCount: 2
Fore
SplineSet
1062 1167 m 1,0,-1
 675 1167 l 1,1,-1
 627 781 l 1,2,-1
 901 781 l 1,3,-1
 890 678 l 1,4,-1
 615 678 l 1,5,-1
 532 0 l 1,6,-1
 357 0 l 1,7,-1
 439 678 l 1,8,-1
 166 678 l 1,9,-1
 178 781 l 1,10,-1
 452 781 l 1,11,-1
 499 1167 l 1,12,-1
 112 1167 l 1,13,-1
 129 1314 l 1,14,-1
 1080 1314 l 1,15,-1
 1062 1167 l 1,0,-1
EndSplineSet
Position2: "sous-table 'cpsp' Chasses pour composition en capitales lookups0" dx=40 dy=0 dh=80 dv=0
EndChar

StartChar: U
Encoding: 85 85 38
Width: 1314
GlyphClass: 2
Flags: MW
LayerCount: 2
Fore
SplineSet
615 138 m 256,0,1
 772 138 772 138 876.5 242.5 c 128,-1,2
 981 347 981 347 1001 514 c 2,3,-1
 1100 1314 l 1,4,-1
 1277 1314 l 1,5,-1
 1178 514 l 2,6,7
 1150 283 1150 283 991.5 134 c 128,-1,8
 833 -15 833 -15 598 -15 c 128,-1,9
 363 -15 363 -15 240 136 c 0,10,11
 143 255 143 255 143 433 c 0,12,13
 143 472 143 472 148 514 c 2,14,-1
 245 1314 l 1,15,-1
 421 1314 l 1,16,-1
 324 515 l 1,17,18
 319 477 319 477 319 442 c 0,19,20
 319 326 319 326 379 244 c 0,21,22
 457 138 457 138 615 138 c 256,0,1
EndSplineSet
Substitution2: "sous-table 'sups' Exposant lookups25" U.superior
Position2: "sous-table 'cpsp' Chasses pour composition en capitales lookups0" dx=40 dy=0 dh=80 dv=0
EndChar

StartChar: Uogonek
Encoding: 370 370 39
Width: 1314
GlyphClass: 2
Flags: MW
LayerCount: 2
Fore
SplineSet
451 -204 m 0,0,1
 451 -99 451 -99 572 -14 c 1,2,3
 350 -6 350 -6 234 144 c 0,4,5
 143 262 143 262 143 432 c 0,6,7
 143 472 143 472 148 514 c 2,8,-1
 245 1314 l 1,9,-1
 421 1314 l 1,10,-1
 324 515 l 1,11,12
 319 479 319 479 319 445 c 0,13,14
 320 327 320 327 380 244 c 0,15,16
 458 138 458 138 615 138 c 256,17,18
 772 138 772 138 876.5 242.5 c 128,-1,19
 981 347 981 347 1001 514 c 2,20,-1
 1100 1314 l 1,21,-1
 1277 1314 l 1,22,-1
 1178 514 l 2,23,24
 1152 306 1152 306 1018.5 162.5 c 128,-1,25
 885 19 885 19 684 -9 c 1,26,27
 583 -76 583 -76 583 -157 c 0,28,29
 583 -188 583 -188 601.5 -206.5 c 128,-1,30
 620 -225 620 -225 645.5 -225 c 128,-1,31
 671 -225 671 -225 685 -221.5 c 128,-1,32
 699 -218 699 -218 708 -213.5 c 128,-1,33
 717 -209 717 -209 722.5 -205.5 c 128,-1,34
 728 -202 728 -202 732 -202 c 0,35,36
 746 -202 746 -202 749 -214 c 2,37,-1
 767 -277 l 1,38,39
 699 -327 699 -327 615 -327 c 128,-1,40
 531 -327 531 -327 491 -293.5 c 128,-1,41
 451 -260 451 -260 451 -204 c 0,0,1
EndSplineSet
Position2: "sous-table 'cpsp' Chasses pour composition en capitales lookups0" dx=40 dy=0 dh=80 dv=0
EndChar

StartChar: V
Encoding: 86 86 40
Width: 1162
GlyphClass: 2
Flags: MW
LayerCount: 2
Fore
SplineSet
113 1314 m 1,0,-1
 254 1314 l 2,1,2
 299 1314 299 1314 309 1273 c 2,3,-1
 528 341 l 2,4,5
 543 276 543 276 553 201 c 1,6,7
 577 277 577 277 608 341 c 2,8,-1
 1054 1272 l 2,9,10
 1075 1314 1075 1314 1119 1314 c 2,11,-1
 1261 1314 l 1,12,-1
 606 0 l 1,13,-1
 447 0 l 1,14,-1
 113 1314 l 1,0,-1
EndSplineSet
Substitution2: "sous-table 'sups' Exposant lookups25" V.superior
Position2: "sous-table 'cpsp' Chasses pour composition en capitales lookups0" dx=40 dy=0 dh=80 dv=0
EndChar

StartChar: W
Encoding: 87 87 41
Width: 1823
GlyphClass: 2
Flags: MW
LayerCount: 2
Fore
SplineSet
115 1314 m 1,0,-1
 254 1314 l 2,1,2
 303 1314 303 1314 308 1273 c 1,3,-1
 462 349 l 2,4,5
 467 316 467 316 475 236 c 1,6,7
 493 300 493 300 515 350 c 2,8,-1
 929 1272 l 2,9,10
 947 1314 947 1314 992 1314 c 2,11,-1
 1035 1314 l 2,12,13
 1081 1314 1081 1314 1088 1273 c 1,14,-1
 1272 349 l 2,15,16
 1278 323 1278 323 1286 242 c 1,17,18
 1299 289 1299 289 1322 348 c 1,19,-1
 1707 1272 l 2,20,21
 1713 1288 1713 1288 1732 1301 c 128,-1,22
 1751 1314 1751 1314 1774 1314 c 2,23,-1
 1913 1314 l 1,24,-1
 1352 0 l 1,25,-1
 1193 0 l 1,26,-1
 996 1006 l 2,27,28
 990 1033 990 1033 986 1075 c 1,29,30
 972 1034 972 1034 960 1006 c 2,31,-1
 511 0 l 1,32,-1
 355 0 l 1,33,-1
 115 1314 l 1,0,-1
EndSplineSet
Substitution2: "sous-table 'sups' Exposant lookups25" W.superior
Position2: "sous-table 'cpsp' Chasses pour composition en capitales lookups0" dx=40 dy=0 dh=80 dv=0
EndChar

StartChar: X
Encoding: 88 88 42
Width: 1063
GlyphClass: 2
Flags: MW
LayerCount: 2
Fore
SplineSet
442 702 m 1,0,-1
 150 1314 l 1,1,-1
 309 1314 l 2,2,3
 342 1314 342 1314 351 1288 c 1,4,-1
 571 799 l 1,5,6
 578 813 578 813 590 829 c 2,7,-1
 904 1287 l 2,8,9
 922 1314 922 1314 947 1314 c 2,10,-1
 1130 1314 l 1,11,-1
 685 708 l 1,12,-1
 1014 0 l 1,13,-1
 856 0 l 2,14,15
 826 0 826 0 812 33 c 2,16,-1
 561 600 l 1,17,18
 555 589 555 589 547 577 c 2,19,-1
 172 33 l 2,20,21
 149 0 149 0 114 0 c 2,22,-1
 -62 0 l 1,23,-1
 442 702 l 1,0,-1
EndSplineSet
Substitution2: "sous-table 'sups' Exposant lookups25" X.superior
Position2: "sous-table 'cpsp' Chasses pour composition en capitales lookups0" dx=40 dy=0 dh=80 dv=0
EndChar

StartChar: Y
Encoding: 89 89 43
Width: 998
GlyphClass: 2
Flags: MW
LayerCount: 2
Fore
SplineSet
601 526 m 1,0,-1
 536 0 l 1,1,-1
 359 0 l 1,2,-1
 424 525 l 1,3,-1
 112 1314 l 1,4,-1
 268 1314 l 2,5,6
 307 1314 307 1314 324 1273 c 1,7,-1
 505 749 l 1,8,9
 524 700 524 700 533 652 c 1,10,11
 556 696 556 696 590 748 c 1,12,-1
 898 1273 l 1,13,14
 925 1314 925 1314 961 1314 c 2,15,-1
 1107 1314 l 1,16,-1
 601 526 l 1,0,-1
EndSplineSet
Substitution2: "sous-table 'sups' Exposant lookups25" Y.superior
Position2: "sous-table 'cpsp' Chasses pour composition en capitales lookups0" dx=40 dy=0 dh=80 dv=0
EndChar

StartChar: Z
Encoding: 90 90 44
Width: 959
GlyphClass: 2
Flags: MW
LayerCount: 2
Fore
SplineSet
1019 1314 m 1,0,-1
 1010 1258 l 2,1,2
 1007 1238 1007 1238 989 1213 c 2,3,-1
 254 142 l 1,4,-1
 865 142 l 1,5,-1
 845 0 l 1,6,-1
 7 0 l 1,7,-1
 15 55 l 2,8,9
 18 74 18 74 36 99 c 2,10,-1
 771 1172 l 1,11,-1
 182 1172 l 1,12,-1
 202 1314 l 1,13,-1
 1019 1314 l 1,0,-1
EndSplineSet
Substitution2: "sous-table 'sups' Exposant lookups25" Z.superior
Position2: "sous-table 'cpsp' Chasses pour composition en capitales lookups0" dx=40 dy=0 dh=80 dv=0
EndChar

StartChar: a
Encoding: 97 97 45
Width: 1053
GlyphClass: 2
Flags: MW
LayerCount: 2
Fore
SplineSet
717 268 m 1,0,1
 550 -14 550 -14 328 -14 c 0,2,3
 198 -14 198 -14 123 77 c 128,-1,4
 48 168 48 168 48 338 c 128,-1,5
 48 508 48 508 138 660 c 0,6,7
 275 892 275 892 532 966 c 0,8,9
 617 990 617 990 738 990 c 0,10,11
 739 990 739 990 741 991 c 0,12,13
 860 991 860 991 963 946 c 1,14,-1
 848 0 l 1,15,-1
 756 0 l 2,16,17
 699 0 699 0 699 51 c 0,18,19
 699 55 699 55 699 60 c 2,20,-1
 717 268 l 1,0,1
780 856 m 1,21,22
 743 864 743 864 667 864 c 128,-1,23
 591 864 591 864 507 823 c 128,-1,24
 423 782 423 782 360 714 c 0,25,26
 224 566 224 566 224 367 c 0,27,28
 224 132 224 132 393 132 c 0,29,30
 546 132 546 132 672 369 c 0,31,32
 710 441 710 441 740 527 c 1,33,-1
 780 856 l 1,21,22
EndSplineSet
Substitution2: "sous-table 'ordn' Ordinaux dans Latin lookup 39" a.superior
Substitution2: "sous-table 'sups' Exposant lookups25" a.superior
EndChar

StartChar: aogonek
Encoding: 261 261 46
Width: 1053
GlyphClass: 2
Flags: MW
LayerCount: 2
Fore
SplineSet
717 268 m 1,0,1
 550 -14 550 -14 328 -14 c 0,2,3
 198 -14 198 -14 123 77 c 128,-1,4
 48 168 48 168 48 338 c 128,-1,5
 48 508 48 508 138 660 c 0,6,7
 276 894 276 894 532 966 c 0,8,9
 617 990 617 990 738 990 c 0,10,11
 739 990 739 990 741 991 c 0,12,13
 860 991 860 991 963 946 c 1,14,-1
 848 0 l 1,15,-1
 837 0 l 1,16,17
 759 -43 759 -43 726 -109 c 0,18,19
 712 -136 712 -136 712 -159 c 0,20,21
 712 -188 712 -188 734 -210 c 0,22,23
 752 -228 752 -228 777.5 -228 c 128,-1,24
 803 -228 803 -228 817 -224.5 c 128,-1,25
 831 -221 831 -221 840 -216.5 c 128,-1,26
 849 -212 849 -212 854.5 -208.5 c 128,-1,27
 860 -205 860 -205 864 -205 c 0,28,29
 878 -205 878 -205 881 -217 c 2,30,-1
 899 -280 l 1,31,32
 831 -330 831 -330 747 -330 c 128,-1,33
 663 -330 663 -330 623 -296.5 c 128,-1,34
 583 -263 583 -263 583 -207 c 0,35,36
 583 -90 583 -90 734 2 c 1,37,38
 698 12 698 12 698 50 c 0,39,40
 698 55 698 55 699 60 c 2,41,-1
 717 268 l 1,0,1
780 856 m 1,42,43
 743 864 743 864 667 864 c 128,-1,44
 591 864 591 864 507 823 c 128,-1,45
 423 782 423 782 360 714 c 0,46,47
 224 566 224 566 224 367 c 0,48,49
 224 132 224 132 393 132 c 0,50,51
 546 132 546 132 672 369 c 0,52,53
 710 441 710 441 740 527 c 1,54,-1
 780 856 l 1,42,43
EndSplineSet
EndChar

StartChar: ae
Encoding: 230 230 47
Width: 1545
GlyphClass: 2
Flags: MW
LayerCount: 2
Fore
SplineSet
814 814 m 1,0,1
 948 992 948 992 1181 992 c 0,2,3
 1308 992 1308 992 1393.5 923.5 c 128,-1,4
 1479 855 1479 855 1479 753 c 0,5,6
 1479 557 1479 557 1148 488 c 0,7,8
 1024 462 1024 462 833 459 c 1,9,-1
 833 431 l 2,10,11
 833 277 833 277 901.5 200.5 c 128,-1,12
 970 124 970 124 1094 124 c 128,-1,13
 1218 124 1218 124 1312 188 c 1,14,-1
 1357 218 l 1,15,16
 1404 251 1404 251 1424.5 251 c 128,-1,17
 1445 251 1445 251 1459 234 c 2,18,-1
 1504 181 l 1,19,20
 1346 30 1346 30 1182 -2 c 0,21,22
 1124 -14 1124 -14 1034 -14 c 128,-1,23
 944 -14 944 -14 857 43 c 128,-1,24
 770 100 770 100 728 213 c 1,25,26
 668 100 668 100 557 43 c 128,-1,27
 446 -14 446 -14 318 -14 c 0,28,29
 317 -14 317 -14 316 -15 c 0,30,31
 190 -14 190 -14 112 44 c 128,-1,32
 34 102 34 102 34 219 c 0,33,34
 34 452 34 452 382 534 c 0,35,36
 506 564 506 564 688 568 c 1,37,-1
 695 625 l 2,38,39
 699 655 699 655 699 681 c 0,40,41
 699 857 699 857 527 857 c 0,42,43
 525 857 525 857 523 857 c 0,44,45
 424 857 424 857 334 806 c 0,46,47
 300 786 300 786 275 770 c 128,-1,48
 250 754 250 754 221.5 754 c 128,-1,49
 193 754 193 754 180 786 c 1,50,-1
 155 839 l 1,51,52
 336 994 336 994 550.5 994 c 128,-1,53
 765 994 765 994 814 814 c 1,0,1
675 461 m 1,54,55
 198 446 198 446 198 240 c 0,56,57
 198 170 198 170 242 136.5 c 128,-1,58
 286 103 286 103 351 103 c 0,59,60
 481 103 481 103 565 177 c 128,-1,61
 649 251 649 251 666 388 c 2,62,-1
 675 461 l 1,54,55
1282 834 m 0,63,64
 1240 867 1240 867 1168 867 c 0,65,66
 1034 867 1034 867 951 784.5 c 128,-1,67
 868 702 868 702 844 561 c 1,68,69
 1230 580 1230 580 1303 682 c 0,70,71
 1325 712 1325 712 1325 756.5 c 128,-1,72
 1325 801 1325 801 1282 834 c 0,63,64
EndSplineSet
EndChar

StartChar: b
Encoding: 98 98 48
Width: 1053
GlyphClass: 2
Flags: MW
LayerCount: 2
Fore
SplineSet
505 -14 m 0,0,1
 339 -14 339 -14 249 114 c 1,2,-1
 234 51 l 1,3,4
 229 25 229 25 216.5 12.5 c 128,-1,5
 204 0 204 0 174 0 c 2,6,-1
 81 0 l 1,7,-1
 253 1422 l 1,8,-1
 425 1422 l 1,9,-1
 340 729 l 1,10,11
 507 992 507 992 721 992 c 0,12,13
 850 992 850 992 923 900 c 128,-1,14
 996 808 996 808 996 633 c 0,15,16
 996 387 996 387 856 190 c 0,17,18
 766 64 766 64 639 12 c 0,19,20
 575 -14 575 -14 505 -14 c 0,0,1
277 216 m 1,21,22
 346 122 346 122 488 122 c 0,23,24
 630 122 630 122 726 278 c 0,25,26
 822 434 822 434 822 617 c 0,27,28
 822 732 822 732 779 792 c 128,-1,29
 736 852 736 852 647 852 c 0,30,31
 558 852 558 852 462 744 c 0,32,33
 366 636 366 636 308 465 c 1,34,-1
 277 216 l 1,21,22
EndSplineSet
Substitution2: "sous-table 'ordn' Ordinaux dans Latin lookup 39" b.superior
Substitution2: "sous-table 'sups' Exposant lookups25" b.superior
EndChar

StartChar: c
Encoding: 99 99 49
Width: 852
GlyphClass: 2
Flags: MW
LayerCount: 2
Fore
SplineSet
806 176 m 1,0,1
 664 21 664 21 520 -5 c 0,2,3
 470 -14 470 -14 398.5 -14 c 128,-1,4
 327 -14 327 -14 261 15.5 c 128,-1,5
 195 45 195 45 150 98 c 0,6,7
 58 206 58 206 58 388 c 0,8,9
 58 631 58 631 203 811.5 c 128,-1,10
 348 992 348 992 567 992 c 0,11,12
 746 992 746 992 850 857 c 1,13,-1
 795 791 l 2,14,15
 781 773 781 773 764 773 c 0,16,17
 748 773 748 773 734 785 c 0,18,19
 660 851 660 851 577 851 c 0,20,21
 427 851 427 851 330.5 717 c 128,-1,22
 234 583 234 583 234 390.5 c 128,-1,23
 234 198 234 198 356 142 c 0,24,25
 396 124 396 124 456 124 c 128,-1,26
 516 124 516 124 560.5 143 c 128,-1,27
 605 162 605 162 635.5 185 c 128,-1,28
 666 208 666 208 687.5 227 c 128,-1,29
 709 246 709 246 728.5 246 c 128,-1,30
 748 246 748 246 762 229 c 2,31,-1
 806 176 l 1,0,1
EndSplineSet
Substitution2: "sous-table 'ordn' Ordinaux dans Latin lookup 39" c.superior
Substitution2: "sous-table 'sups' Exposant lookups25" c.superior
EndChar

StartChar: ccedilla
Encoding: 231 231 50
Width: 852
GlyphClass: 2
Flags: MW
LayerCount: 2
Fore
SplineSet
421 -69 m 1,0,1
 556 -102 556 -102 556 -191 c 0,2,3
 556 -258 556 -258 497 -299 c 0,4,5
 439 -340 439 -340 357 -340 c 0,6,7
 356 -340 l 0,8,9
 274 -340 274 -340 215 -308 c 1,10,-1
 238 -256 l 2,11,12
 246 -240 246 -240 257 -240 c 128,-1,13
 268 -240 268 -240 274 -244 c 128,-1,14
 280 -248 280 -248 296 -256 c 4,15,16
 311 -264 311 -264 342 -264 c 4,17,18
 344 -264 344 -264 346 -264 c 4,19,20
 380 -264 380 -264 401 -244 c 0,21,22
 422 -225 422 -225 422 -194.5 c 128,-1,23
 422 -164 422 -164 388 -150 c 128,-1,24
 354 -136 354 -136 290 -127 c 1,25,-1
 338 -7 l 1,26,27
 204 18 204 18 131 123 c 128,-1,28
 58 228 58 228 58 367 c 0,29,30
 58 633 58 633 203 812.5 c 128,-1,31
 348 992 348 992 567 992 c 0,32,33
 746 992 746 992 850 857 c 1,34,-1
 795 791 l 2,35,36
 781 773 781 773 764 773 c 0,37,38
 748 773 748 773 734 785 c 0,39,40
 660 851 660 851 577 851 c 0,41,42
 427 851 427 851 330.5 717 c 128,-1,43
 234 583 234 583 234 390.5 c 128,-1,44
 234 198 234 198 356 142 c 0,45,46
 396 124 396 124 456 124 c 128,-1,47
 516 124 516 124 560.5 143 c 128,-1,48
 605 162 605 162 635.5 185 c 128,-1,49
 666 208 666 208 687.5 227 c 128,-1,50
 709 246 709 246 728.5 246 c 128,-1,51
 748 246 748 246 762 229 c 2,52,-1
 806 176 l 1,53,54
 712 74 712 74 630 32.5 c 128,-1,55
 548 -9 548 -9 443 -13 c 1,56,-1
 421 -69 l 1,0,1
EndSplineSet
EndChar

StartChar: c_h.dlig
Encoding: 1114114 -1 51
Width: 1862
GlyphClass: 3
Flags: MW
LayerCount: 2
Fore
SplineSet
1058 1396 m 1,0,1
 1008 1420 1008 1420 950 1420 c 0,2,3
 837 1420 837 1420 773.5 1346.5 c 128,-1,4
 710 1273 710 1273 710 1182 c 0,5,6
 710 1007 710 1007 829 897 c 1,7,-1
 810 883 l 1,8,-1
 831 857 l 1,9,-1
 776 791 l 2,10,11
 762 773 762 773 745 773 c 128,-1,12
 728 773 728 773 714 785 c 0,13,14
 640 851 640 851 558 851 c 0,15,16
 408 851 408 851 312 717 c 0,17,18
 216 584 216 584 215 392 c 0,19,20
 215 198 215 198 338 142 c 0,21,22
 378 124 378 124 437.5 124 c 128,-1,23
 497 124 497 124 541.5 143 c 128,-1,24
 586 162 586 162 616.5 185 c 128,-1,25
 647 208 647 208 668.5 227 c 128,-1,26
 690 246 690 246 709.5 246 c 128,-1,27
 729 246 729 246 743 229 c 2,28,-1
 787 176 l 1,29,30
 646 21 646 21 502 -5 c 0,31,32
 452 -14 452 -14 380 -14 c 0,33,34
 226 -14 226 -14 132.5 96 c 128,-1,35
 39 206 39 206 39 388 c 0,36,37
 40 631 40 631 185 811.5 c 128,-1,38
 330 992 330 992 548 992 c 0,39,40
 612 992 612 992 666 975 c 1,41,42
 626 1060 626 1060 626 1144 c 0,43,44
 626 1304 626 1304 729 1406 c 0,45,46
 832 1509 832 1509 997 1509 c 0,47,48
 1000 1509 1000 1509 1003 1509 c 0,49,50
 1114 1508 1114 1508 1245 1434 c 0,51,52
 1268 1421 1268 1421 1291 1421 c 0,53,54
 1293 1421 1293 1421 1294 1421 c 1,55,-1
 1232 1388 l 1,56,-1
 1156 759 l 1,57,58
 1234 874 1234 874 1330 933 c 128,-1,59
 1426 992 1426 992 1508 992 c 0,60,61
 1657 992 1657 992 1719 895 c 0,62,63
 1765 823 1765 823 1765 706 c 0,64,65
 1765 667 1765 667 1760 623 c 2,66,-1
 1687 0 l 1,67,-1
 1512 0 l 1,68,-1
 1585 623 l 2,69,70
 1590 660 1590 660 1590 692 c 0,71,72
 1590 756 1590 756 1570 793 c 0,73,74
 1541 848 1541 848 1455.5 848 c 128,-1,75
 1370 848 1370 848 1276 756 c 128,-1,76
 1182 664 1182 664 1127 517 c 1,77,-1
 1065 0 l 1,78,-1
 890 0 l 1,79,-1
 1058 1396 l 1,0,1
EndSplineSet
LCarets2: 1 0
Ligature2: "sous-table 'dlig' Ligatures facultatives  dans Latin lookup 36" c h
EndChar

StartChar: c_k.dlig
Encoding: 1114115 -1 52
Width: 1740
GlyphClass: 3
Flags: MW
LayerCount: 2
Fore
SplineSet
1062 1386 m 1,0,1
 1018 1420 1018 1420 954 1420 c 0,2,3
 840 1420 840 1420 777 1345.5 c 128,-1,4
 714 1271 714 1271 713 1181 c 0,5,6
 713 1008 713 1008 826 897 c 1,7,-1
 813 887 l 1,8,-1
 838 857 l 1,9,-1
 783 791 l 2,10,11
 769 773 769 773 752 773 c 0,12,13
 736 773 736 773 722 785 c 0,14,15
 648 851 648 851 565 851 c 0,16,17
 415 851 415 851 318.5 717 c 128,-1,18
 222 583 222 583 222 390.5 c 128,-1,19
 222 198 222 198 344 142 c 0,20,21
 384 124 384 124 444 124 c 128,-1,22
 504 124 504 124 548.5 143 c 128,-1,23
 593 162 593 162 623.5 185 c 128,-1,24
 654 208 654 208 675.5 227 c 128,-1,25
 697 246 697 246 716.5 246 c 128,-1,26
 736 246 736 246 750 229 c 2,27,-1
 794 176 l 1,28,29
 652 21 652 21 508 -5 c 0,30,31
 458 -14 458 -14 386.5 -14 c 128,-1,32
 315 -14 315 -14 249 15.5 c 128,-1,33
 183 45 183 45 138 98 c 0,34,35
 46 206 46 206 46 388 c 0,36,37
 46 631 46 631 191 811.5 c 128,-1,38
 336 992 336 992 555 992 c 0,39,40
 617 992 617 992 667 977 c 1,41,42
 630 1062 630 1062 630 1144 c 0,43,44
 630 1306 630 1306 731.5 1407.5 c 128,-1,45
 833 1509 833 1509 998 1509 c 0,46,47
 1089 1508 1089 1508 1175 1464 c 0,48,49
 1207 1448 1207 1448 1232 1434.5 c 128,-1,50
 1257 1421 1257 1421 1280 1421 c 1,51,-1
 1237 1398 l 1,52,-1
 1137 586 l 1,53,-1
 1167 586 l 2,54,55
 1202 586 1202 586 1227 613 c 2,56,-1
 1548 944 l 2,57,58
 1580 978 1580 978 1616 978 c 2,59,-1
 1771 978 l 1,60,-1
 1397 594 l 2,61,62
 1365 560 1365 560 1336 543 c 1,63,64
 1361 526 1361 526 1387 483 c 2,65,-1
 1675 0 l 1,66,-1
 1525 0 l 2,67,68
 1485 0 1485 0 1465 33 c 2,69,-1
 1220 434 l 2,70,71
 1208 454 1208 454 1195.5 460.5 c 128,-1,72
 1183 467 1183 467 1156 467 c 2,73,-1
 1123 467 l 1,74,-1
 1066 0 l 1,75,-1
 893 0 l 1,76,-1
 1062 1386 l 1,0,1
EndSplineSet
LCarets2: 1 0
Ligature2: "sous-table 'dlig' Ligatures facultatives  dans Latin lookup 36" c k
EndChar

StartChar: c_t.dlig
Encoding: 1114116 -1 53
Width: 1521
GlyphClass: 3
Flags: MW
LayerCount: 2
Fore
SplineSet
1473 73 m 1,0,1
 1372 -15 1372 -15 1251 -15 c 0,2,3
 1037 -15 1037 -15 1037 180 c 0,4,5
 1037 205 1037 205 1041 234 c 2,6,-1
 1113 820 l 1,7,-1
 1005 820 l 2,8,9
 975 820 975 820 975 850 c 0,10,11
 975 853 975 853 975 857 c 2,12,-1
 983 924 l 1,13,-1
 1133 943 l 1,14,-1
 1197 1161 l 1,15,16
 1216 1224 1216 1224 1216 1273 c 0,17,18
 1216 1327 1216 1327 1193 1364 c 0,19,20
 1150 1435 1150 1435 1032 1435 c 0,21,22
 914 1434 914 1434 820 1358 c 128,-1,23
 726 1282 726 1282 700 1169 c 0,24,25
 693 1136 693 1136 692 1105 c 0,26,27
 692 1027 692 1027 737 957 c 1,28,29
 805 923 805 923 856 857 c 1,30,-1
 801 791 l 2,31,32
 787 773 787 773 770 773 c 0,33,34
 754 773 754 773 740 785 c 0,35,36
 666 851 666 851 583 851 c 0,37,38
 433 851 433 851 336.5 717 c 128,-1,39
 240 583 240 583 240 390.5 c 128,-1,40
 240 198 240 198 362 142 c 0,41,42
 402 124 402 124 462 124 c 128,-1,43
 522 124 522 124 566.5 143 c 128,-1,44
 611 162 611 162 641.5 185 c 128,-1,45
 672 208 672 208 693.5 227 c 128,-1,46
 715 246 715 246 734.5 246 c 128,-1,47
 754 246 754 246 768 229 c 2,48,-1
 812 176 l 1,49,50
 670 21 670 21 526 -5 c 0,51,52
 476 -14 476 -14 404.5 -14 c 128,-1,53
 333 -14 333 -14 267 15.5 c 128,-1,54
 201 45 201 45 156 98 c 0,55,56
 64 206 64 206 64 388 c 0,57,58
 64 631 64 631 209 811.5 c 128,-1,59
 354 992 354 992 573 992 c 0,60,61
 600 992 600 992 626 989 c 1,62,63
 608 1040 608 1040 608 1093 c 0,64,65
 608 1156 608 1156 632 1222 c 0,66,67
 676 1346 676 1346 787 1427 c 128,-1,68
 898 1508 898 1508 1051 1508 c 128,-1,69
 1204 1508 1204 1508 1274 1418 c 0,70,71
 1332 1344 1332 1344 1332 1241 c 0,72,73
 1332 1219 1332 1219 1329 1196 c 1,74,-1
 1297 943 l 1,75,-1
 1556 943 l 1,76,-1
 1541 820 l 1,77,-1
 1282 820 l 1,78,-1
 1212 245 l 2,79,80
 1210 230 1210 230 1210 216 c 0,81,82
 1210 176 1210 176 1228 153 c 0,83,84
 1252 122 1252 122 1285.5 122 c 128,-1,85
 1319 122 1319 122 1337.5 129.5 c 128,-1,86
 1356 137 1356 137 1370 146.5 c 128,-1,87
 1384 156 1384 156 1394 163.5 c 128,-1,88
 1404 171 1404 171 1415 171 c 128,-1,89
 1426 171 1426 171 1434 154 c 2,90,-1
 1473 73 l 1,0,1
EndSplineSet
LCarets2: 1 0
Ligature2: "sous-table 'dlig' Ligatures facultatives  dans Latin lookup 36" c t
EndChar

StartChar: ccedilla_t.dlig
Encoding: 1114117 -1 54
Width: 1521
GlyphClass: 3
Flags: MW
LayerCount: 2
Fore
SplineSet
667 981 m 1,0,1
 635 1052 635 1052 635 1130 c 0,2,3
 635 1288 635 1288 740.5 1398 c 128,-1,4
 846 1508 846 1508 1014 1508 c 0,5,6
 1184 1508 1184 1508 1254 1418 c 0,7,8
 1312 1343 1312 1343 1312 1241 c 0,9,10
 1312 1219 1312 1219 1309 1196 c 1,11,-1
 1279 958 l 1,12,-1
 1542 958 l 1,13,-1
 1527 835 l 1,14,-1
 1264 835 l 1,15,-1
 1192 245 l 2,16,17
 1190 229 1190 229 1190 216 c 0,18,19
 1190 176 1190 176 1208 153 c 0,20,21
 1232 123 1232 123 1265.5 123 c 128,-1,22
 1299 123 1299 123 1318 130.5 c 128,-1,23
 1337 138 1337 138 1351 146 c 128,-1,24
 1365 154 1365 154 1375 162 c 128,-1,25
 1385 170 1385 170 1396 170 c 3,26,27
 1406 170 1406 170 1414 154 c 2,28,-1
 1456 73 l 1,29,30
 1355 -15 1355 -15 1232 -15 c 0,31,32
 1017 -15 1017 -15 1017 183 c 0,33,34
 1017 207 1017 207 1020 234 c 1,35,-1
 1094 835 l 1,36,-1
 986 835 l 2,37,38
 955 835 955 835 955 867 c 0,39,40
 955 870 955 870 955 873 c 2,41,-1
 963 940 l 1,42,-1
 1121 960 l 1,43,44
 1182 1120 1182 1120 1192 1193 c 0,45,46
 1196 1221 1196 1221 1196 1247 c 0,47,48
 1196 1252 1196 1252 1196 1257 c 0,49,50
 1196 1334 1196 1334 1165 1377 c 0,51,52
 1122 1436 1122 1436 1034 1436 c 0,53,54
 881 1436 881 1436 799.5 1350.5 c 128,-1,55
 718 1265 718 1265 718 1147 c 0,56,57
 718 1084 718 1084 746.5 1016 c 128,-1,58
 775 948 775 948 831 897 c 1,59,-1
 823 891 l 1,60,-1
 852 857 l 1,61,-1
 797 791 l 2,62,63
 782 773 782 773 766 773 c 128,-1,64
 750 773 750 773 736 785 c 0,65,66
 662 851 662 851 579 851 c 0,67,68
 429 851 429 851 332.5 717 c 128,-1,69
 236 583 236 583 236 390.5 c 128,-1,70
 236 198 236 198 358 142 c 0,71,72
 398 124 398 124 458 124 c 128,-1,73
 518 124 518 124 562.5 143 c 128,-1,74
 607 162 607 162 637.5 185 c 128,-1,75
 668 208 668 208 689.5 227 c 128,-1,76
 711 246 711 246 730 246 c 3,77,78
 750 246 750 246 764 229 c 2,79,-1
 808 176 l 1,80,81
 726 86 726 86 652 43 c 128,-1,82
 578 0 578 0 490 -10 c 1,83,-1
 467 -69 l 1,84,85
 602 -102 602 -102 602 -191 c 0,86,87
 602 -258 602 -258 543 -299 c 0,88,89
 485 -340 485 -340 403 -340 c 0,90,-1
 402 -340 l 0,91,92
 320 -340 320 -340 261 -308 c 1,93,-1
 284 -256 l 2,94,95
 291 -240 291 -240 303 -240 c 0,96,97
 314 -240 314 -240 321 -244 c 0,98,99
 337 -253 337 -253 343 -256 c 0,100,101
 368 -267 368 -267 389 -267 c 0,102,103
 421 -267 421 -267 447 -244 c 0,104,105
 468 -225 468 -225 468 -194.5 c 128,-1,106
 468 -164 468 -164 434 -150 c 128,-1,107
 400 -136 400 -136 336 -127 c 1,108,-1
 382 -13 l 1,109,110
 228 0 228 0 144 107 c 128,-1,111
 60 214 60 214 60 388 c 0,112,113
 60 631 60 631 205 811.5 c 128,-1,114
 350 992 350 992 569 992 c 0,115,116
 616 992 616 992 667 981 c 1,0,1
EndSplineSet
LCarets2: 1 0
Ligature2: "sous-table 'dlig' Ligatures facultatives  dans Latin lookup 36" ccedilla t
EndChar

StartChar: d
Encoding: 100 100 55
Width: 1053
GlyphClass: 2
Flags: MW
LayerCount: 2
Fore
SplineSet
543 992 m 0,0,1
 695 992 695 992 785 883 c 1,2,-1
 852 1422 l 1,3,-1
 1024 1422 l 1,4,-1
 849 0 l 1,5,-1
 757 0 l 2,6,7
 700 0 700 0 700 51 c 0,8,9
 700 55 700 55 700 60 c 2,10,-1
 718 268 l 1,11,12
 598 66 598 66 437 6 c 0,13,14
 383 -14 383 -14 327 -14 c 0,15,16
 198 -14 198 -14 125 78 c 128,-1,17
 52 170 52 170 52 346 c 0,18,19
 52 594 52 594 192 788 c 0,20,21
 284 914 284 914 410 966 c 0,22,23
 474 992 474 992 543 992 c 0,0,1
770 762 m 1,24,25
 701 857 701 857 569 857 c 0,26,27
 568 857 568 857 566 857 c 0,28,29
 467 857 467 857 386 780 c 0,30,31
 273 675 273 675 237 479 c 0,32,33
 226 420 226 420 226 363 c 0,34,35
 226 248 226 248 269.5 187 c 128,-1,36
 313 126 313 126 401 126 c 128,-1,37
 489 126 489 126 585 235 c 128,-1,38
 681 344 681 344 740 514 c 1,39,-1
 770 762 l 1,24,25
EndSplineSet
Substitution2: "sous-table 'ordn' Ordinaux dans Latin lookup 39" d.superior
Substitution2: "sous-table 'sups' Exposant lookups25" d.superior
EndChar

StartChar: dcroat
Encoding: 273 273 57
Width: 1128
GlyphClass: 2
Flags: MW
LayerCount: 2
Fore
SplineSet
585 972 m 0,0,1
 756 972 756 972 856 860 c 1,2,-1
 886 1103 l 1,3,-1
 706 1103 l 2,4,5
 649 1103 649 1103 649 1149 c 0,6,7
 649 1157 649 1157 650 1166 c 2,8,-1
 657 1211 l 1,9,-1
 899 1211 l 1,10,-1
 925 1422 l 1,11,-1
 1097 1422 l 1,12,-1
 1071 1211 l 1,13,-1
 1217 1211 l 1,14,-1
 1207 1103 l 1,15,-1
 1057 1103 l 1,16,-1
 922 0 l 1,17,-1
 831 0 l 2,18,19
 773 0 773 0 773 52 c 0,20,21
 773 56 773 56 773 60 c 2,22,-1
 794 281 l 1,23,24
 659 69 659 69 483 7 c 0,25,26
 423 -14 423 -14 360 -14 c 0,27,28
 215 -14 215 -14 135.5 79.5 c 128,-1,29
 56 173 56 173 56 352 c 0,30,31
 56 596 56 596 206 780 c 0,32,33
 363 972 363 972 585 972 c 0,0,1
842 743 m 1,34,35
 760 836 760 836 602 836 c 128,-1,36
 444 836 444 836 337 692 c 128,-1,37
 230 548 230 548 229 368 c 0,38,39
 229 250 229 250 279 188 c 128,-1,40
 329 126 329 126 430.5 126 c 128,-1,41
 532 126 532 126 640 236 c 128,-1,42
 748 346 748 346 814 520 c 1,43,-1
 842 743 l 1,34,35
EndSplineSet
EndChar

StartChar: eth
Encoding: 240 240 58
Width: 1076
GlyphClass: 2
Flags: MW
LayerCount: 2
Fore
SplineSet
877 714 m 1,0,1
 873 970 873 970 705 1104 c 1,2,-1
 510 971 l 1,3,-1
 478 1027 l 1,4,5
 471 1038 471 1038 471 1048 c 0,6,7
 471 1062 471 1062 486 1074 c 2,8,-1
 616 1163 l 1,9,10
 531 1208 531 1208 413 1238 c 0,11,12
 375 1248 375 1248 375 1278 c 0,13,14
 375 1292 375 1292 383 1309 c 1,15,-1
 406 1363 l 1,16,17
 604 1331 604 1331 745 1236 c 1,18,-1
 925 1356 l 1,19,-1
 955 1301 l 1,20,21
 961 1289 961 1289 961 1279 c 0,22,23
 961 1262 961 1262 944 1249 c 1,24,-1
 827 1170 l 1,25,26
 1016 988 1016 988 1016 677 c 128,-1,27
 1016 366 1016 366 871 176.5 c 128,-1,28
 726 -13 726 -13 461 -13 c 0,29,30
 284 -12 284 -12 173 97 c 128,-1,31
 62 206 62 206 62 402.5 c 128,-1,32
 62 599 62 599 200 747 c 128,-1,33
 338 895 338 895 557 895 c 128,-1,34
 776 895 776 895 877 714 c 1,0,1
845 546 m 1,35,36
 788 763 788 763 562 763 c 1,37,38
 414 763 414 763 322 658.5 c 128,-1,39
 230 554 230 554 230 411 c 128,-1,40
 230 268 230 268 301 193 c 0,41,42
 371 119 371 119 486 119 c 0,43,44
 488 119 488 119 489 119 c 0,45,46
 628 119 628 119 722 223 c 128,-1,47
 816 327 816 327 845 546 c 1,35,36
EndSplineSet
EndChar

StartChar: e
Encoding: 101 101 59
Width: 978
GlyphClass: 2
Flags: MW
LayerCount: 2
Fore
SplineSet
230 395 m 2,0,1
 230 124 230 124 490 124 c 0,2,3
 637 124 637 124 776 231 c 0,4,5
 802 251 802 251 824 251 c 128,-1,6
 846 251 846 251 861 234 c 2,7,-1
 905 181 l 1,8,9
 794 77 794 77 718 43 c 0,10,11
 590 -14 590 -14 478 -14 c 0,12,13
 272 -14 272 -14 166 96 c 0,14,15
 59 207 59 207 59 394 c 0,16,17
 59 629 59 629 211 810 c 128,-1,18
 363 991 363 991 606 991 c 0,19,20
 607 991 607 991 609 991 c 0,21,22
 760 991 760 991 841 921 c 128,-1,23
 922 851 922 851 922 775.5 c 128,-1,24
 922 700 922 700 893 647 c 0,25,26
 801 478 801 478 231 428 c 1,27,28
 230 420 230 420 230 412 c 2,29,-1
 230 395 l 2,0,1
765 756 m 0,30,31
 764 827 764 827 676 856 c 0,32,33
 644 866 644 866 588 866 c 0,34,35
 464 866 464 866 372 775 c 128,-1,36
 280 684 280 684 247 544 c 1,37,38
 718 594 718 594 758 715 c 0,39,40
 765 736 765 736 765 756 c 0,30,31
EndSplineSet
Substitution2: "sous-table 'ordn' Ordinaux dans Latin lookup 39" e.superior
Substitution2: "sous-table 'sups' Exposant lookups25" e.superior
EndChar

StartChar: eogonek
Encoding: 281 281 60
Width: 978
GlyphClass: 2
Flags: MW
LayerCount: 2
Fore
SplineSet
230 395 m 2,0,1
 230 124 230 124 490 124 c 0,2,3
 637 124 637 124 776 231 c 0,4,5
 802 251 802 251 824 251 c 128,-1,6
 846 251 846 251 861 234 c 2,7,-1
 905 181 l 1,8,9
 750 36 750 36 607 2 c 1,10,-1
 626 0 l 1,11,12
 546 -44 546 -44 516 -108 c 0,13,14
 504 -132 504 -132 504 -161.5 c 128,-1,15
 504 -191 504 -191 522.5 -209.5 c 128,-1,16
 541 -228 541 -228 566.5 -228 c 128,-1,17
 592 -228 592 -228 606 -224.5 c 128,-1,18
 620 -221 620 -221 629 -216.5 c 128,-1,19
 638 -212 638 -212 643.5 -208.5 c 128,-1,20
 649 -205 649 -205 653 -205 c 0,21,22
 667 -205 667 -205 670 -217 c 2,23,-1
 688 -280 l 1,24,25
 620 -330 620 -330 536 -330 c 128,-1,26
 452 -330 452 -330 412 -296.5 c 128,-1,27
 372 -263 372 -263 372 -207 c 0,28,29
 372 -98 372 -98 499 -13 c 1,30,-1
 458 -14 l 1,31,32
 272 -14 272 -14 166 96 c 0,33,34
 59 207 59 207 59 394 c 0,35,36
 59 629 59 629 211 810 c 128,-1,37
 363 991 363 991 606 991 c 0,38,39
 607 991 607 991 609 991 c 0,40,41
 760 991 760 991 841 921 c 128,-1,42
 922 851 922 851 922 775.5 c 128,-1,43
 922 700 922 700 893 647 c 0,44,45
 801 478 801 478 231 428 c 1,46,47
 230 420 230 420 230 412 c 2,48,-1
 230 395 l 2,0,1
765 756 m 0,49,50
 764 827 764 827 676 856 c 0,51,52
 644 866 644 866 588 866 c 0,53,54
 464 866 464 866 372 775 c 128,-1,55
 280 684 280 684 247 544 c 1,56,57
 718 594 718 594 758 715 c 0,58,59
 765 736 765 736 765 756 c 0,49,50
EndSplineSet
EndChar

StartChar: f
Encoding: 102 102 61
Width: 625
GlyphClass: 2
Flags: MW
LayerCount: 2
Fore
SplineSet
373 833 m 1,0,-1
 276 32 l 1,1,-1
 227 -166 l 1,2,3
 211 -240 211 -240 140 -240 c 2,4,-1
 70 -240 l 1,5,-1
 201 831 l 1,6,-1
 96 845 l 1,7,8
 58 849 58 849 58 882 c 0,9,10
 58 885 58 885 58 889 c 2,11,-1
 65 960 l 1,12,-1
 216 960 l 1,13,-1
 228 1053 l 1,14,15
 248 1218 248 1218 352.5 1311 c 128,-1,16
 457 1404 457 1404 611 1404 c 0,17,18
 672 1404 672 1404 727 1385 c 1,19,-1
 711 1294 l 2,20,21
 708 1277 708 1277 690 1276 c 0,22,23
 683 1275 683 1275 610 1275 c 0,24,25
 529 1275 529 1275 469 1220.5 c 128,-1,26
 409 1166 409 1166 395 1048 c 1,27,-1
 383 960 l 1,28,-1
 649 960 l 1,29,-1
 633 833 l 1,30,-1
 373 833 l 1,0,-1
EndSplineSet
Substitution2: "sous-table 'ordn' Ordinaux dans Latin lookup 39" f.superior
Substitution2: "sous-table 'sups' Exposant lookups25" f.superior
EndChar

StartChar: f_b.liga
Encoding: 1114118 -1 62
Width: 1668
GlyphClass: 3
Flags: MW
LayerCount: 2
Fore
SplineSet
1135 -14 m 0,0,1
 969 -14 969 -14 879 114 c 1,2,-1
 864 51 l 1,3,4
 859 25 859 25 846.5 12.5 c 128,-1,5
 834 0 834 0 804 0 c 2,6,-1
 711 0 l 1,7,-1
 869 1310 l 1,8,9
 792 1329 792 1329 730 1329 c 0,10,11
 606 1329 606 1329 527.5 1249 c 128,-1,12
 449 1169 449 1169 434 1038 c 1,13,-1
 424 958 l 1,14,-1
 692 958 l 1,15,-1
 677 835 l 1,16,-1
 415 835 l 1,17,-1
 312 0 l 1,18,-1
 142 0 l 1,19,-1
 244 833 l 1,20,-1
 144 846 l 2,21,22
 103 852 103 852 103 883 c 0,23,24
 103 886 103 886 103 889 c 2,25,-1
 111 958 l 1,26,-1
 259 958 l 1,27,-1
 269 1038 l 2,28,29
 304 1326 304 1326 552 1411 c 0,30,31
 640 1441 640 1441 716.5 1441 c 128,-1,32
 793 1441 793 1441 824.5 1438.5 c 128,-1,33
 856 1436 856 1436 887.5 1433 c 128,-1,34
 919 1430 919 1430 952.5 1426.5 c 128,-1,35
 986 1423 986 1423 1024 1422 c 1,36,-1
 1055 1422 l 1,37,-1
 1055 1421 l 1,38,-1
 1081 1421 l 1,39,-1
 1052 1400 l 1,40,-1
 970 729 l 1,41,42
 1137 992 1137 992 1351 992 c 0,43,44
 1480 992 1480 992 1553 900 c 128,-1,45
 1626 808 1626 808 1626 633 c 0,46,47
 1626 387 1626 387 1486 190 c 0,48,49
 1396 64 1396 64 1269 12 c 0,50,51
 1205 -14 1205 -14 1135 -14 c 0,0,1
907 216 m 1,52,53
 977 122 977 122 1118.5 122 c 128,-1,54
 1260 122 1260 122 1356 277.5 c 128,-1,55
 1452 433 1452 433 1452 617 c 0,56,57
 1452 732 1452 732 1409 792 c 128,-1,58
 1366 852 1366 852 1277 852 c 128,-1,59
 1188 852 1188 852 1092.5 743.5 c 128,-1,60
 997 635 997 635 938 465 c 1,61,-1
 907 216 l 1,52,53
EndSplineSet
Ligature2: "sous-table 'liga' Ligatures standard dans Latin lookup 37" f b
EndChar

StartChar: f_f_b.liga
Encoding: 1114119 -1 63
Width: 2238
GlyphClass: 3
Flags: MW
LayerCount: 2
Fore
SplineSet
1442 1311 m 1,0,1
 1370 1329 1370 1329 1307 1329 c 0,2,3
 1185 1329 1185 1329 1107.5 1250.5 c 128,-1,4
 1030 1172 1030 1172 1013 1038 c 2,5,-1
 1003 958 l 1,6,-1
 1269 958 l 1,7,-1
 1254 835 l 1,8,-1
 994 835 l 1,9,-1
 891 0 l 1,10,-1
 721 0 l 1,11,-1
 824 835 l 1,12,-1
 414 835 l 1,13,-1
 311 0 l 1,14,-1
 141 0 l 1,15,-1
 243 833 l 1,16,-1
 144 846 l 2,17,18
 103 852 103 852 103 883 c 0,19,20
 103 886 103 886 103 889 c 2,21,-1
 111 958 l 1,22,-1
 259 958 l 1,23,-1
 269 1039 l 2,24,25
 289 1204 289 1204 386 1296 c 128,-1,26
 483 1388 483 1388 633 1388 c 0,27,28
 692 1388 692 1388 747 1369 c 1,29,-1
 732 1284 l 2,30,31
 728 1261 728 1261 706 1260 c 0,32,33
 684 1258 684 1258 644 1258 c 0,34,35
 460 1258 460 1258 432 1034 c 1,36,-1
 422 958 l 1,37,-1
 839 958 l 1,38,-1
 849 1038 l 2,39,40
 886 1326 886 1326 1132 1411 c 0,41,42
 1218 1441 1218 1441 1294.5 1441 c 128,-1,43
 1371 1441 1371 1441 1402.5 1438.5 c 128,-1,44
 1434 1436 1434 1436 1465.5 1433 c 128,-1,45
 1497 1430 1497 1430 1529.5 1426.5 c 128,-1,46
 1562 1423 1562 1423 1600 1422 c 1,47,-1
 1628 1422 l 1,48,-1
 1628 1421 l 1,49,-1
 1656 1421 l 1,50,-1
 1625 1399 l 1,51,-1
 1543 729 l 1,52,53
 1710 992 1710 992 1924 992 c 0,54,55
 2053 992 2053 992 2126 900 c 128,-1,56
 2199 808 2199 808 2199 633 c 0,57,58
 2199 387 2199 387 2059 190 c 0,59,60
 1969 64 1969 64 1842 12 c 0,61,62
 1778 -14 1778 -14 1708 -14 c 0,63,64
 1542 -14 1542 -14 1452 114 c 1,65,-1
 1437 51 l 1,66,67
 1432 25 1432 25 1419.5 12.5 c 128,-1,68
 1407 0 1407 0 1377 0 c 2,69,-1
 1284 0 l 1,70,-1
 1442 1311 l 1,0,1
1480 216 m 1,71,72
 1550 122 1550 122 1691 122 c 128,-1,73
 1832 122 1832 122 1928 277.5 c 128,-1,74
 2024 433 2024 433 2025 617 c 0,75,76
 2025 732 2025 732 1982 792 c 128,-1,77
 1939 852 1939 852 1849.5 852 c 128,-1,78
 1760 852 1760 852 1664.5 743.5 c 128,-1,79
 1569 635 1569 635 1511 465 c 1,80,-1
 1480 216 l 1,71,72
EndSplineSet
LCarets2: 2 0 0
Ligature2: "sous-table 'liga' Ligatures standard dans Latin lookup 37" f f b
EndChar

StartChar: uniFB00
Encoding: 64256 64256 64
Width: 1195
GlyphClass: 3
Flags: MW
LayerCount: 2
Fore
SplineSet
139 0 m 1,0,-1
 241 834 l 1,1,-1
 143 846 l 1,2,3
 103 852 103 852 103 883 c 0,4,5
 103 886 103 886 103 889 c 2,6,-1
 111 958 l 1,7,-1
 257 958 l 1,8,-1
 267 1039 l 2,9,10
 287 1204 287 1204 384 1296 c 128,-1,11
 481 1388 481 1388 631 1388 c 0,12,13
 688 1388 688 1388 743 1369 c 1,14,-1
 728 1284 l 2,15,16
 724 1261 724 1261 702 1259.5 c 128,-1,17
 680 1258 680 1258 640 1258 c 0,18,19
 457 1258 457 1258 430 1034 c 1,20,-1
 420 958 l 1,21,-1
 834 958 l 1,22,-1
 847 1064 l 2,23,24
 867 1228 867 1228 964.5 1321 c 128,-1,25
 1062 1414 1062 1414 1210 1414 c 0,26,27
 1269 1414 1269 1414 1322 1394 c 1,28,-1
 1307 1309 l 1,29,30
 1304 1286 1304 1286 1282 1284 c 0,31,32
 1260 1283 1260 1283 1220 1283 c 0,33,34
 1039 1283 1039 1283 1011 1058 c 1,35,-1
 998 958 l 1,36,-1
 1261 958 l 1,37,-1
 1247 835 l 1,38,-1
 989 835 l 1,39,-1
 886 0 l 1,40,-1
 716 0 l 1,41,-1
 819 835 l 1,42,-1
 412 835 l 1,43,-1
 309 0 l 1,44,-1
 139 0 l 1,0,-1
EndSplineSet
LCarets2: 1 0
Ligature2: "sous-table 'liga' Ligatures standard dans Latin lookup 37" f f
EndChar

StartChar: f_h.liga
Encoding: 1114120 -1 65
Width: 1667
GlyphClass: 3
Flags: MW
LayerCount: 2
Fore
SplineSet
856 1313 m 1,0,1
 796 1329 796 1329 732 1329 c 0,2,3
 605 1329 605 1329 526 1249 c 128,-1,4
 447 1169 447 1169 433 1038 c 1,5,-1
 423 958 l 1,6,-1
 691 958 l 1,7,-1
 676 835 l 1,8,-1
 414 835 l 1,9,-1
 311 0 l 1,10,-1
 141 0 l 1,11,-1
 243 834 l 1,12,-1
 144 846 l 2,13,14
 103 852 103 852 103 883 c 0,15,16
 103 886 103 886 103 889 c 2,17,-1
 111 958 l 1,18,-1
 258 958 l 1,19,-1
 268 1038 l 2,20,21
 304 1326 304 1326 552 1411 c 0,22,23
 640 1441 640 1441 716 1441 c 128,-1,24
 792 1441 792 1441 823.5 1438.5 c 128,-1,25
 855 1436 855 1436 886.5 1433 c 128,-1,26
 918 1430 918 1430 951 1426.5 c 128,-1,27
 984 1423 984 1423 1022 1422 c 1,28,-1
 1044 1422 l 1,29,-1
 1044 1421 l 1,30,-1
 1079 1421 l 1,31,-1
 1040 1394 l 1,32,-1
 964 759 l 1,33,34
 1042 874 1042 874 1138 933 c 128,-1,35
 1234 992 1234 992 1316 992 c 0,36,37
 1465 992 1465 992 1527 895 c 0,38,39
 1573 823 1573 823 1573 706 c 0,40,41
 1573 667 1573 667 1568 623 c 2,42,-1
 1495 0 l 1,43,-1
 1320 0 l 1,44,-1
 1393 623 l 2,45,46
 1398 660 1398 660 1398 692 c 0,47,48
 1398 756 1398 756 1378 793 c 0,49,50
 1349 848 1349 848 1263.5 848 c 128,-1,51
 1178 848 1178 848 1084 756 c 128,-1,52
 990 664 990 664 935 517 c 1,53,-1
 873 0 l 1,54,-1
 698 0 l 1,55,-1
 856 1313 l 1,0,1
EndSplineSet
Ligature2: "sous-table 'liga' Ligatures standard dans Latin lookup 37" f h
EndChar

StartChar: f_f_h.liga
Encoding: 1114121 -1 66
Width: 2237
GlyphClass: 3
Flags: MW
LayerCount: 2
Fore
SplineSet
1441 1311 m 1,0,1
 1368 1329 1368 1329 1306 1329 c 0,2,3
 1184 1329 1184 1329 1106.5 1249.5 c 128,-1,4
 1029 1170 1029 1170 1012 1038 c 2,5,-1
 1002 958 l 1,6,-1
 1268 958 l 1,7,-1
 1254 835 l 1,8,-1
 993 835 l 1,9,-1
 890 0 l 1,10,-1
 720 0 l 1,11,-1
 823 835 l 1,12,-1
 414 835 l 1,13,-1
 311 0 l 1,14,-1
 140 0 l 1,15,-1
 243 833 l 1,16,-1
 144 846 l 2,17,18
 103 852 103 852 103 883 c 0,19,20
 103 886 103 886 103 889 c 2,21,-1
 111 958 l 1,22,-1
 259 958 l 1,23,-1
 269 1039 l 2,24,25
 289 1204 289 1204 386 1296 c 128,-1,26
 483 1388 483 1388 633 1388 c 0,27,28
 692 1388 692 1388 747 1369 c 1,29,-1
 732 1284 l 2,30,31
 728 1261 728 1261 706 1260 c 0,32,33
 684 1258 684 1258 644 1258 c 0,34,35
 460 1258 460 1258 432 1034 c 1,36,-1
 421 958 l 1,37,-1
 838 958 l 1,38,-1
 848 1038 l 2,39,40
 884 1326 884 1326 1131 1411 c 0,41,42
 1218 1441 1218 1441 1294.5 1441 c 128,-1,43
 1371 1441 1371 1441 1402.5 1438.5 c 128,-1,44
 1434 1436 1434 1436 1465.5 1433 c 128,-1,45
 1497 1430 1497 1430 1529.5 1426.5 c 128,-1,46
 1562 1423 1562 1423 1599 1422 c 1,47,-1
 1630 1422 l 1,48,-1
 1630 1421 l 1,49,-1
 1655 1421 l 1,50,-1
 1627 1401 l 1,51,-1
 1550 759 l 1,52,53
 1628 874 1628 874 1724 933 c 128,-1,54
 1820 992 1820 992 1902 992 c 0,55,56
 2051 992 2051 992 2113 895 c 0,57,58
 2159 823 2159 823 2159 706 c 0,59,60
 2159 667 2159 667 2154 623 c 2,61,-1
 2081 0 l 1,62,-1
 1906 0 l 1,63,-1
 1979 623 l 2,64,65
 1984 660 1984 660 1984 692 c 0,66,67
 1984 756 1984 756 1964 793 c 0,68,69
 1935 848 1935 848 1849.5 848 c 128,-1,70
 1764 848 1764 848 1670 756 c 128,-1,71
 1576 664 1576 664 1521 517 c 1,72,-1
 1459 0 l 1,73,-1
 1284 0 l 1,74,-1
 1441 1311 l 1,0,1
EndSplineSet
LCarets2: 2 0 0
Ligature2: "sous-table 'liga' Ligatures standard dans Latin lookup 37" f f h
EndChar

StartChar: uniFB01
Encoding: 64257 64257 67
Width: 1084
GlyphClass: 3
Flags: MW
LayerCount: 2
Fore
SplineSet
965 960 m 1,0,-1
 847 0 l 1,1,-1
 676 0 l 1,2,-1
 777 832 l 1,3,-1
 373 832 l 1,4,-1
 275 31 l 1,5,-1
 226 -167 l 1,6,7
 210 -241 210 -241 139 -241 c 2,8,-1
 70 -241 l 1,9,-1
 201 830 l 1,10,-1
 98 843 l 2,11,12
 57 849 57 849 57 880 c 0,13,14
 57 883 57 883 57 886 c 2,15,-1
 64 960 l 1,16,-1
 217 960 l 1,17,-1
 224 1012 l 1,18,19
 259 1298 259 1298 517 1386 c 0,20,21
 604 1416 604 1416 707 1416 c 128,-1,22
 810 1416 810 1416 859 1397 c 1,23,-1
 843 1309 l 2,24,25
 839 1290 839 1290 796 1290 c 0,26,27
 790 1290 790 1290 784 1290 c 0,28,29
 767 1291 767 1291 745 1291 c 0,30,31
 576 1291 576 1291 491.5 1222 c 128,-1,32
 407 1153 407 1153 388 1009 c 1,33,-1
 382 960 l 1,34,-1
 965 960 l 1,0,-1
EndSplineSet
Ligature2: "sous-table 'liga' Ligatures standard dans Latin lookup 37" f i
EndChar

StartChar: f_igrave.liga
Encoding: 1114122 -1 68
Width: 1084
GlyphClass: 3
Flags: MW
LayerCount: 2
Fore
SplineSet
570 1390 m 0,0,1
 662 1420 662 1420 750 1420 c 128,-1,2
 838 1420 838 1420 868 1402.5 c 128,-1,3
 898 1385 898 1385 911 1356 c 2,4,-1
 1023 1123 l 1,5,-1
 926 1123 l 2,6,7
 891 1123 891 1123 871 1149 c 2,8,-1
 759 1294 l 1,9,10
 609 1289 609 1289 530 1218.5 c 128,-1,11
 451 1148 451 1148 434 1008 c 2,12,-1
 428 958 l 1,13,-1
 1010 958 l 1,14,-1
 892 0 l 1,15,-1
 722 0 l 1,16,-1
 824 835 l 1,17,-1
 419 835 l 1,18,-1
 316 0 l 1,19,-1
 146 0 l 1,20,-1
 248 833 l 1,21,-1
 144 846 l 1,22,23
 103 852 103 852 103 883 c 0,24,25
 103 886 103 886 103 889 c 2,26,-1
 112 958 l 1,27,-1
 263 958 l 1,28,-1
 270 1013 l 1,29,30
 305 1303 305 1303 570 1390 c 0,0,1
EndSplineSet
Ligature2: "sous-table 'liga' Ligatures standard dans Latin lookup 37" f igrave
EndChar

StartChar: f_itilde.liga
Encoding: 1114124 -1 70
Width: 1103
GlyphClass: 3
Flags: MW
LayerCount: 2
Fore
SplineSet
1007 1295 m 1,0,1
 1032 1277 1032 1277 1053 1277 c 0,2,3
 1116 1277 1116 1277 1129 1361 c 1,4,-1
 1232 1361 l 1,5,6
 1222 1272 1222 1272 1170 1214.5 c 128,-1,7
 1118 1157 1118 1157 1059 1157 c 128,-1,8
 1000 1157 1000 1157 959.5 1187.5 c 128,-1,9
 919 1218 919 1218 899.5 1232 c 128,-1,10
 880 1246 880 1246 860 1246 c 2,11,-1
 858 1246 l 1,12,13
 813 1198 813 1198 800 1088 c 2,14,-1
 784 958 l 1,15,-1
 1366 958 l 1,16,-1
 1249 0 l 1,17,-1
 1078 0 l 1,18,-1
 1180 835 l 1,19,-1
 775 835 l 1,20,-1
 672 0 l 1,21,-1
 502 0 l 1,22,-1
 604 833 l 1,23,-1
 500 846 l 1,24,25
 459 852 459 852 459 883 c 0,26,27
 459 886 459 886 459 889 c 2,28,-1
 468 958 l 1,29,-1
 619 958 l 1,30,-1
 635 1087 l 2,31,32
 655 1247 655 1247 737.5 1329 c 128,-1,33
 820 1411 820 1411 949 1411 c 0,34,35
 994 1411 994 1411 1023 1402 c 1,36,-1
 1013 1309 l 2,37,38
 1012 1301 1012 1301 1007 1295 c 1,0,1
EndSplineSet
Ligature2: "sous-table 'liga' Ligatures standard dans Latin lookup 37" f itilde
EndChar

StartChar: f_idieresis.liga
Encoding: 1114125 -1 71
Width: 1103
GlyphClass: 3
Flags: MW
LayerCount: 2
Fore
SplineSet
710 1316 m 1,0,1
 747 1353 747 1353 791.5 1353 c 128,-1,2
 836 1353 836 1353 863.5 1324.5 c 128,-1,3
 891 1296 891 1296 891 1263 c 0,4,5
 891 1208 891 1208 854.5 1173.5 c 128,-1,6
 818 1139 818 1139 773.5 1139 c 128,-1,7
 729 1139 729 1139 701.5 1166.5 c 128,-1,8
 674 1194 674 1194 674 1228.5 c 128,-1,9
 674 1263 674 1263 688 1288 c 1,10,11
 681 1286 681 1286 673 1286 c 2,12,-1
 654 1286 l 2,13,14
 586 1286 586 1286 547.5 1239.5 c 128,-1,15
 509 1193 509 1193 496 1088 c 2,16,-1
 480 958 l 1,17,-1
 1062 958 l 1,18,-1
 945 0 l 1,19,-1
 774 0 l 1,20,-1
 876 835 l 1,21,-1
 471 835 l 1,22,-1
 368 0 l 1,23,-1
 198 0 l 1,24,-1
 300 833 l 1,25,-1
 196 846 l 1,26,27
 155 852 155 852 155 883 c 0,28,29
 155 886 155 886 155 889 c 2,30,-1
 164 958 l 1,31,-1
 315 958 l 1,32,-1
 331 1087 l 2,33,34
 351 1247 351 1247 433.5 1329 c 128,-1,35
 516 1411 516 1411 645 1411 c 0,36,37
 690 1411 690 1411 719 1402 c 1,38,-1
 710 1316 l 1,0,1
1183.5 1324.5 m 128,-1,40
 1211 1296 1211 1296 1211 1264 c 0,41,42
 1211 1208 1211 1208 1174.5 1173.5 c 128,-1,43
 1138 1139 1138 1139 1093 1139 c 128,-1,44
 1048 1139 1048 1139 1020.5 1166.5 c 128,-1,45
 993 1194 993 1194 993 1226 c 0,46,47
 993 1283 993 1283 1030 1318 c 128,-1,48
 1067 1353 1067 1353 1111.5 1353 c 128,-1,39
 1156 1353 1156 1353 1183.5 1324.5 c 128,-1,40
EndSplineSet
Ligature2: "sous-table 'liga' Ligatures standard dans Latin lookup 37" f idieresis
EndChar

StartChar: f_imacron.liga
Encoding: 1114126 -1 72
Width: 1103
GlyphClass: 3
Flags: MW
LayerCount: 2
Fore
SplineSet
146 0 m 1,0,-1
 248 833 l 1,1,-1
 144 846 l 1,2,3
 103 852 103 852 103 883 c 0,4,5
 103 886 103 886 103 889 c 2,6,-1
 112 958 l 1,7,-1
 263 958 l 1,8,-1
 279 1087 l 2,9,10
 299 1247 299 1247 381.5 1329 c 128,-1,11
 464 1411 464 1411 593 1411 c 0,12,13
 638 1411 638 1411 667 1402 c 1,14,-1
 657 1309 l 2,15,16
 654 1286 654 1286 594 1286 c 0,17,18
 469 1286 469 1286 444 1088 c 2,19,-1
 428 958 l 1,20,-1
 1010 958 l 1,21,-1
 893 0 l 1,22,-1
 722 0 l 1,23,-1
 824 835 l 1,24,-1
 419 835 l 1,25,-1
 316 0 l 1,26,-1
 146 0 l 1,0,-1
703 1299 m 1,27,-1
 1216 1299 l 1,28,-1
 1202 1188 l 1,29,-1
 689 1188 l 1,30,-1
 703 1299 l 1,27,-1
EndSplineSet
Ligature2: "sous-table 'liga' Ligatures standard dans Latin lookup 37" f imacron
EndChar

StartChar: f_iogonek.liga
Encoding: 1114128 -1 74
Width: 1084
GlyphClass: 3
Flags: MW
LayerCount: 2
Fore
SplineSet
615 -207 m 0,0,1
 615 -90 615 -90 762 0 c 1,2,-1
 722 0 l 1,3,-1
 824 835 l 1,4,-1
 419 835 l 1,5,-1
 316 0 l 1,6,-1
 146 0 l 1,7,-1
 248 833 l 1,8,-1
 144 846 l 1,9,10
 103 852 103 852 103 883 c 0,11,12
 103 886 103 886 103 889 c 2,13,-1
 112 958 l 1,14,-1
 263 958 l 1,15,-1
 270 1013 l 1,16,17
 292 1198 292 1198 419 1309 c 128,-1,18
 546 1420 546 1420 758 1420 c 0,19,20
 841 1420 841 1420 896 1399 c 1,21,-1
 880 1312 l 2,22,23
 876 1294 876 1294 856 1294 c 0,24,25
 855 1294 855 1294 854 1294 c 0,26,27
 833 1294 833 1294 791 1294 c 0,28,29
 623 1294 623 1294 537.5 1223 c 128,-1,30
 452 1152 452 1152 434 1008 c 2,31,-1
 428 958 l 1,32,-1
 1010 958 l 1,33,-1
 893 0 l 1,34,-1
 869 0 l 1,35,36
 793 -41 793 -41 758 -108 c 0,37,38
 746 -131 746 -131 746 -162 c 0,39,40
 747 -191 747 -191 765.5 -209.5 c 128,-1,41
 784 -228 784 -228 809.5 -228 c 128,-1,42
 835 -228 835 -228 849 -224.5 c 128,-1,43
 863 -221 863 -221 872 -216.5 c 128,-1,44
 881 -212 881 -212 886.5 -208.5 c 128,-1,45
 892 -205 892 -205 896 -205 c 0,46,47
 910 -205 910 -205 913 -217 c 2,48,-1
 931 -280 l 1,49,50
 863 -330 863 -330 779 -330 c 128,-1,51
 695 -330 695 -330 655 -296.5 c 128,-1,52
 615 -263 615 -263 615 -207 c 0,0,1
EndSplineSet
LCarets2: 1 0
Ligature2: "sous-table 'liga' Ligatures standard dans Latin lookup 37" f iogonek
EndChar

StartChar: f_dotlessi.liga
Encoding: 1114129 -1 75
Width: 1084
GlyphClass: 3
Flags: MW
LayerCount: 2
Fore
SplineSet
146 0 m 1,0,-1
 248 833 l 1,1,-1
 144 846 l 1,2,3
 103 852 103 852 103 883 c 0,4,5
 103 886 103 886 103 889 c 2,6,-1
 112 958 l 1,7,-1
 263 958 l 1,8,-1
 279 1087 l 2,9,10
 299 1247 299 1247 381.5 1329 c 128,-1,11
 464 1411 464 1411 593 1411 c 0,12,13
 638 1411 638 1411 667 1402 c 1,14,-1
 657 1309 l 2,15,16
 654 1286 654 1286 594 1286 c 0,17,18
 469 1286 469 1286 444 1088 c 2,19,-1
 428 958 l 1,20,-1
 1010 958 l 1,21,-1
 893 0 l 1,22,-1
 722 0 l 1,23,-1
 824 835 l 1,24,-1
 419 835 l 1,25,-1
 316 0 l 1,26,-1
 146 0 l 1,0,-1
EndSplineSet
Ligature2: "sous-table 'liga' Ligatures standard dans Latin lookup 37" f dotlessi
EndChar

StartChar: uniFB03
Encoding: 64259 64259 76
Width: 1654
GlyphClass: 3
Flags: MW
LayerCount: 2
Fore
SplineSet
143 0 m 1,0,-1
 245 833 l 1,1,-1
 144 846 l 1,2,3
 103 852 103 852 103 883 c 0,4,5
 103 886 103 886 103 889 c 2,6,-1
 111 958 l 1,7,-1
 261 958 l 1,8,-1
 271 1039 l 2,9,10
 291 1206 291 1206 389.5 1297 c 128,-1,11
 488 1388 488 1388 639 1388 c 0,12,13
 698 1388 698 1388 753 1369 c 1,14,-1
 739 1284 l 2,15,16
 734 1258 734 1258 692 1258 c 0,17,18
 689 1258 689 1258 686 1258 c 1,19,-1
 639 1258 l 2,20,21
 560 1258 560 1258 503.5 1206 c 128,-1,22
 447 1154 447 1154 434 1034 c 1,23,-1
 425 958 l 1,24,-1
 848 958 l 1,25,-1
 855 1013 l 1,26,27
 890 1300 890 1300 1144 1390 c 0,28,29
 1228 1420 1228 1420 1322.5 1420 c 128,-1,30
 1417 1420 1417 1420 1472 1399 c 1,31,-1
 1455 1312 l 2,32,33
 1451 1294 1451 1294 1432 1294 c 0,34,35
 1431 1294 1431 1294 1430 1294 c 0,36,37
 1348 1294 l 0,38,39
 1055 1294 1055 1294 1019 1008 c 1,40,-1
 1012 958 l 1,41,-1
 1584 958 l 1,42,-1
 1570 835 l 1,43,-1
 1569 835 l 1,44,-1
 1466 0 l 1,45,-1
 1296 0 l 1,46,-1
 1399 835 l 1,47,-1
 1003 835 l 1,48,-1
 900 0 l 1,49,-1
 730 0 l 1,50,-1
 833 835 l 1,51,-1
 416 835 l 1,52,-1
 313 0 l 1,53,-1
 143 0 l 1,0,-1
EndSplineSet
LCarets2: 2 0 0
Ligature2: "sous-table 'liga' Ligatures standard dans Latin lookup 37" f f i
EndChar

StartChar: f_f_igrave.liga
Encoding: 1114130 -1 77
Width: 1654
GlyphClass: 3
Flags: MW
LayerCount: 2
Fore
SplineSet
1467 0 m 1,0,-1
 1297 0 l 1,1,-1
 1400 835 l 1,2,-1
 1004 835 l 1,3,-1
 902 0 l 1,4,-1
 731 0 l 1,5,-1
 834 835 l 1,6,-1
 417 835 l 1,7,-1
 314 0 l 1,8,-1
 144 0 l 1,9,-1
 246 833 l 1,10,-1
 144 846 l 1,11,12
 103 852 103 852 103 883 c 0,13,14
 103 886 103 886 103 889 c 2,15,-1
 111 958 l 1,16,-1
 262 958 l 1,17,-1
 272 1039 l 2,18,19
 292 1204 292 1204 390.5 1296 c 128,-1,20
 489 1388 489 1388 640 1388 c 0,21,22
 701 1388 701 1388 756 1369 c 1,23,-1
 742 1284 l 2,24,25
 738 1261 738 1261 715 1259.5 c 128,-1,26
 692 1258 692 1258 651 1258 c 0,27,28
 464 1258 464 1258 436 1034 c 1,29,-1
 426 958 l 1,30,-1
 849 958 l 1,31,-1
 862 1064 l 2,32,33
 904 1414 904 1414 1327 1414 c 0,34,35
 1466 1414 1466 1414 1485 1371 c 1,36,-1
 1602 1123 l 1,37,-1
 1505 1123 l 2,38,39
 1469 1123 1469 1123 1450 1149 c 2,40,-1
 1339 1296 l 1,41,42
 1332 1297 1332 1297 1326 1297 c 2,43,-1
 1311 1297 l 1,44,45
 1309 1297 1309 1297 1306 1297 c 0,46,47
 1176 1296 1176 1296 1110 1242 c 0,48,49
 1042 1186 1042 1186 1026 1058 c 2,50,-1
 1013 958 l 1,51,-1
 1585 958 l 1,52,-1
 1467 0 l 1,0,-1
EndSplineSet
Ligature2: "sous-table 'liga' Ligatures standard dans Latin lookup 37" f f igrave
EndChar

StartChar: f_f_imacron.liga
Encoding: 1114134 -1 81
Width: 1673
GlyphClass: 3
Flags: MW
LayerCount: 2
Fore
SplineSet
1595 835 m 1,0,-1
 1492 0 l 1,1,-1
 1322 0 l 1,2,-1
 1425 835 l 1,3,-1
 1029 835 l 1,4,-1
 926 0 l 1,5,-1
 756 0 l 1,6,-1
 859 835 l 1,7,-1
 442 835 l 1,8,-1
 339 0 l 1,9,-1
 169 0 l 1,10,-1
 271 833 l 1,11,-1
 170 846 l 1,12,13
 129 852 129 852 129 883 c 0,14,15
 129 886 129 886 129 889 c 2,16,-1
 137 958 l 1,17,-1
 287 958 l 1,18,-1
 297 1039 l 2,19,20
 317 1206 317 1206 415.5 1297 c 128,-1,21
 514 1388 514 1388 665 1388 c 0,22,23
 724 1388 724 1388 779 1369 c 1,24,-1
 765 1284 l 2,25,26
 760 1258 760 1258 718 1258 c 0,27,28
 715 1258 715 1258 712 1258 c 1,29,-1
 665 1258 l 2,30,31
 586 1258 586 1258 529.5 1206 c 128,-1,32
 473 1154 473 1154 460 1034 c 1,33,-1
 451 958 l 1,34,-1
 874 958 l 1,35,-1
 890 1087 l 2,36,37
 910 1247 910 1247 990.5 1329 c 128,-1,38
 1071 1411 1071 1411 1199 1411 c 0,39,40
 1242 1411 1242 1411 1273 1402 c 1,41,-1
 1261 1309 l 2,42,43
 1261 1302 1261 1302 1258 1299 c 1,44,-1
 1761 1299 l 1,45,-1
 1747 1188 l 1,46,-1
 1234 1188 l 1,47,-1
 1247 1290 l 1,48,49
 1234 1286 1234 1286 1207 1286 c 0,50,51
 1142 1286 1142 1286 1104.5 1239.5 c 128,-1,52
 1067 1193 1067 1193 1054 1088 c 2,53,-1
 1038 958 l 1,54,-1
 1610 958 l 1,55,-1
 1596 835 l 1,56,-1
 1595 835 l 1,0,-1
EndSplineSet
Ligature2: "sous-table 'liga' Ligatures standard dans Latin lookup 37" f f imacron
EndChar

StartChar: f_f_ibreve.liga
Encoding: 1114135 -1 82
Width: 1673
GlyphClass: 3
Flags: MW
LayerCount: 2
Fore
SplineSet
1497 1234 m 0,0,1
 1625 1234 1625 1234 1644 1382 c 1,2,-1
 1764 1382 l 1,3,4
 1740 1202 1740 1202 1603 1144 c 0,5,6
 1553 1123 1553 1123 1487 1123 c 0,7,8
 1367 1124 1367 1124 1314 1182 c 0,9,10
 1264 1238 1264 1238 1264 1329 c 0,11,12
 1264 1332 1264 1332 1264 1336 c 1,13,-1
 1261 1309 l 2,14,15
 1259 1286 1259 1286 1201 1286 c 0,16,17
 1079 1286 1079 1286 1054 1088 c 2,18,-1
 1038 958 l 1,19,-1
 1610 958 l 1,20,-1
 1596 835 l 1,21,-1
 1595 835 l 1,22,-1
 1492 0 l 1,23,-1
 1322 0 l 1,24,-1
 1425 835 l 1,25,-1
 1029 835 l 1,26,-1
 926 0 l 1,27,-1
 756 0 l 1,28,-1
 859 835 l 1,29,-1
 442 835 l 1,30,-1
 339 0 l 1,31,-1
 169 0 l 1,32,-1
 271 833 l 1,33,-1
 170 846 l 1,34,35
 129 852 129 852 129 883 c 0,36,37
 129 886 129 886 129 889 c 2,38,-1
 137 958 l 1,39,-1
 287 958 l 1,40,-1
 297 1039 l 2,41,42
 317 1206 317 1206 415.5 1297 c 128,-1,43
 514 1388 514 1388 665 1388 c 0,44,45
 724 1388 724 1388 779 1369 c 1,46,-1
 765 1284 l 2,47,48
 760 1258 760 1258 718 1258 c 0,49,50
 715 1258 715 1258 712 1258 c 1,51,-1
 665 1258 l 2,52,53
 586 1258 586 1258 529.5 1206 c 128,-1,54
 473 1154 473 1154 460 1034 c 1,55,-1
 451 958 l 1,56,-1
 874 958 l 1,57,-1
 890 1087 l 2,58,59
 910 1247 910 1247 990.5 1329 c 128,-1,60
 1071 1411 1071 1411 1199 1411 c 0,61,62
 1242 1411 1242 1411 1273 1402 c 1,63,-1
 1270 1382 l 1,64,-1
 1387 1382 l 1,65,66
 1384 1358 1384 1358 1384 1339 c 0,67,68
 1384 1301 1384 1301 1396 1283 c 0,69,70
 1427 1234 1427 1234 1497 1234 c 0,0,1
EndSplineSet
Ligature2: "sous-table 'liga' Ligatures standard dans Latin lookup 37" f f ibreve
EndChar

StartChar: f_f_iogonek.liga
Encoding: 1114136 -1 83
Width: 1654
GlyphClass: 3
Flags: MW
LayerCount: 2
Fore
SplineSet
1168 -207 m 0,0,1
 1168 -90 1168 -90 1315 0 c 1,2,-1
 1296 0 l 1,3,-1
 1399 835 l 1,4,-1
 1003 835 l 1,5,-1
 900 0 l 1,6,-1
 730 0 l 1,7,-1
 833 835 l 1,8,-1
 416 835 l 1,9,-1
 313 0 l 1,10,-1
 143 0 l 1,11,-1
 245 833 l 1,12,-1
 144 846 l 1,13,14
 103 852 103 852 103 883 c 0,15,16
 103 886 103 886 103 889 c 2,17,-1
 111 958 l 1,18,-1
 261 958 l 1,19,-1
 271 1039 l 2,20,21
 291 1206 291 1206 389.5 1297 c 128,-1,22
 488 1388 488 1388 639 1388 c 0,23,24
 698 1388 698 1388 753 1369 c 1,25,-1
 739 1284 l 2,26,27
 734 1258 734 1258 692 1258 c 0,28,29
 689 1258 689 1258 686 1258 c 1,30,-1
 639 1258 l 2,31,32
 560 1258 560 1258 503.5 1206 c 128,-1,33
 447 1154 447 1154 434 1034 c 1,34,-1
 425 958 l 1,35,-1
 848 958 l 1,36,-1
 855 1013 l 1,37,38
 890 1300 890 1300 1144 1390 c 0,39,40
 1228 1420 1228 1420 1322.5 1420 c 128,-1,41
 1417 1420 1417 1420 1472 1399 c 1,42,-1
 1455 1312 l 2,43,44
 1451 1293 1451 1293 1431 1293 c 0,45,46
 1430 1294 l 0,47,48
 1408 1294 1408 1294 1348 1294 c 0,49,50
 1055 1294 1055 1294 1019 1008 c 1,51,-1
 1012 958 l 1,52,-1
 1584 958 l 1,53,-1
 1570 835 l 1,54,-1
 1569 835 l 1,55,-1
 1466 0 l 1,56,-1
 1422 0 l 1,57,58
 1342 -44 1342 -44 1312 -108 c 0,59,60
 1300 -132 1300 -132 1300 -161.5 c 128,-1,61
 1300 -191 1300 -191 1318.5 -209.5 c 128,-1,62
 1337 -228 1337 -228 1362.5 -228 c 128,-1,63
 1388 -228 1388 -228 1402 -224.5 c 128,-1,64
 1416 -221 1416 -221 1425 -216.5 c 128,-1,65
 1434 -212 1434 -212 1439.5 -208.5 c 128,-1,66
 1445 -205 1445 -205 1449 -205 c 0,67,68
 1463 -205 1463 -205 1466 -217 c 2,69,-1
 1484 -280 l 1,70,71
 1416 -330 1416 -330 1332 -330 c 128,-1,72
 1248 -330 1248 -330 1208 -296.5 c 128,-1,73
 1168 -263 1168 -263 1168 -207 c 0,0,1
EndSplineSet
Ligature2: "sous-table 'liga' Ligatures standard dans Latin lookup 37" f f iogonek
EndChar

StartChar: f_f_dotlessi.liga
Encoding: 1114137 -1 84
Width: 1654
GlyphClass: 3
Flags: MW
LayerCount: 2
Fore
SplineSet
1569 835 m 1,0,-1
 1466 0 l 1,1,-1
 1296 0 l 1,2,-1
 1399 835 l 1,3,-1
 1003 835 l 1,4,-1
 900 0 l 1,5,-1
 730 0 l 1,6,-1
 833 835 l 1,7,-1
 416 835 l 1,8,-1
 313 0 l 1,9,-1
 143 0 l 1,10,-1
 245 833 l 1,11,-1
 144 846 l 1,12,13
 103 852 103 852 103 883 c 0,14,15
 103 886 103 886 103 889 c 2,16,-1
 111 958 l 1,17,-1
 261 958 l 1,18,-1
 271 1039 l 2,19,20
 291 1206 291 1206 389.5 1297 c 128,-1,21
 488 1388 488 1388 639 1388 c 0,22,23
 698 1388 698 1388 753 1369 c 1,24,-1
 739 1284 l 2,25,26
 734 1258 734 1258 692 1258 c 0,27,28
 689 1258 689 1258 686 1258 c 1,29,-1
 639 1258 l 2,30,31
 560 1258 560 1258 503.5 1206 c 128,-1,32
 447 1154 447 1154 434 1034 c 1,33,-1
 425 958 l 1,34,-1
 848 958 l 1,35,-1
 864 1087 l 2,36,37
 884 1247 884 1247 964.5 1329 c 128,-1,38
 1045 1411 1045 1411 1173 1411 c 0,39,40
 1216 1411 1216 1411 1247 1402 c 1,41,-1
 1235 1309 l 2,42,43
 1233 1286 1233 1286 1175 1286 c 0,44,45
 1053 1286 1053 1286 1028 1088 c 2,46,-1
 1012 958 l 1,47,-1
 1584 958 l 1,48,-1
 1570 835 l 1,49,-1
 1569 835 l 1,0,-1
EndSplineSet
Ligature2: "sous-table 'liga' Ligatures standard dans Latin lookup 37" f f dotlessi
EndChar

StartChar: f_j.liga
Encoding: 1114138 -1 85
Width: 1084
GlyphClass: 3
Flags: MW
LayerCount: 2
Fore
SplineSet
149 0 m 1,0,-1
 251 833 l 1,1,-1
 144 846 l 1,2,3
 103 852 103 852 103 883 c 0,4,5
 103 886 103 886 103 889 c 2,6,-1
 112 958 l 1,7,-1
 266 958 l 1,8,-1
 273 1013 l 2,9,10
 296 1198 296 1198 424.5 1309 c 128,-1,11
 553 1420 553 1420 766 1420 c 0,12,13
 851 1420 851 1420 906 1399 c 1,14,-1
 890 1312 l 1,15,16
 886 1296 886 1296 869 1294 c 0,17,18
 856 1293 856 1293 844 1293 c 0,19,20
 840 1294 840 1294 836 1294 c 0,21,22
 820 1294 820 1294 799 1294 c 0,23,24
 629 1294 629 1294 542 1223 c 128,-1,25
 455 1152 455 1152 437 1008 c 2,26,-1
 431 958 l 1,27,-1
 1022 958 l 1,28,-1
 894 -75 l 2,29,30
 871 -268 871 -268 713 -330 c 0,31,32
 658 -352 658 -352 596 -352 c 128,-1,33
 534 -352 534 -352 479 -333 c 1,34,-1
 497 -242 l 1,35,36
 502 -226 502 -226 512 -224 c 0,37,38
 520 -223 520 -223 529 -223 c 0,39,40
 532 -224 532 -224 535 -224 c 0,41,42
 547 -224 547 -224 566 -224 c 0,43,44
 641 -224 641 -224 677.5 -188.5 c 128,-1,45
 714 -153 714 -153 724 -75 c 2,46,-1
 837 835 l 1,47,-1
 422 835 l 1,48,-1
 319 0 l 1,49,-1
 149 0 l 1,0,-1
EndSplineSet
Ligature2: "sous-table 'liga' Ligatures standard dans Latin lookup 37" f j
EndChar

StartChar: f_f_j.liga
Encoding: 1114139 -1 86
Width: 1655
GlyphClass: 3
Flags: MW
LayerCount: 2
Fore
SplineSet
145 0 m 1,0,-1
 247 833 l 1,1,-1
 144 846 l 1,2,3
 103 852 103 852 103 883 c 0,4,5
 103 886 103 886 103 889 c 2,6,-1
 111 958 l 1,7,-1
 263 958 l 1,8,-1
 273 1039 l 2,9,10
 293 1206 293 1206 392 1297 c 128,-1,11
 491 1388 491 1388 643 1388 c 0,12,13
 704 1388 704 1388 759 1369 c 1,14,-1
 745 1284 l 2,15,16
 741 1261 741 1261 718 1259.5 c 128,-1,17
 695 1258 695 1258 654 1258 c 0,18,19
 565 1258 565 1258 507 1205.5 c 128,-1,20
 449 1153 449 1153 436 1034 c 1,21,-1
 427 958 l 1,22,-1
 857 958 l 1,23,-1
 864 1013 l 1,24,25
 884 1198 884 1198 1011 1309 c 128,-1,26
 1138 1420 1138 1420 1348 1420 c 0,27,28
 1430 1420 1430 1420 1485 1399 c 1,29,-1
 1469 1312 l 2,30,31
 1465 1293 1465 1293 1444 1293 c 0,32,33
 1442 1294 l 0,34,35
 1420 1294 1420 1294 1382 1294 c 0,36,37
 1214 1294 1214 1294 1130 1223 c 128,-1,38
 1046 1152 1046 1152 1028 1008 c 1,39,-1
 1021 958 l 1,40,-1
 1598 958 l 1,41,-1
 1584 835 l 1,42,-1
 1582 835 l 1,43,-1
 1471 -75 l 2,44,45
 1448 -268 1448 -268 1292 -330 c 0,46,47
 1238 -352 1238 -352 1175 -352 c 128,-1,48
 1112 -352 1112 -352 1061 -333 c 1,49,-1
 1080 -242 l 2,50,51
 1084 -226 1084 -226 1094 -224 c 0,52,53
 1102 -223 1102 -223 1111 -223 c 0,54,55
 1114 -224 1114 -224 1117 -224 c 0,56,57
 1129 -224 1129 -224 1147 -224 c 0,58,59
 1221 -224 1221 -224 1256 -188.5 c 128,-1,60
 1291 -153 1291 -153 1301 -75 c 2,61,-1
 1413 835 l 1,62,-1
 1012 835 l 1,63,-1
 909 0 l 1,64,-1
 739 0 l 1,65,-1
 842 835 l 1,66,-1
 418 835 l 1,67,-1
 315 0 l 1,68,-1
 145 0 l 1,0,-1
EndSplineSet
Ligature2: "sous-table 'liga' Ligatures standard dans Latin lookup 37" f f j
EndChar

StartChar: f_k.liga
Encoding: 1114140 -1 87
Width: 1545
GlyphClass: 3
Flags: MW
LayerCount: 2
Fore
SplineSet
854 1307 m 1,0,1
 778 1329 778 1329 714 1329 c 0,2,3
 593 1329 593 1329 517.5 1249.5 c 128,-1,4
 442 1170 442 1170 427 1038 c 1,5,-1
 417 958 l 1,6,-1
 672 958 l 1,7,-1
 657 835 l 1,8,-1
 408 835 l 1,9,-1
 305 0 l 1,10,-1
 135 0 l 1,11,-1
 237 834 l 1,12,-1
 143 846 l 1,13,14
 103 852 103 852 103 883 c 0,15,16
 103 886 103 886 103 889 c 2,17,-1
 111 958 l 1,18,-1
 252 958 l 1,19,-1
 262 1038 l 2,20,21
 298 1326 298 1326 538 1411 c 0,22,23
 622 1441 622 1441 697.5 1441 c 128,-1,24
 773 1441 773 1441 803.5 1438.5 c 128,-1,25
 834 1436 834 1436 864.5 1433 c 128,-1,26
 895 1430 895 1430 927 1426.5 c 128,-1,27
 959 1423 959 1423 997 1422 c 1,28,-1
 1041 1422 l 1,29,-1
 1041 1421 l 1,30,-1
 1053 1421 l 1,31,-1
 1039 1411 l 1,32,-1
 938 586 l 1,33,-1
 968 586 l 2,34,35
 1003 586 1003 586 1028 613 c 2,36,-1
 1349 944 l 2,37,38
 1381 978 1381 978 1417 978 c 2,39,-1
 1572 978 l 1,40,-1
 1198 594 l 2,41,42
 1166 560 1166 560 1137 543 c 1,43,44
 1162 526 1162 526 1188 483 c 2,45,-1
 1476 0 l 1,46,-1
 1326 0 l 2,47,48
 1286 0 1286 0 1266 33 c 2,49,-1
 1021 434 l 2,50,51
 1009 454 1009 454 996.5 460.5 c 128,-1,52
 984 467 984 467 957 467 c 2,53,-1
 924 467 l 1,54,-1
 867 0 l 1,55,-1
 694 0 l 1,56,-1
 854 1307 l 1,0,1
EndSplineSet
Ligature2: "sous-table 'liga' Ligatures standard dans Latin lookup 37" f k
EndChar

StartChar: f_f_k.liga
Encoding: 1114141 -1 88
Width: 2115
GlyphClass: 3
Flags: MW
LayerCount: 2
Fore
SplineSet
1427 1306 m 1,0,1
 1348 1329 1348 1329 1282 1329 c 0,2,3
 1160 1329 1160 1329 1084.5 1250 c 128,-1,4
 1009 1171 1009 1171 992 1038 c 2,5,-1
 982 958 l 1,6,-1
 1239 958 l 1,7,-1
 1223 835 l 1,8,-1
 973 835 l 1,9,-1
 870 0 l 1,10,-1
 700 0 l 1,11,-1
 803 835 l 1,12,-1
 409 835 l 1,13,-1
 306 0 l 1,14,-1
 136 0 l 1,15,-1
 238 834 l 1,16,-1
 143 846 l 1,17,18
 103 852 103 852 103 883 c 0,19,20
 103 886 103 886 103 889 c 2,21,-1
 111 958 l 1,22,-1
 254 958 l 1,23,-1
 264 1039 l 2,24,25
 284 1206 284 1206 379.5 1297 c 128,-1,26
 475 1388 475 1388 622 1388 c 0,27,28
 680 1388 680 1388 732 1369 c 1,29,-1
 717 1284 l 2,30,31
 712 1258 712 1258 672 1258 c 0,32,33
 669 1258 669 1258 666 1258 c 1,34,-1
 622 1258 l 2,35,36
 547 1258 547 1258 493.5 1206 c 128,-1,37
 440 1154 440 1154 427 1034 c 1,38,-1
 418 958 l 1,39,-1
 818 958 l 1,40,-1
 828 1038 l 2,41,42
 864 1326 864 1326 1105 1411 c 0,43,44
 1190 1441 1190 1441 1265 1441 c 128,-1,45
 1340 1441 1340 1441 1370.5 1438.5 c 128,-1,46
 1401 1436 1401 1436 1432 1433 c 128,-1,47
 1463 1430 1463 1430 1495 1426.5 c 128,-1,48
 1527 1423 1527 1423 1564 1422 c 1,49,-1
 1614 1422 l 1,50,-1
 1614 1421 l 1,51,-1
 1619 1421 l 1,52,-1
 1613 1417 l 1,53,-1
 1512 586 l 1,54,-1
 1541 586 l 2,55,56
 1576 586 1576 586 1601 613 c 2,57,-1
 1922 944 l 2,58,59
 1954 978 1954 978 1990 978 c 2,60,-1
 2145 978 l 1,61,-1
 1771 594 l 2,62,63
 1739 560 1739 560 1710 543 c 1,64,65
 1735 526 1735 526 1761 483 c 2,66,-1
 2049 0 l 1,67,-1
 1899 0 l 2,68,69
 1859 0 1859 0 1839 33 c 2,70,-1
 1594 434 l 2,71,72
 1582 454 1582 454 1569.5 460.5 c 128,-1,73
 1557 467 1557 467 1530 467 c 2,74,-1
 1497 467 l 1,75,-1
 1440 0 l 1,76,-1
 1267 0 l 1,77,-1
 1427 1306 l 1,0,1
EndSplineSet
Ligature2: "sous-table 'liga' Ligatures standard dans Latin lookup 37" f f k
EndChar

StartChar: uniFB02
Encoding: 64258 64258 89
Width: 1084
GlyphClass: 3
Flags: MW
LayerCount: 2
Fore
SplineSet
838 1268 m 1,0,1
 680 1282 680 1282 657 1282 c 0,2,3
 542 1282 542 1282 470 1212 c 128,-1,4
 398 1142 398 1142 384 1012 c 2,5,-1
 378 960 l 1,6,-1
 614 960 l 1,7,-1
 599 833 l 1,8,-1
 369 833 l 1,9,-1
 270 31 l 1,10,-1
 221 -167 l 1,11,12
 205 -241 205 -241 134 -241 c 2,13,-1
 65 -241 l 1,14,-1
 196 831 l 1,15,-1
 99 843 l 1,16,17
 59 849 59 849 59 880 c 0,18,19
 59 883 59 883 59 886 c 2,20,-1
 67 960 l 1,21,-1
 212 960 l 1,22,-1
 219 1012 l 1,23,24
 240 1184 240 1184 352 1296.5 c 128,-1,25
 464 1409 464 1409 646 1409 c 1,26,-1
 908 1396 l 1,27,-1
 1025 1396 l 1,28,-1
 855 0 l 1,29,-1
 684 0 l 1,30,-1
 838 1268 l 1,0,1
EndSplineSet
Ligature2: "sous-table 'liga' Ligatures standard dans Latin lookup 37" f l
EndChar

StartChar: uniFB04
Encoding: 64260 64260 90
Width: 1654
GlyphClass: 3
Flags: MW
LayerCount: 2
Fore
SplineSet
1454 1278 m 1,0,-1
 1273 1286 l 1,1,2
 1158 1286 1158 1286 1087 1212.5 c 128,-1,3
 1016 1139 1016 1139 1000 1010 c 1,4,-1
 993 958 l 1,5,-1
 1254 958 l 1,6,-1
 1240 835 l 1,7,-1
 984 835 l 1,8,-1
 881 0 l 1,9,-1
 711 0 l 1,10,-1
 813 835 l 1,11,-1
 411 835 l 1,12,-1
 308 0 l 1,13,-1
 138 0 l 1,14,-1
 240 833 l 1,15,-1
 143 846 l 1,16,17
 103 852 103 852 103 883 c 0,18,19
 103 886 103 886 103 889 c 2,20,-1
 111 958 l 1,21,-1
 256 958 l 1,22,-1
 266 1039 l 2,23,24
 286 1204 286 1204 383 1296 c 128,-1,25
 480 1388 480 1388 628 1388 c 0,26,27
 685 1388 685 1388 740 1369 c 1,28,-1
 725 1284 l 2,29,30
 721 1261 721 1261 699 1259.5 c 128,-1,31
 677 1258 677 1258 638 1258 c 0,32,33
 457 1258 457 1258 429 1034 c 1,34,-1
 419 958 l 1,35,-1
 828 958 l 1,36,-1
 835 1010 l 1,37,38
 856 1182 856 1182 968 1296 c 0,39,40
 1079 1409 1079 1409 1259 1409 c 0,41,42
 1261 1409 1261 1409 1262 1409 c 1,43,-1
 1523 1396 l 1,44,-1
 1638 1396 l 1,45,-1
 1466 0 l 1,46,-1
 1298 0 l 1,47,-1
 1454 1278 l 1,0,-1
EndSplineSet
Ligature2: "sous-table 'liga' Ligatures standard dans Latin lookup 37" f f l
EndChar

StartChar: f_t.liga
Encoding: 1114142 -1 91
Width: 1252
GlyphClass: 3
Flags: MW
LayerCount: 2
Fore
SplineSet
1196 73 m 1,0,1
 1095 -15 1095 -15 972 -15 c 0,2,3
 756 -15 756 -15 756 181 c 0,4,5
 756 206 756 206 759 234 c 2,6,-1
 832 835 l 1,7,-1
 412 835 l 1,8,-1
 309 0 l 1,9,-1
 139 0 l 1,10,-1
 241 834 l 1,11,-1
 143 846 l 1,12,13
 103 852 103 852 103 883 c 0,14,15
 103 886 103 886 103 889 c 2,16,-1
 111 958 l 1,17,-1
 256 958 l 1,18,-1
 268 1054 l 2,19,20
 288 1220 288 1220 385.5 1311 c 128,-1,21
 483 1402 483 1402 632 1403 c 0,22,23
 690 1403 690 1403 745 1384 c 1,24,-1
 730 1299 l 2,25,26
 725 1276 725 1276 703 1274 c 0,27,28
 681 1274 681 1274 642 1274 c 0,29,30
 640 1274 640 1274 639 1274 c 0,31,32
 558 1274 558 1274 502 1221 c 128,-1,33
 446 1168 446 1168 432 1048 c 2,34,-1
 421 958 l 1,35,-1
 853 958 l 1,36,-1
 931 1263 l 2,37,38
 940 1295 940 1295 974 1295 c 2,39,-1
 1060 1295 l 1,40,-1
 1018 958 l 1,41,-1
 1282 958 l 1,42,-1
 1268 835 l 1,43,-1
 1003 835 l 1,44,-1
 930 245 l 2,45,46
 928 229 928 229 928 216 c 0,47,48
 928 176 928 176 946 153 c 0,49,50
 970 123 970 123 1004.5 123 c 128,-1,51
 1039 123 1039 123 1058 130.5 c 128,-1,52
 1077 138 1077 138 1091 146.5 c 128,-1,53
 1105 155 1105 155 1115.5 162.5 c 128,-1,54
 1126 170 1126 170 1137.5 170 c 128,-1,55
 1149 170 1149 170 1156 154 c 2,56,-1
 1196 73 l 1,0,1
EndSplineSet
Ligature2: "sous-table 'liga' Ligatures standard dans Latin lookup 37" f t
EndChar

StartChar: f_f_t.liga
Encoding: 1114143 -1 92
Width: 1823
GlyphClass: 3
Flags: MW
LayerCount: 2
Fore
SplineSet
1768 73 m 1,0,1
 1667 -15 1667 -15 1544 -15 c 0,2,3
 1328 -15 1328 -15 1328 181 c 0,4,5
 1328 206 1328 206 1332 234 c 2,6,-1
 1406 835 l 1,7,-1
 986 835 l 1,8,-1
 883 0 l 1,9,-1
 713 0 l 1,10,-1
 815 835 l 1,11,-1
 412 835 l 1,12,-1
 309 0 l 1,13,-1
 139 0 l 1,14,-1
 241 833 l 1,15,-1
 143 846 l 1,16,17
 103 852 103 852 103 883 c 0,18,19
 103 886 103 886 103 889 c 2,20,-1
 111 958 l 1,21,-1
 257 958 l 1,22,-1
 267 1039 l 2,23,24
 287 1204 287 1204 384 1296 c 128,-1,25
 481 1388 481 1388 629 1388 c 0,26,27
 689 1388 689 1388 741 1369 c 1,28,-1
 727 1284 l 2,29,30
 723 1261 723 1261 700.5 1259.5 c 128,-1,31
 678 1258 678 1258 638 1258 c 0,32,33
 556 1258 556 1258 500 1206 c 128,-1,34
 444 1154 444 1154 430 1034 c 2,35,-1
 421 958 l 1,36,-1
 830 958 l 1,37,-1
 842 1054 l 2,38,39
 862 1218 862 1218 959 1310 c 128,-1,40
 1056 1402 1056 1402 1205 1403 c 0,41,42
 1263 1403 1263 1403 1318 1384 c 1,43,-1
 1303 1299 l 2,44,45
 1299 1276 1299 1276 1276.5 1274.5 c 128,-1,46
 1254 1273 1254 1273 1215 1273 c 0,47,48
 1035 1273 1035 1273 1007 1048 c 1,49,-1
 995 958 l 1,50,-1
 1427 958 l 1,51,-1
 1504 1263 l 2,52,53
 1512 1295 1512 1295 1546 1295 c 2,54,-1
 1632 1295 l 1,55,-1
 1590 958 l 1,56,-1
 1855 958 l 1,57,-1
 1839 835 l 1,58,-1
 1575 835 l 1,59,-1
 1503 245 l 2,60,61
 1501 229 1501 229 1501 212 c 0,62,63
 1501 175 1501 175 1518 153 c 0,64,65
 1542 123 1542 123 1576.5 123 c 128,-1,66
 1611 123 1611 123 1630 130.5 c 128,-1,67
 1649 138 1649 138 1663.5 146.5 c 128,-1,68
 1678 155 1678 155 1688 162.5 c 128,-1,69
 1698 170 1698 170 1708 170 c 128,-1,70
 1718 170 1718 170 1727 154 c 2,71,-1
 1768 73 l 1,0,1
EndSplineSet
Ligature2: "sous-table 'liga' Ligatures standard dans Latin lookup 37" f f t
EndChar

StartChar: g
Encoding: 103 103 93
Width: 1053
GlyphClass: 2
Flags: MW
LayerCount: 2
Fore
SplineSet
627 385 m 1,0,1
 544 333 544 333 425 333 c 128,-1,2
 306 333 306 333 225 408.5 c 128,-1,3
 144 484 144 484 144 627.5 c 128,-1,4
 144 771 144 771 253 881.5 c 128,-1,5
 362 992 362 992 551 992 c 0,6,7
 662 992 662 992 745 943 c 1,8,-1
 1029 943 l 1,9,-1
 1022 885 l 2,10,11
 1017 846 1017 846 983 840 c 2,12,-1
 851 817 l 1,13,14
 871 768 871 768 871 713.5 c 128,-1,15
 871 659 871 659 859.5 621 c 128,-1,16
 848 583 848 583 830.5 550 c 128,-1,17
 813 517 813 517 792.5 488.5 c 128,-1,18
 772 460 772 460 742 413 c 128,-1,19
 712 366 712 366 712 323.5 c 128,-1,20
 712 281 712 281 722 257.5 c 128,-1,21
 732 234 732 234 748 211 c 128,-1,22
 764 188 764 188 782 164.5 c 128,-1,23
 800 141 800 141 826.5 98 c 128,-1,24
 853 55 853 55 853 -11 c 0,25,26
 853 -150 853 -150 720 -250.5 c 0,27,28
 586 -351 586 -351 390 -351 c 0,29,30
 387 -351 387 -351 385 -351 c 0,31,32
 193 -351 193 -351 84 -284 c 128,-1,33
 -25 -217 -25 -217 -25 -104 c 0,34,35
 -25 10 -25 10 76 84 c 0,36,37
 210 182 210 182 462 182 c 0,38,39
 536 182 536 182 608 172 c 1,40,41
 586 212 586 212 586 264.5 c 128,-1,42
 586 317 586 317 627 385 c 1,0,1
349.5 488 m 128,-1,44
 396 442 396 442 465 442 c 0,45,46
 584 442 584 442 647 520 c 128,-1,47
 710 598 710 598 711 692 c 0,48,49
 710 784 710 784 664 828 c 128,-1,50
 618 872 618 872 548 872 c 0,51,52
 426 872 426 872 364.5 798 c 128,-1,53
 303 724 303 724 303 629 c 128,-1,43
 303 534 303 534 349.5 488 c 128,-1,44
362 -228 m 0,54,55
 597 -228 597 -228 671 -102 c 0,56,57
 693 -64 693 -64 693 -23 c 128,-1,58
 693 18 693 18 674 63 c 1,59,60
 562 80 562 80 508 80 c 128,-1,61
 454 80 454 80 394 77 c 128,-1,62
 334 74 334 74 268 51 c 0,63,64
 141 6 141 6 141 -85 c 0,65,66
 141 -155 141 -155 205 -191.5 c 128,-1,67
 269 -228 269 -228 362 -228 c 0,54,55
EndSplineSet
Substitution2: "sous-table 'ordn' Ordinaux dans Latin lookup 39" g.superior
Substitution2: "sous-table 'ss04' Style 4 lookups34" g.salt
Substitution2: "sous-table 'salt' Alternatives stylistiques lookups28" g.salt
Substitution2: "sous-table 'sups' Exposant lookups25" g.superior
EndChar

StartChar: g.salt
Encoding: 1114144 -1 94
Width: 964
GlyphClass: 2
Flags: MW
LayerCount: 2
Fore
SplineSet
933 977 m 1,0,-1
 820 54 l 2,1,2
 798 -126 798 -126 674 -238 c 0,3,4
 551 -350 551 -350 359 -350 c 0,5,6
 358 -350 l 0,7,8
 164 -350 164 -350 57 -228 c 1,9,-1
 106 -163 l 2,10,11
 125 -138 125 -138 153 -138 c 256,12,13
 170 -138 170 -138 186 -152 c 0,14,15
 271 -226 271 -226 351 -226 c 0,16,17
 488 -226 488 -226 561.5 -150 c 128,-1,18
 635 -74 635 -74 649 45 c 2,19,-1
 662 155 l 1,20,21
 534 11 534 11 387 11 c 0,22,23
 242 11 242 11 166.5 112.5 c 128,-1,24
 91 214 91 214 91 406 c 0,25,26
 91 658 91 658 214 825 c 0,27,28
 338 994 338 994 534 994 c 0,29,30
 618 994 618 994 671 960.5 c 128,-1,31
 724 927 724 927 762 867 c 1,32,-1
 784 942 l 2,33,34
 794 977 794 977 831 977 c 2,35,-1
 933 977 l 1,0,-1
266 407 m 0,36,37
 266 147 266 147 441 147 c 0,38,39
 566 147 566 147 679 293 c 1,40,-1
 735 747 l 1,41,42
 676 863 676 863 550 863 c 0,43,44
 549 862 l 0,45,46
 422 862 422 862 344 741 c 128,-1,47
 266 620 266 620 266 407 c 0,36,37
EndSplineSet
EndChar

StartChar: h
Encoding: 104 104 95
Width: 1053
GlyphClass: 2
Flags: MW
LayerCount: 2
Fore
SplineSet
80 0 m 1,0,-1
 251 1422 l 1,1,-1
 426 1422 l 1,2,-1
 346 759 l 1,3,4
 424 874 424 874 520 933 c 128,-1,5
 616 992 616 992 698 992 c 128,-1,6
 780 992 780 992 829 968 c 0,7,8
 956 905 956 905 956 706 c 0,9,10
 956 667 956 667 950 623 c 2,11,-1
 877 0 l 1,12,-1
 702 0 l 1,13,-1
 775 623 l 2,14,15
 780 660 780 660 780 708 c 0,16,17
 780 848 780 848 652 848 c 0,18,19
 560 848 560 848 466 756 c 0,20,21
 372 664 372 664 317 517 c 1,22,-1
 255 0 l 1,23,-1
 80 0 l 1,0,-1
EndSplineSet
Substitution2: "sous-table 'ordn' Ordinaux dans Latin lookup 39" h.superior
Substitution2: "sous-table 'sups' Exposant lookups25" h.superior
EndChar

StartChar: hcircumflex
Encoding: 293 293 96
Width: 1053
GlyphClass: 2
Flags: MW
LayerCount: 2
Fore
SplineSet
80 0 m 1,0,-1
 251 1422 l 1,1,-1
 426 1422 l 1,2,-1
 346 759 l 1,3,4
 424 874 424 874 520 933 c 128,-1,5
 616 992 616 992 698 992 c 128,-1,6
 780 992 780 992 829 968 c 0,7,8
 956 905 956 905 956 706 c 0,9,10
 956 667 956 667 950 623 c 2,11,-1
 877 0 l 1,12,-1
 702 0 l 1,13,-1
 775 623 l 2,14,15
 780 660 780 660 780 692 c 0,16,17
 780 756 780 756 760 793 c 0,18,19
 731 848 731 848 645.5 848 c 128,-1,20
 560 848 560 848 466 756 c 128,-1,21
 372 664 372 664 317 517 c 1,22,-1
 255 0 l 1,23,-1
 80 0 l 1,0,-1
638 1492 m 1,24,-1
 508 1492 l 2,25,26
 481 1492 481 1492 466 1505 c 2,27,-1
 350 1605 l 1,28,-1
 209 1505 l 2,29,30
 192 1492 192 1492 162 1492 c 2,31,-1
 34 1492 l 1,32,-1
 277 1694 l 1,33,-1
 443 1694 l 1,34,-1
 638 1492 l 1,24,-1
EndSplineSet
EndChar

StartChar: hbar
Encoding: 295 295 97
Width: 1066
GlyphClass: 2
Flags: MW
LayerCount: 2
Fore
SplineSet
73 1214 m 1,0,-1
 227 1214 l 1,1,-1
 253 1422 l 1,2,-1
 428 1422 l 1,3,-1
 403 1214 l 1,4,-1
 652 1214 l 1,5,-1
 642 1150 l 2,6,7
 634 1102 634 1102 582 1102 c 2,8,-1
 389 1102 l 1,9,-1
 345 737 l 1,10,11
 424 852 424 852 522 912 c 0,12,13
 619 971 619 971 701 971 c 0,14,15
 702 970 l 0,16,17
 786 970 786 970 836 946 c 0,18,19
 964 883 964 883 964 683 c 0,20,21
 964 645 964 645 959 602 c 2,22,-1
 887 0 l 1,23,-1
 712 0 l 1,24,-1
 784 602 l 2,25,26
 789 639 789 639 789 669 c 0,27,28
 788 734 788 734 768 772 c 0,29,30
 739 827 739 827 652 827 c 0,31,32
 650 826 l 0,33,34
 562 826 562 826 465.5 731.5 c 128,-1,35
 369 637 369 637 315 488 c 1,36,-1
 256 0 l 1,37,-1
 80 0 l 1,38,-1
 214 1102 l 1,39,-1
 59 1102 l 1,40,-1
 73 1214 l 1,0,-1
EndSplineSet
EndChar

StartChar: i
Encoding: 105 105 98
Width: 470
GlyphClass: 2
Flags: MW
LayerCount: 2
Fore
SplineSet
381 978 m 1,0,-1
 263 0 l 1,1,-1
 90 0 l 1,2,-1
 208 978 l 1,3,-1
 381 978 l 1,0,-1
408.5 1198.5 m 128,-1,5
 371 1161 371 1161 324 1161 c 256,6,7
 278 1161 278 1161 242 1198.5 c 128,-1,8
 206 1236 206 1236 206 1284 c 256,9,10
 206 1334 206 1334 232 1362 c 0,11,12
 278 1409 278 1409 325 1409 c 256,13,14
 372 1409 372 1409 399 1382 c 0,15,16
 446 1335 446 1335 446 1285.5 c 128,-1,4
 446 1236 446 1236 408.5 1198.5 c 128,-1,5
EndSplineSet
Substitution2: "sous-table 'ordn' Ordinaux dans Latin lookup 39" i.superior
Substitution2: "sous-table 'sups' Exposant lookups25" i.superior
Substitution2: "sous-table Substitution simple lookups1" dotlessi
EndChar

StartChar: iogonek
Encoding: 303 303 99
Width: 470
GlyphClass: 2
Flags: MW
LayerCount: 2
Fore
SplineSet
-8 -207 m 0,0,1
 -8 -90 -8 -90 139 0 c 1,2,-1
 90 0 l 1,3,-1
 208 978 l 1,4,-1
 381 978 l 1,5,-1
 263 0 l 1,6,-1
 246 0 l 1,7,8
 166 -44 166 -44 136 -108 c 0,9,10
 124 -132 124 -132 124 -161.5 c 128,-1,11
 124 -191 124 -191 142.5 -209.5 c 128,-1,12
 161 -228 161 -228 186.5 -228 c 128,-1,13
 212 -228 212 -228 226 -224.5 c 128,-1,14
 240 -221 240 -221 249 -216.5 c 128,-1,15
 258 -212 258 -212 263.5 -208.5 c 128,-1,16
 269 -205 269 -205 273 -205 c 0,17,18
 287 -205 287 -205 290 -217 c 2,19,-1
 308 -280 l 1,20,21
 240 -330 240 -330 156 -330 c 128,-1,22
 72 -330 72 -330 32 -296.5 c 128,-1,23
 -8 -263 -8 -263 -8 -207 c 0,0,1
408.5 1198.5 m 128,-1,25
 371 1161 371 1161 324 1161 c 256,26,27
 278 1161 278 1161 242 1198.5 c 128,-1,28
 206 1236 206 1236 206 1284 c 256,29,30
 206 1334 206 1334 232 1362 c 0,31,32
 278 1409 278 1409 325 1409 c 256,33,34
 372 1409 372 1409 399 1382 c 0,35,36
 446 1335 446 1335 446 1285.5 c 128,-1,24
 446 1236 446 1236 408.5 1198.5 c 128,-1,25
EndSplineSet
Substitution2: "sous-table Substitution simple lookups1" glyph498
EndChar

StartChar: dotlessi
Encoding: 305 305 100
Width: 470
GlyphClass: 2
Flags: MW
LayerCount: 2
Fore
SplineSet
381 978 m 1,0,-1
 263 0 l 1,1,-1
 90 0 l 1,2,-1
 208 978 l 1,3,-1
 381 978 l 1,0,-1
EndSplineSet
EndChar

StartChar: ij.salt
Encoding: 1114145 -1 101
Width: 1051
GlyphClass: 2
Flags: MW
LayerCount: 2
Fore
SplineSet
704 103 m 1,0,1
 498 -15 498 -15 439 -15 c 0,2,3
 434 -15 434 -15 429 -14 c 1,4,5
 264 -14 264 -14 194 84 c 0,6,7
 140 160 140 160 140 281 c 0,8,9
 140 316 140 316 144 354 c 2,10,-1
 219 977 l 1,11,-1
 390 977 l 1,12,-1
 314 354 l 1,13,14
 310 325 310 325 310 299 c 0,15,16
 310 120 310 120 493 120 c 0,17,18
 567 120 567 120 617.5 146 c 128,-1,19
 668 172 668 172 721 236 c 1,20,-1
 812 977 l 1,21,-1
 982 977 l 1,22,-1
 862 2 l 2,23,24
 830 -250 830 -250 618 -324 c 0,25,26
 546 -350 546 -350 461 -350 c 128,-1,27
 376 -350 376 -350 327 -331 c 1,28,-1
 351 -240 l 2,29,30
 356 -224 356 -224 368 -222 c 0,31,32
 377 -221 377 -221 388 -221 c 0,33,34
 391 -222 391 -222 395 -222 c 0,35,36
 409 -222 409 -222 430 -222 c 0,37,38
 547 -222 547 -222 612 -169 c 128,-1,39
 677 -116 677 -116 692 2 c 2,40,-1
 704 103 l 1,0,1
936 1408 m 0,41,42
 1024 1408 1024 1408 1052 1340 c 0,43,44
 1060 1320 1060 1320 1061 1294 c 0,45,46
 1061 1242 1061 1242 1018.5 1203.5 c 128,-1,47
 976 1165 976 1165 938 1165 c 0,48,49
 876 1165 876 1165 845 1198 c 0,50,51
 814 1230 814 1230 814 1265 c 0,52,53
 814 1329 814 1329 856 1369 c 0,54,55
 898 1408 898 1408 936 1408 c 0,41,42
346 1408 m 0,56,57
 433 1408 433 1408 463 1340 c 0,58,59
 472 1320 472 1320 472 1294 c 0,60,61
 472 1241 472 1241 430 1203 c 128,-1,62
 388 1165 388 1165 349 1165 c 0,63,64
 287 1165 287 1165 256.5 1197.5 c 128,-1,65
 226 1230 226 1230 226 1266 c 0,66,67
 226 1330 226 1330 267 1369 c 128,-1,68
 308 1408 308 1408 346 1408 c 0,56,57
EndSplineSet
Ligature2: "sous-table 'dlig' Ligatures facultatives  dans Latin lookup 36" i j
EndChar

StartChar: j
Encoding: 106 106 102
Width: 490
GlyphClass: 2
Flags: MW
LayerCount: 2
Fore
SplineSet
390 978 m 1,0,-1
 261 -71 l 2,1,2
 246 -194 246 -194 167.5 -272.5 c 128,-1,3
 89 -351 89 -351 -43 -351 c 0,4,5
 -108 -351 -108 -351 -154 -332 c 1,6,-1
 -135 -238 l 1,7,8
 -130 -219 -130 -219 -116 -219 c 2,9,-1
 -67 -219 l 2,10,11
 7 -219 7 -219 42.5 -184 c 128,-1,12
 78 -149 78 -149 88 -71 c 2,13,-1
 218 978 l 1,14,-1
 390 978 l 1,0,-1
318 1409 m 0,15,16
 410 1409 410 1409 444 1332 c 0,17,18
 454 1309 454 1309 454 1284 c 0,19,20
 454 1234 454 1234 416 1198 c 128,-1,21
 378 1162 378 1162 331 1161 c 256,22,23
 283 1161 283 1161 246 1198 c 128,-1,24
 209 1235 209 1235 209 1285 c 256,25,26
 210 1334 210 1334 236 1362 c 0,27,28
 282 1409 282 1409 318 1409 c 0,15,16
EndSplineSet
Substitution2: "sous-table 'ordn' Ordinaux dans Latin lookup 39" j.superior
Substitution2: "sous-table 'sups' Exposant lookups25" j.superior
Substitution2: "sous-table Substitution simple lookups2" uni0237
EndChar

StartChar: uni0237
Encoding: 567 567 103
Width: 490
GlyphClass: 2
Flags: MW
LayerCount: 2
Fore
SplineSet
423 977 m 1,0,-1
 294 -75 l 1,1,2
 272 -268 272 -268 112 -330 c 0,3,4
 56 -352 56 -352 -8 -352 c 128,-1,5
 -72 -352 -72 -352 -127 -333 c 1,6,-1
 -109 -242 l 1,7,8
 -104 -226 -104 -226 -93 -224 c 0,9,10
 -85 -223 -85 -223 -76 -223 c 0,11,12
 -74 -224 -74 -224 -70 -224 c 0,13,14
 -58 -224 -58 -224 -39 -224 c 0,15,16
 39 -224 39 -224 77 -188.5 c 128,-1,17
 115 -153 115 -153 125 -75 c 2,18,-1
 255 977 l 1,19,-1
 423 977 l 1,0,-1
EndSplineSet
EndChar

StartChar: k
Encoding: 107 107 104
Width: 931
GlyphClass: 2
Flags: MW
LayerCount: 2
Fore
SplineSet
422 1422 m 1,0,-1
 319 586 l 1,1,-1
 349 586 l 2,2,3
 384 586 384 586 409 613 c 2,4,-1
 730 944 l 2,5,6
 762 978 762 978 798 978 c 2,7,-1
 953 978 l 1,8,-1
 579 594 l 2,9,10
 547 560 547 560 518 543 c 1,11,12
 543 526 543 526 569 483 c 2,13,-1
 857 0 l 1,14,-1
 707 0 l 2,15,16
 667 0 667 0 647 33 c 2,17,-1
 402 434 l 2,18,19
 390 454 390 454 377.5 460.5 c 128,-1,20
 365 467 365 467 338 467 c 2,21,-1
 305 467 l 1,22,-1
 248 0 l 1,23,-1
 75 0 l 1,24,-1
 249 1422 l 1,25,-1
 422 1422 l 1,0,-1
EndSplineSet
Substitution2: "sous-table 'ordn' Ordinaux dans Latin lookup 39" k.superior
Substitution2: "sous-table 'sups' Exposant lookups25" k.superior
EndChar

StartChar: kgreenlandic
Encoding: 312 312 105
Width: 931
GlyphClass: 2
Flags: MW
LayerCount: 2
Fore
SplineSet
367 978 m 1,0,-1
 318 586 l 1,1,-1
 347 586 l 2,2,3
 381 586 381 586 406 613 c 2,4,-1
 719 944 l 2,5,6
 751 978 751 978 787 978 c 2,7,-1
 941 978 l 1,8,-1
 580 593 l 2,9,10
 548 559 548 559 518 543 c 1,11,12
 540 524 540 524 565 483 c 1,13,-1
 845 0 l 1,14,-1
 696 0 l 2,15,16
 656 0 656 0 636 33 c 2,17,-1
 398 434 l 2,18,19
 387 454 387 454 374.5 460.5 c 128,-1,20
 362 467 362 467 335 467 c 2,21,-1
 304 467 l 1,22,-1
 246 0 l 1,23,-1
 73 0 l 1,24,-1
 194 978 l 1,25,-1
 367 978 l 1,0,-1
EndSplineSet
EndChar

StartChar: lslash
Encoding: 322 322 106
Width: 507
GlyphClass: 2
Flags: MW
LayerCount: 2
Fore
SplineSet
74 701 m 2,0,1
 74 728 74 728 97 740 c 2,2,-1
 212 798 l 1,3,-1
 287 1422 l 1,4,-1
 460 1422 l 1,5,-1
 394 875 l 1,6,-1
 533 942 l 1,7,-1
 531 842 l 2,8,9
 531 812 531 812 505 800 c 1,10,-1
 377 735 l 1,11,-1
 288 0 l 1,12,-1
 116 0 l 1,13,-1
 195 657 l 1,14,-1
 72 598 l 1,15,-1
 74 701 l 2,0,1
EndSplineSet
EndChar

StartChar: m
Encoding: 109 109 108
Width: 1620
GlyphClass: 2
Flags: MW
LayerCount: 2
Fore
SplineSet
902 725 m 1,0,1
 1052 992 1052 992 1283.5 992 c 128,-1,2
 1515 992 1515 992 1515 717 c 0,3,4
 1515 673 1515 673 1509 623 c 2,5,-1
 1435 0 l 1,6,-1
 1262 0 l 1,7,-1
 1336 623 l 2,8,9
 1342 670 1342 670 1342 692 c 0,10,11
 1342 759 1342 759 1328 792 c 0,12,13
 1303 847 1303 847 1225 847 c 0,14,15
 1080 846 1080 846 968 662 c 0,16,17
 932 602 932 602 903 523 c 1,18,-1
 842 0 l 1,19,-1
 669 0 l 1,20,-1
 742 623 l 2,21,22
 749 676 749 676 749 698 c 0,23,24
 749 762 749 762 736 792 c 0,25,26
 713 847 713 847 635 847 c 0,27,28
 484 847 484 847 372 646 c 0,29,30
 336 582 336 582 307 501 c 1,31,-1
 248 0 l 1,32,-1
 77 0 l 1,33,-1
 194 979 l 1,34,-1
 280 979 l 2,35,36
 339 979 339 979 339 927 c 0,37,38
 339 924 339 924 339 920 c 2,39,-1
 326 738 l 1,40,41
 480 992 480 992 694 992 c 0,42,43
 902 992 902 992 902 725 c 1,0,1
EndSplineSet
Substitution2: "sous-table 'ordn' Ordinaux dans Latin lookup 39" m.superior
Substitution2: "sous-table 'sups' Exposant lookups25" m.superior
EndChar

StartChar: n
Encoding: 110 110 109
Width: 1053
GlyphClass: 2
Flags: MW
LayerCount: 2
Fore
SplineSet
779 694 m 0,0,1
 779 847 779 847 650 847 c 0,2,3
 552 846 552 846 453 747 c 128,-1,4
 354 648 354 648 302 493 c 1,5,-1
 247 0 l 1,6,-1
 72 0 l 1,7,-1
 189 979 l 1,8,-1
 276 979 l 2,9,10
 334 979 334 979 334 927 c 0,11,12
 334 924 334 924 334 920 c 2,13,-1
 321 728 l 1,14,15
 401 859 401 859 503.5 925.5 c 128,-1,16
 606 992 606 992 725 992 c 128,-1,17
 844 992 844 992 906 896 c 0,18,19
 954 822 954 822 954 705 c 0,20,21
 954 667 954 667 949 623 c 2,22,-1
 876 0 l 1,23,-1
 701 0 l 1,24,-1
 774 623 l 2,25,26
 779 662 779 662 779 694 c 0,0,1
EndSplineSet
Substitution2: "sous-table 'ordn' Ordinaux dans Latin lookup 39" uni207F
Substitution2: "sous-table 'sups' Exposant lookups25" uni207F
EndChar

StartChar: eng
Encoding: 331 331 110
Width: 1053
GlyphClass: 2
Flags: MW
LayerCount: 2
Fore
SplineSet
368 836 m 1,0,1
 524 994 524 994 688 994 c 0,2,3
 689 994 689 994 690 994 c 0,4,5
 852 994 852 994 923 892 c 0,6,7
 975 818 975 818 975 697 c 0,8,9
 975 662 975 662 970 623 c 2,10,-1
 894 -2 l 1,11,12
 862 -254 862 -254 681 -328 c 0,13,14
 620 -354 620 -354 542 -354 c 0,15,16
 540 -354 540 -354 539 -354 c 0,17,18
 459 -354 459 -354 383 -318 c 1,19,-1
 411 -245 l 2,20,21
 423 -211 423 -211 454 -211 c 0,22,23
 465 -211 465 -211 484 -218 c 128,-1,24
 503 -225 503 -225 538 -225 c 0,25,26
 696 -225 696 -225 722 -21 c 2,27,-1
 801 623 l 2,28,29
 805 653 805 653 805 680 c 0,30,31
 805 858 805 858 634 858 c 0,32,33
 496 858 496 858 364 720 c 1,34,-1
 277 0 l 1,35,-1
 107 0 l 1,36,-1
 226 977 l 1,37,-1
 327 977 l 2,38,39
 366 977 366 977 366 945 c 0,40,41
 366 943 366 943 366 942 c 1,42,-1
 368 836 l 1,0,1
EndSplineSet
EndChar

StartChar: o
Encoding: 111 111 111
Width: 1051
GlyphClass: 2
Flags: MW
LayerCount: 2
Fore
SplineSet
467 123 m 0,0,1
 468 123 468 123 469 123 c 0,2,3
 618 123 618 123 714 258 c 0,4,5
 809 392 809 392 809 577 c 0,6,7
 809 718 809 718 748 787 c 0,8,9
 688 856 688 856 592 856 c 0,10,11
 423 856 423 856 327.5 721 c 128,-1,12
 232 586 232 586 232 400 c 0,13,14
 232 263 232 263 292.5 193 c 128,-1,15
 353 123 353 123 467 123 c 0,0,1
662.5 33.5 m 128,-1,17
 565 -14 565 -14 465 -14 c 0,18,19
 273 -14 273 -14 164.5 96.5 c 128,-1,20
 56 207 56 207 56 399 c 0,21,22
 56 646 56 646 209.5 819 c 128,-1,23
 363 992 363 992 588 993 c 0,24,25
 766 992 766 992 876 882 c 0,26,27
 985 773 985 773 985 584 c 0,28,29
 985 582 985 582 985 580.5 c 128,-1,30
 985 579 985 579 985 578 c 0,31,32
 985 335 985 335 832 162 c 0,33,16
 760 81 760 81 662.5 33.5 c 128,-1,17
EndSplineSet
Substitution2: "sous-table 'ordn' Ordinaux dans Latin lookup 39" o.superior
Substitution2: "sous-table 'sups' Exposant lookups25" o.superior
EndChar

StartChar: oslash
Encoding: 248 248 112
Width: 1084
GlyphClass: 2
Flags: MW
LayerCount: 2
Fore
SplineSet
922 857 m 1,0,1
 1012 748 1012 748 1012 579 c 0,2,3
 1012 334 1012 334 855 160 c 128,-1,4
 698 -14 698 -14 467 -14 c 0,5,6
 328 -14 328 -14 229 50 c 1,7,-1
 188 -1 l 1,8,9
 150 -54 150 -54 80 -54 c 2,10,-1
 13 -54 l 1,11,-1
 150 118 l 1,12,13
 58 226 58 226 58 401 c 0,14,15
 58 648 58 648 214 821 c 0,16,17
 369 993 369 993 600 993 c 0,18,19
 601 993 601 993 603 993 c 0,20,21
 740 993 740 993 842 928 c 1,22,-1
 880 976 l 2,23,24
 912 1017 912 1017 929.5 1021 c 128,-1,25
 947 1025 947 1025 964 1025 c 2,26,-1
 1052 1025 l 1,27,-1
 922 857 l 1,0,1
250.5 585 m 128,-1,29
 224 500 224 500 224 402.5 c 128,-1,30
 224 305 224 305 260 235 c 1,31,-1
 741 823 l 1,32,33
 679 867 679 867 593.5 867 c 128,-1,34
 508 867 508 867 441 831 c 128,-1,35
 374 795 374 795 325.5 732.5 c 128,-1,28
 277 670 277 670 250.5 585 c 128,-1,29
330 155 m 1,36,37
 390 112 390 112 476 112 c 0,38,39
 643 112 643 112 745 246.5 c 128,-1,40
 847 381 847 381 847 578 c 0,41,42
 847 671 847 671 811 741 c 1,43,-1
 330 155 l 1,36,37
EndSplineSet
EndChar

StartChar: oe
Encoding: 339 339 113
Width: 1668
GlyphClass: 2
Flags: MW
LayerCount: 2
Fore
SplineSet
914 795 m 1,0,1
 1055 992 1055 992 1312 992 c 0,2,3
 1451 992 1451 992 1534 927.5 c 128,-1,4
 1617 863 1617 863 1617 758 c 0,5,6
 1617 628 1617 628 1482 554 c 0,7,8
 1321 466 1321 466 940 430 c 1,9,10
 940 276 940 276 1009 200 c 128,-1,11
 1078 124 1078 124 1204 124 c 128,-1,12
 1330 124 1330 124 1426 188 c 0,13,14
 1451 204 1451 204 1484.5 227.5 c 128,-1,15
 1518 251 1518 251 1539 251 c 128,-1,16
 1560 251 1560 251 1574 234 c 2,17,-1
 1618 181 l 1,18,19
 1461 30 1461 30 1295 -2 c 0,20,21
 1236 -14 1236 -14 1168 -14 c 0,22,23
 1052 -14 1052 -14 964.5 44 c 128,-1,24
 877 102 877 102 835 219 c 1,25,26
 684 -14 684 -14 400 -14 c 0,27,28
 230 -14 230 -14 138 90 c 0,29,30
 46 194 46 194 46 350 c 0,31,32
 46 650 46 650 204.5 821 c 128,-1,33
 363 992 363 992 601 992 c 0,34,35
 719 992 719 992 798 940 c 128,-1,36
 877 888 877 888 914 795 c 1,0,1
336 138 m 0,37,38
 377 118 377 118 448 118 c 0,39,40
 450 118 450 118 452 118 c 0,41,42
 607 119 607 119 699.5 242.5 c 128,-1,43
 792 366 792 366 804 574 c 0,44,45
 805 592 805 592 806 609 c 0,46,47
 806 786 806 786 689 840 c 0,48,49
 646 860 646 860 574 860 c 128,-1,50
 502 860 502 860 434 825 c 128,-1,51
 366 790 366 790 317 724 c 0,52,53
 218 589 218 589 218 360 c 0,54,55
 218 193 218 193 336 138 c 0,37,38
1065 781 m 128,-1,57
 974 694 974 694 948 540 c 1,58,59
 1374 586 1374 586 1450 692 c 0,60,61
 1472 722 1472 722 1472 752 c 0,62,63
 1472 774 1472 774 1460 797 c 0,64,65
 1423 868 1423 868 1289.5 868 c 128,-1,56
 1156 868 1156 868 1065 781 c 128,-1,57
EndSplineSet
EndChar

StartChar: p
Encoding: 112 112 114
Width: 1053
GlyphClass: 2
Flags: MW
LayerCount: 2
Fore
SplineSet
503 -14 m 0,0,1
 348 -14 348 -14 256 97 c 1,2,-1
 204 -330 l 1,3,-1
 33 -330 l 1,4,-1
 192 979 l 1,5,-1
 280 979 l 2,6,7
 338 979 338 979 338 927 c 0,8,9
 338 924 338 924 338 920 c 2,10,-1
 322 709 l 1,11,12
 446 913 446 913 608 972 c 0,13,14
 663 992 663 992 720 992 c 0,15,16
 854 992 854 992 927 900.5 c 128,-1,17
 1000 809 1000 809 1000 632 c 0,18,19
 1000 386 1000 386 858 190 c 0,20,21
 766 63 766 63 638 12 c 0,22,23
 574 -14 574 -14 503 -14 c 0,0,1
270 217 m 1,24,25
 342 122 342 122 486 122 c 128,-1,26
 630 122 630 122 728 277.5 c 128,-1,27
 826 433 826 433 826 616 c 0,28,29
 826 732 826 732 781.5 792 c 128,-1,30
 737 852 737 852 646.5 852 c 128,-1,31
 556 852 556 852 457 742.5 c 128,-1,32
 358 633 358 633 300 462 c 1,33,-1
 270 217 l 1,24,25
EndSplineSet
Substitution2: "sous-table 'ordn' Ordinaux dans Latin lookup 39" p.superior
Substitution2: "sous-table 'sups' Exposant lookups25" p.superior
EndChar

StartChar: thorn
Encoding: 254 254 115
Width: 1053
GlyphClass: 2
Flags: MW
LayerCount: 2
Fore
SplineSet
508 -14 m 0,0,1
 353 -14 353 -14 263 97 c 1,2,-1
 218 -268 l 2,3,4
 215 -293 215 -293 196 -311.5 c 128,-1,5
 177 -330 177 -330 147 -330 c 2,6,-1
 40 -330 l 1,7,-1
 253 1422 l 1,8,-1
 426 1422 l 1,9,-1
 340 727 l 1,10,11
 460 916 460 916 616 973 c 0,12,13
 668 992 668 992 724 992 c 0,14,15
 856 992 856 992 928.5 901 c 128,-1,16
 1001 810 1001 810 1001 633 c 0,17,18
 1000 386 1000 386 860 190 c 0,19,20
 770 64 770 64 642 12 c 0,21,22
 578 -14 578 -14 508 -14 c 0,0,1
278 217 m 1,23,24
 348 122 348 122 490 122 c 128,-1,25
 632 122 632 122 730 277 c 0,26,27
 827 430 827 430 827 612 c 0,28,29
 827 732 827 732 783 792 c 0,30,31
 740 852 740 852 652 852 c 128,-1,32
 564 852 564 852 466 744 c 128,-1,33
 368 636 368 636 308 466 c 1,34,-1
 278 217 l 1,23,24
EndSplineSet
EndChar

StartChar: q
Encoding: 113 113 116
Width: 1053
GlyphClass: 2
Flags: MW
LayerCount: 2
Fore
SplineSet
703 245 m 1,0,1
 546 -14 546 -14 324 -14 c 0,2,3
 198 -14 198 -14 123 77 c 128,-1,4
 48 168 48 168 48 338 c 128,-1,5
 48 508 48 508 138 660 c 0,6,7
 275 892 275 892 532 966 c 0,8,9
 617 990 617 990 738 990 c 0,10,11
 739 990 739 990 741 991 c 0,12,13
 860 991 860 991 963 946 c 1,14,-1
 806 -330 l 1,15,-1
 696 -330 l 2,16,17
 660 -330 660 -330 648 -308 c 0,18,19
 639 -291 639 -291 638 -270 c 0,20,21
 638 -264 638 -264 639 -257 c 2,22,-1
 703 245 l 1,0,1
781 856 m 1,23,24
 735 864 735 864 663 864 c 128,-1,25
 591 864 591 864 507 823 c 128,-1,26
 423 782 423 782 360 714 c 0,27,28
 224 566 224 566 224 367 c 0,29,30
 224 132 224 132 393 132 c 0,31,32
 494 132 494 132 586.5 240.5 c 128,-1,33
 679 349 679 349 739 524 c 1,34,-1
 781 856 l 1,23,24
EndSplineSet
Substitution2: "sous-table 'ordn' Ordinaux dans Latin lookup 39" q.superior
Substitution2: "sous-table 'sups' Exposant lookups25" q.superior
EndChar

StartChar: r
Encoding: 114 114 117
Width: 702
GlyphClass: 2
Flags: MW
LayerCount: 2
Fore
SplineSet
320 699 m 1,0,1
 457 986 457 986 637 986 c 0,2,3
 678 986 678 986 720 969 c 1,4,-1
 689 800 l 1,5,6
 641 819 641 819 581 819 c 128,-1,7
 521 819 521 819 459 764 c 0,8,9
 360 677 360 677 297 447 c 1,10,-1
 244 0 l 1,11,-1
 72 0 l 1,12,-1
 190 979 l 1,13,-1
 277 979 l 2,14,15
 335 979 335 979 335 927 c 0,16,17
 335 924 335 924 335 920 c 2,18,-1
 320 699 l 1,0,1
EndSplineSet
Substitution2: "sous-table 'ordn' Ordinaux dans Latin lookup 39" r.superior
Substitution2: "sous-table 'sups' Exposant lookups25" r.superior
EndChar

StartChar: s
Encoding: 115 115 118
Width: 797
GlyphClass: 2
Flags: MW
LayerCount: 2
Fore
SplineSet
734 820 m 2,0,1
 718 798 718 798 700.5 798 c 128,-1,2
 683 798 683 798 666.5 809 c 128,-1,3
 650 820 650 820 604 843 c 128,-1,4
 558 866 558 866 496 866 c 0,5,6
 494 866 494 866 493 867 c 0,7,8
 390 867 390 867 331 822 c 0,9,10
 272 777 272 777 272 714 c 0,11,12
 272 632 272 632 410 570 c 0,13,14
 449 552 449 552 490 534 c 0,15,16
 593 490 593 490 650.5 445 c 128,-1,17
 708 400 708 400 708 328 c 0,18,19
 708 183 708 183 597 84.5 c 128,-1,20
 486 -14 486 -14 303 -14 c 0,21,22
 302 -14 302 -14 301 -15 c 0,23,24
 119 -15 119 -15 12 104 c 1,25,-1
 54 170 l 2,26,27
 71 197 71 197 93.5 197 c 128,-1,28
 116 197 116 197 132 182.5 c 128,-1,29
 148 168 148 168 174 152 c 0,30,31
 239 108 239 108 310 108 c 0,32,33
 312 108 l 0,34,35
 434 109 434 109 493 159.5 c 128,-1,36
 552 210 552 210 552 272 c 128,-1,37
 552 334 552 334 520 365 c 0,38,39
 472 412 472 412 334 461 c 0,40,41
 278 482 278 482 230 508 c 0,42,43
 118 569 118 569 117 675 c 0,44,45
 118 804 118 804 221.5 898 c 128,-1,46
 325 992 325 992 496.5 992 c 128,-1,47
 668 992 668 992 777 883 c 1,48,-1
 734 820 l 2,0,1
EndSplineSet
Substitution2: "sous-table 'ordn' Ordinaux dans Latin lookup 39" s.superior
Substitution2: "sous-table 'sups' Exposant lookups25" s.superior
EndChar

StartChar: scedilla
Encoding: 351 351 119
Width: 797
GlyphClass: 2
Flags: MW
LayerCount: 2
Fore
SplineSet
332 -69 m 1,0,1
 467 -102 467 -102 467 -191 c 0,2,3
 466 -258 466 -258 407 -299 c 0,4,5
 349 -340 349 -340 268 -340 c 0,6,7
 267 -340 267 -340 266 -340 c 0,8,9
 184 -340 184 -340 126 -308 c 1,10,-1
 149 -256 l 2,11,12
 157 -240 157 -240 167.5 -240 c 128,-1,13
 178 -240 178 -240 184 -244 c 128,-1,14
 190 -248 190 -248 206 -256 c 0,15,16
 222 -264 222 -264 253 -264 c 0,17,18
 255 -264 255 -264 257 -264 c 0,19,20
 291 -264 291 -264 312 -244.5 c 128,-1,21
 333 -225 333 -225 333 -194.5 c 128,-1,22
 333 -164 333 -164 299 -150 c 128,-1,23
 265 -136 265 -136 201 -127 c 1,24,-1
 247 -11 l 1,25,26
 97 9 97 9 12 104 c 1,27,-1
 54 170 l 2,28,29
 71 197 71 197 93.5 197 c 128,-1,30
 116 197 116 197 132 182.5 c 128,-1,31
 148 168 148 168 174 152 c 0,32,33
 239 108 239 108 310 108 c 0,34,-1
 312 108 l 0,35,36
 434 109 434 109 493 159.5 c 128,-1,37
 552 210 552 210 552 272 c 128,-1,38
 552 334 552 334 520 365 c 0,39,40
 472 412 472 412 334 461 c 0,41,42
 278 482 278 482 230 508 c 0,43,44
 118 569 118 569 117 675 c 0,45,46
 118 804 118 804 221.5 898 c 128,-1,47
 325 992 325 992 496.5 992 c 128,-1,48
 668 992 668 992 777 883 c 1,49,-1
 734 820 l 2,50,51
 718 798 718 798 700.5 798 c 128,-1,52
 683 798 683 798 666.5 809 c 128,-1,53
 650 820 650 820 604 843 c 128,-1,54
 558 866 558 866 496 866 c 0,55,56
 494 866 494 866 493 867 c 0,57,58
 390 867 390 867 331 822 c 128,-1,59
 272 777 272 777 272 714 c 0,60,61
 272 632 272 632 410 570 c 0,62,63
 449 552 449 552 490 534 c 0,64,65
 593 490 593 490 650.5 445 c 128,-1,66
 708 400 708 400 708 330 c 0,67,68
 708 194 708 194 610.5 96.5 c 128,-1,69
 513 -1 513 -1 354 -13 c 1,70,-1
 332 -69 l 1,0,1
EndSplineSet
Substitution2: "sous-table 'salt' Alternatives stylistiques dans Latin lookup 8" uni0219
EndChar

StartChar: s_t.dlig
Encoding: 1114146 -1 120
Width: 1445
GlyphClass: 3
Flags: MW
LayerCount: 2
Fore
SplineSet
1362 73 m 1,0,1
 1261 -15 1261 -15 1141 -15 c 0,2,3
 928 -15 928 -15 928 180 c 0,4,5
 928 205 928 205 932 234 c 2,6,-1
 1003 820 l 1,7,-1
 898 820 l 2,8,9
 884 820 884 820 874 829 c 0,10,11
 866 836 866 836 867 851 c 0,12,13
 867 854 867 854 867 857 c 2,14,-1
 874 924 l 1,15,-1
 1024 943 l 1,16,-1
 1091 1161 l 2,17,18
 1109 1222 1109 1222 1109 1271 c 0,19,20
 1108 1326 1108 1326 1086 1364 c 0,21,22
 1043 1437 1043 1437 925 1437 c 0,23,-1
 924 1436 l 0,24,25
 804 1436 804 1436 724 1356 c 0,26,27
 642 1276 642 1276 634 1158 c 0,28,29
 634 1152 634 1152 634 1146 c 128,-1,30
 634 1140 634 1140 634 1133 c 0,31,32
 634 1029 634 1029 698 937 c 1,33,34
 728 921 728 921 768 883 c 1,35,-1
 725 820 l 2,36,37
 709 798 709 798 691.5 798 c 128,-1,38
 674 798 674 798 657 809 c 128,-1,39
 640 820 640 820 594 843 c 128,-1,40
 548 866 548 866 487 866 c 0,41,42
 485 866 485 866 483 867 c 0,43,44
 381 867 381 867 323 822 c 0,45,46
 264 777 264 777 263 714 c 0,47,48
 263 632 263 632 401 570 c 0,49,50
 440 552 440 552 481 534 c 0,51,52
 584 490 584 490 641.5 445 c 128,-1,53
 699 400 699 400 699 329 c 0,54,55
 699 183 699 183 588.5 84.5 c 128,-1,56
 478 -14 478 -14 294 -14 c 0,57,58
 293 -14 293 -14 293 -15 c 0,59,60
 111 -15 111 -15 3 104 c 1,61,-1
 45 170 l 2,62,63
 62 197 62 197 85 197 c 0,64,65
 108 196 108 196 124 182 c 0,66,67
 206 108 206 108 289 108 c 0,68,-1
 290 108 l 0,69,70
 424 109 424 109 483 160 c 0,71,72
 543 211 543 211 543 274 c 0,73,74
 543 335 543 335 511 365 c 0,75,76
 462 412 462 412 365 447 c 128,-1,77
 268 482 268 482 220 508 c 0,78,79
 108 569 108 569 108 686.5 c 128,-1,80
 108 804 108 804 211.5 898 c 128,-1,81
 315 992 315 992 482 992 c 0,82,83
 536 992 536 992 579 982 c 1,84,85
 550 1058 550 1058 550 1131 c 0,86,87
 550 1234 550 1234 608 1332 c 0,88,89
 674 1440 674 1440 798 1485 c 0,90,91
 862 1508 862 1508 942 1508 c 0,92,93
 1094 1508 1094 1508 1165 1420 c 0,94,95
 1223 1348 1223 1348 1223 1244 c 0,96,97
 1223 1221 1223 1221 1220 1196 c 1,98,-1
 1188 943 l 1,99,-1
 1444 943 l 1,100,-1
 1430 820 l 1,101,-1
 1173 820 l 1,102,-1
 1103 245 l 2,103,104
 1101 229 1101 229 1101 216 c 0,105,106
 1101 176 1101 176 1118 153 c 0,107,108
 1141 122 1141 122 1174.5 122 c 128,-1,109
 1208 122 1208 122 1227 130 c 0,110,111
 1252 140 1252 140 1272 156 c 0,112,113
 1291 172 1291 172 1301 172 c 0,114,115
 1302 172 l 0,116,117
 1312 172 1312 172 1321 154 c 2,118,-1
 1362 73 l 1,0,1
EndSplineSet
Ligature2: "sous-table 'dlig' Ligatures facultatives  dans Latin lookup 36" s t
EndChar

StartChar: glyph121
Encoding: 1114147 -1 121
Width: 1445
GlyphClass: 3
Flags: MW
LayerCount: 2
Fore
SplineSet
339 -69 m 1,0,1
 474 -102 474 -102 474 -191 c 0,2,3
 474 -258 474 -258 415 -299 c 0,4,5
 357 -340 357 -340 275 -340 c 0,6,7
 274 -340 l 0,8,9
 192 -340 192 -340 133 -308 c 1,10,-1
 156 -256 l 2,11,12
 164 -240 164 -240 175 -240 c 128,-1,13
 186 -240 186 -240 192 -244 c 128,-1,14
 198 -248 198 -248 214 -256 c 0,15,16
 229 -264 229 -264 260 -264 c 0,17,18
 262 -264 262 -264 264 -264 c 0,19,20
 298 -264 298 -264 319 -244.5 c 128,-1,21
 340 -225 340 -225 340 -194.5 c 128,-1,22
 340 -164 340 -164 306 -150 c 128,-1,23
 272 -136 272 -136 208 -127 c 1,24,-1
 253 -13 l 1,25,26
 91 3 91 3 1 104 c 1,27,-1
 43 170 l 2,28,29
 60 197 60 197 83 197 c 0,30,31
 106 196 106 196 122 182 c 0,32,33
 204 108 204 108 287 108 c 0,34,-1
 288 108 l 0,35,36
 422 109 422 109 481 160 c 0,37,38
 541 211 541 211 541 274 c 0,39,40
 541 335 541 335 509 365 c 0,41,42
 460 412 460 412 363 447 c 128,-1,43
 266 482 266 482 218 508 c 0,44,45
 106 569 106 569 106 686.5 c 128,-1,46
 106 804 106 804 209.5 898 c 128,-1,47
 313 992 313 992 480 992 c 0,48,49
 529 992 529 992 573 983 c 1,50,51
 549 1050 549 1050 549 1124 c 0,52,53
 549 1287 549 1287 649 1398 c 0,54,55
 748 1509 748 1509 918 1509 c 0,56,57
 1088 1508 1088 1508 1159 1416 c 0,58,59
 1218 1340 1218 1340 1218 1236 c 0,60,61
 1218 1214 1218 1214 1215 1191 c 1,62,-1
 1186 958 l 1,63,-1
 1442 958 l 1,64,-1
 1426 835 l 1,65,-1
 1171 835 l 1,66,-1
 1099 245 l 2,67,68
 1097 229 1097 229 1097 215 c 0,69,70
 1098 175 1098 175 1114 153 c 0,71,72
 1136 123 1136 123 1168.5 123 c 128,-1,73
 1201 123 1201 123 1219.5 130.5 c 128,-1,74
 1238 138 1238 138 1251.5 146.5 c 128,-1,75
 1265 155 1265 155 1275 162.5 c 128,-1,76
 1285 170 1285 170 1295.5 170 c 128,-1,77
 1306 170 1306 170 1313 154 c 2,78,-1
 1354 73 l 1,79,80
 1253 -15 1253 -15 1134 -15 c 0,81,82
 924 -15 924 -15 924 180 c 0,83,84
 924 205 924 205 928 234 c 2,85,-1
 1001 835 l 1,86,-1
 897 835 l 2,87,88
 882 835 882 835 873 845 c 0,89,90
 866 853 866 853 866 867 c 0,91,92
 866 870 866 870 866 873 c 2,93,-1
 874 940 l 1,94,-1
 1028 960 l 1,95,96
 1101 1147 1101 1147 1101 1259 c 0,97,98
 1101 1330 1101 1330 1072 1372 c 0,99,100
 1026 1436 1026 1436 938 1436 c 0,101,102
 786 1436 786 1436 708.5 1348 c 128,-1,103
 631 1260 631 1260 631 1146.5 c 128,-1,104
 631 1033 631 1033 691 940 c 1,105,106
 733 916 733 916 766 883 c 1,107,-1
 723 820 l 2,108,109
 707 798 707 798 689.5 798 c 128,-1,110
 672 798 672 798 655 809 c 128,-1,111
 638 820 638 820 592 843 c 128,-1,112
 546 866 546 866 485 866 c 0,113,114
 483 866 483 866 481 867 c 0,115,116
 379 867 379 867 321 822 c 0,117,118
 262 777 262 777 261 714 c 0,119,120
 261 632 261 632 399 570 c 0,121,122
 438 552 438 552 479 534 c 0,123,124
 582 490 582 490 639.5 445 c 128,-1,125
 697 400 697 400 697 331 c 0,126,127
 697 197 697 197 605.5 101.5 c 128,-1,128
 514 6 514 6 362 -11 c 1,129,-1
 339 -69 l 1,0,1
EndSplineSet
EndChar

StartChar: germandbls
Encoding: 223 223 122
Width: 1080
GlyphClass: 2
Flags: MW
LayerCount: 2
Fore
SplineSet
958 1317.5 m 128,-1,1
 1043 1232 1043 1232 1043 1126 c 0,2,3
 1042 973 1042 973 888 874 c 0,4,5
 790 811 790 811 762 778 c 128,-1,6
 734 745 734 745 734 710 c 128,-1,7
 734 675 734 675 755 654.5 c 128,-1,8
 776 634 776 634 808 616.5 c 128,-1,9
 840 599 840 599 877 580 c 0,10,11
 1020 507 1020 507 1020 343.5 c 128,-1,12
 1020 180 1020 180 910 82.5 c 128,-1,13
 800 -15 800 -15 638.5 -15 c 128,-1,14
 477 -15 477 -15 368 103 c 1,15,-1
 416 168 l 1,16,17
 432 193 432 193 456 193 c 0,18,19
 480 192 480 192 497 178 c 0,20,21
 584 104 584 104 647 104 c 0,22,-1
 648 104 l 0,23,24
 752 105 752 105 805 160.5 c 128,-1,25
 858 216 858 216 858 279 c 128,-1,26
 858 342 858 342 836 370 c 0,27,28
 801 413 801 413 733 441.5 c 128,-1,29
 665 470 665 470 631 496 c 0,30,31
 552 555 552 555 552 659 c 128,-1,32
 552 763 552 763 636 839 c 0,33,34
 672 872 672 872 715 899.5 c 128,-1,35
 758 927 758 927 794 958 c 0,36,37
 879 1030 879 1030 879 1128 c 0,38,39
 879 1224 879 1224 778 1264 c 0,40,41
 742 1278 742 1278 686 1278 c 0,42,43
 570 1278 570 1278 481.5 1160 c 128,-1,44
 393 1042 393 1042 373 873 c 2,45,-1
 269 32 l 1,46,-1
 222 -166 l 1,47,48
 206 -240 206 -240 133 -240 c 2,49,-1
 64 -240 l 1,50,-1
 195 831 l 1,51,-1
 88 845 l 2,52,53
 47 851 47 851 47 880 c 0,54,55
 47 884 47 884 48 888 c 1,56,-1
 56 958 l 1,57,-1
 216 958 l 1,58,59
 264 1144 264 1144 401 1273.5 c 128,-1,60
 538 1403 538 1403 705.5 1403 c 128,-1,0
 873 1403 873 1403 958 1317.5 c 128,-1,1
EndSplineSet
EndChar

StartChar: longs
Encoding: 383 383 123
Width: 497
GlyphClass: 2
Flags: MW
LayerCount: 2
Fore
SplineSet
269 32 m 1,0,-1
 222 -166 l 1,1,2
 206 -240 206 -240 133 -240 c 2,3,-1
 65 -240 l 1,4,-1
 196 831 l 1,5,-1
 88 845 l 1,6,7
 47 851 47 851 47 880 c 0,8,9
 47 884 47 884 48 888 c 1,10,-1
 56 958 l 1,11,-1
 211 958 l 1,12,-1
 223 1053 l 2,13,14
 243 1218 243 1218 339.5 1310.5 c 128,-1,15
 436 1403 436 1403 586 1403 c 0,16,17
 642 1403 642 1403 698 1383 c 1,18,-1
 682 1296 l 2,19,20
 678 1277 678 1277 641 1277 c 0,21,22
 636 1277 636 1277 630 1277 c 0,23,24
 616 1278 616 1278 586 1278 c 0,25,26
 513 1278 513 1278 461.5 1224 c 128,-1,27
 410 1170 410 1170 394 1048 c 2,28,-1
 269 32 l 1,0,-1
EndSplineSet
EndChar

StartChar: t
Encoding: 116 116 124
Width: 686
GlyphClass: 2
Flags: MW
LayerCount: 2
Fore
SplineSet
605 73 m 1,0,1
 504 -15 504 -15 370 -15 c 0,2,3
 273 -15 273 -15 217 37 c 128,-1,4
 161 89 161 89 161 192 c 0,5,6
 161 240 161 240 175 346 c 2,7,-1
 235 832 l 1,8,-1
 122 832 l 2,9,10
 108 832 108 832 99 842 c 0,11,12
 92 850 92 850 92 864 c 0,13,14
 92 867 92 867 92 871 c 2,15,-1
 100 941 l 1,16,-1
 256 962 l 1,17,-1
 330 1262 l 1,18,19
 341 1295 341 1295 371 1295 c 2,20,-1
 464 1295 l 1,21,-1
 423 960 l 1,22,-1
 689 960 l 1,23,-1
 674 832 l 1,24,-1
 407 832 l 1,25,-1
 348 355 l 2,26,27
 333 238 333 238 333 223 c 0,28,29
 333 128 333 128 423 128 c 0,30,31
 473 128 473 128 529 167 c 0,32,33
 539 174 539 174 549.5 174 c 128,-1,34
 560 174 560 174 567 157 c 2,35,-1
 605 73 l 1,0,1
EndSplineSet
Substitution2: "sous-table 'ordn' Ordinaux dans Latin lookup 39" t.superior
Substitution2: "sous-table 'sups' Exposant lookups25" t.superior
EndChar

StartChar: tbar
Encoding: 359 359 126
Width: 700
GlyphClass: 2
Flags: MW
LayerCount: 2
Fore
SplineSet
589 73 m 1,0,1
 488 -15 488 -15 354 -15 c 0,2,3
 257 -15 257 -15 201 37 c 128,-1,4
 145 89 145 89 145 192 c 0,5,6
 145 240 145 240 159 346 c 2,7,-1
 185 557 l 1,8,-1
 83 557 l 2,9,10
 48 557 48 557 48 590 c 0,11,12
 48 593 48 593 48 597 c 2,13,-1
 56 668 l 1,14,-1
 198 668 l 1,15,-1
 219 832 l 1,16,-1
 106 832 l 2,17,18
 92 832 92 832 83 842 c 0,19,20
 76 850 76 850 76 864 c 0,21,22
 76 867 76 867 76 871 c 2,23,-1
 84 941 l 1,24,-1
 240 962 l 1,25,-1
 314 1262 l 1,26,27
 325 1295 325 1295 355 1295 c 2,28,-1
 448 1295 l 1,29,-1
 407 960 l 1,30,-1
 673 960 l 1,31,-1
 658 832 l 1,32,-1
 391 832 l 1,33,-1
 370 668 l 1,34,-1
 653 668 l 1,35,-1
 640 557 l 1,36,-1
 357 557 l 1,37,-1
 332 355 l 2,38,39
 317 238 317 238 317 223 c 0,40,41
 317 128 317 128 407 128 c 0,42,43
 457 128 457 128 513 167 c 0,44,45
 523 174 523 174 533.5 174 c 128,-1,46
 544 174 544 174 551 157 c 2,47,-1
 589 73 l 1,0,1
EndSplineSet
EndChar

StartChar: t_f.liga
Encoding: 1114148 -1 127
Width: 1254
GlyphClass: 3
Flags: MW
LayerCount: 2
Fore
SplineSet
617 73 m 1,0,1
 516 -15 516 -15 392 -15 c 0,2,3
 175 -15 175 -15 175 181 c 0,4,5
 175 206 175 206 178 234 c 2,6,-1
 251 835 l 1,7,-1
 142 835 l 2,8,9
 127 835 127 835 118 845 c 0,10,11
 111 853 111 853 111 867 c 0,12,13
 111 870 111 870 111 873 c 2,14,-1
 119 940 l 1,15,-1
 272 959 l 1,16,-1
 350 1263 l 2,17,18
 359 1295 359 1295 392 1295 c 2,19,-1
 478 1295 l 1,20,-1
 436 958 l 1,21,-1
 890 958 l 1,22,-1
 902 1054 l 2,23,24
 922 1220 922 1220 1019.5 1311 c 128,-1,25
 1117 1402 1117 1402 1266 1403 c 0,26,27
 1325 1403 1325 1403 1380 1384 c 1,28,-1
 1365 1299 l 2,29,30
 1361 1276 1361 1276 1338.5 1274.5 c 128,-1,31
 1316 1273 1316 1273 1276 1273 c 0,32,33
 1094 1273 1094 1273 1066 1048 c 1,34,-1
 1054 958 l 1,35,-1
 1320 958 l 1,36,-1
 1305 835 l 1,37,-1
 1045 835 l 1,38,-1
 942 0 l 1,39,-1
 773 0 l 1,40,-1
 875 835 l 1,41,-1
 421 835 l 1,42,-1
 349 245 l 2,43,44
 347 230 347 230 347 216 c 0,45,46
 348 175 348 175 366 153 c 0,47,48
 390 123 390 123 424.5 123 c 128,-1,49
 459 123 459 123 478.5 130.5 c 128,-1,50
 498 138 498 138 512 146.5 c 128,-1,51
 526 155 526 155 536 162.5 c 128,-1,52
 546 170 546 170 554 170 c 256,53,54
 566 170 566 170 576 154 c 1,55,-1
 617 73 l 1,0,1
EndSplineSet
Ligature2: "sous-table 'liga' Ligatures standard dans Latin lookup 37" t f
EndChar

StartChar: t_iogonek.liga
Encoding: 1114149 -1 128
Width: 1141
GlyphClass: 3
Flags: MW
LayerCount: 2
Fore
SplineSet
615 73 m 1,0,1
 514 -15 514 -15 391 -15 c 0,2,3
 174 -15 174 -15 174 184 c 0,4,5
 174 208 174 208 177 234 c 1,6,-1
 251 835 l 1,7,-1
 141 835 l 2,8,9
 127 835 127 835 118 845 c 0,10,11
 111 853 111 853 111 867 c 0,12,13
 111 870 111 870 111 873 c 2,14,-1
 119 940 l 1,15,-1
 272 959 l 1,16,-1
 350 1263 l 2,17,18
 359 1295 359 1295 392 1295 c 2,19,-1
 478 1295 l 1,20,-1
 436 958 l 1,21,-1
 1079 958 l 1,22,-1
 962 0 l 1,23,-1
 947 0 l 1,24,25
 865 -42 865 -42 833 -108 c 0,26,27
 821 -132 821 -132 821 -162 c 128,-1,28
 821 -192 821 -192 840.5 -210 c 128,-1,29
 860 -228 860 -228 887 -228 c 128,-1,30
 914 -228 914 -228 928 -224.5 c 128,-1,31
 942 -221 942 -221 951.5 -216.5 c 128,-1,32
 961 -212 961 -212 967 -208.5 c 128,-1,33
 973 -205 973 -205 978 -205 c 0,34,35
 991 -205 991 -205 994 -217 c 2,36,-1
 1014 -279 l 1,37,38
 944 -329 944 -329 857.5 -329 c 128,-1,39
 771 -329 771 -329 729.5 -296 c 128,-1,40
 688 -263 688 -263 688 -207 c 0,41,42
 688 -90 688 -90 840 0 c 1,43,-1
 791 0 l 1,44,-1
 894 835 l 1,45,-1
 421 835 l 1,46,-1
 349 245 l 2,47,48
 347 229 347 229 347 216 c 0,49,50
 347 174 347 174 365 152 c 0,51,52
 389 122 389 122 422 122 c 0,53,54
 424 122 l 0,55,56
 458 122 458 122 477.5 130 c 128,-1,57
 497 138 497 138 511 146.5 c 128,-1,58
 525 155 525 155 535 162.5 c 128,-1,59
 545 170 545 170 553 170 c 256,60,61
 565 170 565 170 575 154 c 1,62,-1
 615 73 l 1,0,1
1034 1408 m 0,63,64
 1118 1408 1118 1408 1146 1340 c 0,65,66
 1154 1320 1154 1320 1154 1296 c 0,67,68
 1154 1246 1154 1246 1112.5 1205 c 128,-1,69
 1071 1164 1071 1164 1022.5 1164 c 128,-1,70
 974 1164 974 1164 944 1196 c 0,71,72
 914 1228 914 1228 914 1264 c 0,73,74
 914 1329 914 1329 956 1368.5 c 128,-1,75
 998 1408 998 1408 1034 1408 c 0,63,64
EndSplineSet
Ligature2: "sous-table 'liga' Ligatures standard dans Latin lookup 37" t iogonek
EndChar

StartChar: t_dotlessi.liga
Encoding: 1114150 -1 129
Width: 1141
GlyphClass: 3
Flags: MW
LayerCount: 2
Fore
SplineSet
615 73 m 1,0,1
 514 -15 514 -15 391 -15 c 0,2,3
 174 -15 174 -15 174 184 c 0,4,5
 174 208 174 208 177 234 c 1,6,-1
 251 835 l 1,7,-1
 141 835 l 2,8,9
 127 835 127 835 118 845 c 0,10,11
 111 853 111 853 111 867 c 0,12,13
 111 870 111 870 111 873 c 2,14,-1
 119 940 l 1,15,-1
 272 959 l 1,16,-1
 350 1263 l 2,17,18
 359 1295 359 1295 392 1295 c 2,19,-1
 478 1295 l 1,20,-1
 436 958 l 1,21,-1
 1079 958 l 1,22,-1
 962 0 l 1,23,-1
 791 0 l 1,24,-1
 894 835 l 1,25,-1
 421 835 l 1,26,-1
 349 245 l 2,27,28
 347 229 347 229 347 216 c 0,29,30
 347 174 347 174 365 152 c 0,31,32
 389 122 389 122 422 122 c 0,33,34
 424 122 l 0,35,36
 458 122 458 122 477.5 130 c 128,-1,37
 497 138 497 138 511 146.5 c 128,-1,38
 525 155 525 155 535 162.5 c 128,-1,39
 545 170 545 170 553 170 c 256,40,41
 565 170 565 170 575 154 c 1,42,-1
 615 73 l 1,0,1
EndSplineSet
Ligature2: "sous-table 'liga' Ligatures standard dans Latin lookup 37" t dotlessi
EndChar

StartChar: t_t.liga
Encoding: 1114151 -1 130
Width: 1299
GlyphClass: 3
Flags: MW
LayerCount: 2
Fore
SplineSet
630 73 m 1,0,1
 527 -15 527 -15 401 -15 c 0,2,3
 180 -15 180 -15 180 182 c 0,4,5
 180 207 180 207 183 234 c 2,6,-1
 256 835 l 1,7,-1
 143 835 l 2,8,9
 130 835 130 835 120 845 c 0,10,11
 112 853 112 853 112 867 c 0,12,13
 112 870 112 870 112 873 c 2,14,-1
 120 940 l 1,15,-1
 278 959 l 1,16,-1
 356 1263 l 2,17,18
 365 1295 365 1295 398 1295 c 2,19,-1
 483 1295 l 1,20,-1
 441 958 l 1,21,-1
 889 958 l 1,22,-1
 966 1263 l 2,23,24
 975 1295 975 1295 1009 1295 c 2,25,-1
 1095 1295 l 1,26,-1
 1053 958 l 1,27,-1
 1327 958 l 1,28,-1
 1313 835 l 1,29,-1
 1038 835 l 1,30,-1
 965 245 l 2,31,32
 963 230 963 230 963 213 c 0,33,34
 963 175 963 175 982 153 c 0,35,36
 1008 123 1008 123 1044 123 c 128,-1,37
 1080 123 1080 123 1100 130.5 c 128,-1,38
 1120 138 1120 138 1135 146.5 c 128,-1,39
 1150 155 1150 155 1160.5 162.5 c 128,-1,40
 1171 170 1171 170 1179 170 c 256,41,42
 1190 170 1190 170 1200 154 c 1,43,-1
 1242 73 l 1,44,45
 1139 -15 1139 -15 1013 -15 c 0,46,47
 791 -15 791 -15 791 182 c 0,48,49
 791 206 791 206 794 234 c 2,50,-1
 868 835 l 1,51,-1
 426 835 l 1,52,-1
 354 245 l 2,53,54
 352 230 352 230 352 217 c 0,55,56
 352 174 352 174 372 152 c 0,57,58
 398 122 398 122 432 122 c 0,59,60
 434 122 l 0,61,62
 470 122 470 122 489.5 130 c 128,-1,63
 509 138 509 138 524 146.5 c 128,-1,64
 539 155 539 155 549.5 162.5 c 128,-1,65
 560 170 560 170 568 170 c 256,66,67
 580 170 580 170 590 154 c 1,68,-1
 630 73 l 1,0,1
EndSplineSet
Ligature2: "sous-table 'liga' Ligatures standard dans Latin lookup 37" t t
EndChar

StartChar: t_t_f.liga
Encoding: 1114152 -1 131
Width: 1867
GlyphClass: 3
Flags: MW
LayerCount: 2
Fore
SplineSet
622 73 m 1,0,1
 519 -15 519 -15 395 -15 c 0,2,3
 177 -15 177 -15 177 181 c 0,4,5
 177 206 177 206 180 234 c 2,6,-1
 253 835 l 1,7,-1
 142 835 l 2,8,9
 128 835 128 835 119 845 c 0,10,11
 112 853 112 853 112 867 c 0,12,13
 112 870 112 870 112 873 c 2,14,-1
 119 940 l 1,15,-1
 274 959 l 1,16,-1
 352 1263 l 2,17,18
 361 1295 361 1295 394 1295 c 2,19,-1
 480 1295 l 1,20,-1
 438 958 l 1,21,-1
 876 958 l 1,22,-1
 953 1263 l 2,23,24
 962 1295 962 1295 997 1295 c 2,25,-1
 1082 1295 l 1,26,-1
 1040 958 l 1,27,-1
 1499 958 l 1,28,-1
 1511 1054 l 2,29,30
 1532 1220 1532 1220 1629.5 1311 c 128,-1,31
 1727 1402 1727 1402 1877 1403 c 0,32,33
 1936 1403 1936 1403 1991 1384 c 1,34,-1
 1977 1299 l 1,35,36
 1972 1276 1972 1276 1950 1274.5 c 128,-1,37
 1928 1273 1928 1273 1888 1273 c 0,38,39
 1703 1273 1703 1273 1675 1048 c 1,40,-1
 1663 958 l 1,41,-1
 1931 958 l 1,42,-1
 1917 835 l 1,43,-1
 1654 835 l 1,44,-1
 1551 0 l 1,45,-1
 1382 0 l 1,46,-1
 1484 835 l 1,47,-1
 1025 835 l 1,48,-1
 953 245 l 2,49,50
 951 229 951 229 951 216 c 0,51,52
 951 176 951 176 969 153 c 0,53,54
 993 123 993 123 1028.5 123 c 128,-1,55
 1064 123 1064 123 1084 130.5 c 128,-1,56
 1104 138 1104 138 1118.5 146.5 c 128,-1,57
 1133 155 1133 155 1143 162.5 c 128,-1,58
 1153 170 1153 170 1161 170 c 256,59,60
 1172 170 1172 170 1182 154 c 1,61,-1
 1224 73 l 1,62,63
 1121 -15 1121 -15 997 -15 c 0,64,65
 779 -15 779 -15 779 181 c 0,66,67
 779 206 779 206 782 234 c 2,68,-1
 855 835 l 1,69,-1
 423 835 l 1,70,-1
 351 245 l 2,71,72
 349 229 349 229 349 216 c 0,73,74
 350 174 350 174 368 152 c 0,75,76
 392 122 392 122 426 122 c 0,77,78
 428 122 l 0,79,80
 464 122 464 122 483 130 c 128,-1,81
 502 138 502 138 516 146.5 c 128,-1,82
 530 155 530 155 540.5 162.5 c 128,-1,83
 551 170 551 170 559 170 c 256,84,85
 571 170 571 170 581 154 c 1,86,-1
 622 73 l 1,0,1
EndSplineSet
Ligature2: "sous-table 'liga' Ligatures standard dans Latin lookup 37" t t f
EndChar

StartChar: t_t_iogonek.liga
Encoding: 1114153 -1 132
Width: 1753
GlyphClass: 3
Flags: MW
LayerCount: 2
Fore
SplineSet
627 73 m 1,0,1
 524 -15 524 -15 399 -15 c 0,2,3
 179 -15 179 -15 179 182 c 0,4,5
 179 207 179 207 182 234 c 2,6,-1
 255 835 l 1,7,-1
 142 835 l 2,8,9
 128 835 128 835 119 845 c 0,10,11
 112 853 112 853 112 867 c 0,12,13
 112 870 112 870 112 873 c 2,14,-1
 119 940 l 1,15,-1
 277 959 l 1,16,-1
 355 1263 l 1,17,18
 362 1295 362 1295 397 1295 c 2,19,-1
 482 1295 l 1,20,-1
 440 958 l 1,21,-1
 884 958 l 1,22,-1
 962 1263 l 1,23,24
 968 1295 968 1295 1005 1295 c 2,25,-1
 1090 1295 l 1,26,-1
 1048 958 l 1,27,-1
 1685 958 l 1,28,-1
 1671 835 l 1,29,-1
 1670 835 l 1,30,-1
 1568 0 l 1,31,-1
 1544 0 l 1,32,33
 1464 -44 1464 -44 1434 -108 c 0,34,35
 1422 -132 1422 -132 1422 -161.5 c 128,-1,36
 1422 -191 1422 -191 1440.5 -209.5 c 128,-1,37
 1459 -228 1459 -228 1484.5 -228 c 128,-1,38
 1510 -228 1510 -228 1524 -224.5 c 128,-1,39
 1538 -221 1538 -221 1547 -216.5 c 128,-1,40
 1556 -212 1556 -212 1561.5 -208.5 c 128,-1,41
 1567 -205 1567 -205 1571 -205 c 0,42,43
 1585 -205 1585 -205 1588 -217 c 2,44,-1
 1606 -280 l 1,45,46
 1538 -330 1538 -330 1454 -330 c 128,-1,47
 1370 -330 1370 -330 1330 -296.5 c 128,-1,48
 1290 -263 1290 -263 1290 -207 c 0,49,50
 1290 -90 1290 -90 1437 0 c 1,51,-1
 1399 0 l 1,52,-1
 1500 835 l 1,53,-1
 1033 835 l 1,54,-1
 961 245 l 2,55,56
 959 230 959 230 959 216 c 0,57,58
 960 175 960 175 978 153 c 0,59,60
 1002 123 1002 123 1038 123 c 128,-1,61
 1074 123 1074 123 1094 130.5 c 128,-1,62
 1114 138 1114 138 1129 146.5 c 128,-1,63
 1144 155 1144 155 1154.5 162.5 c 128,-1,64
 1165 170 1165 170 1173 170 c 256,65,66
 1184 170 1184 170 1194 154 c 1,67,-1
 1235 73 l 1,68,69
 1134 -15 1134 -15 1008 -15 c 0,70,71
 787 -15 787 -15 787 182 c 0,72,73
 787 207 787 207 790 234 c 2,74,-1
 863 835 l 1,75,-1
 425 835 l 1,76,-1
 353 245 l 2,77,78
 351 230 351 230 351 216 c 0,79,80
 351 174 351 174 370 152 c 0,81,82
 395 122 395 122 430 122 c 0,83,84
 431 122 l 0,85,86
 467 122 467 122 486.5 130 c 128,-1,87
 506 138 506 138 521 146.5 c 128,-1,88
 536 155 536 155 546 162.5 c 128,-1,89
 556 170 556 170 566 170 c 128,-1,90
 576 170 576 170 587 154 c 1,91,-1
 627 73 l 1,0,1
1640 1408 m 0,92,93
 1726 1408 1726 1408 1754 1340 c 0,94,95
 1762 1320 1762 1320 1762 1295 c 0,96,97
 1762 1244 1762 1244 1720 1204 c 0,98,99
 1678 1164 1678 1164 1630 1164 c 0,100,-1
 1629 1164 l 0,101,102
 1581 1164 1581 1164 1551 1196 c 128,-1,103
 1521 1228 1521 1228 1521 1266 c 0,104,105
 1521 1328 1521 1328 1562.5 1368 c 128,-1,106
 1604 1408 1604 1408 1640 1408 c 0,92,93
EndSplineSet
Ligature2: "sous-table 'liga' Ligatures standard dans Latin lookup 37" t t iogonek
EndChar

StartChar: t_t_dotlessi.liga
Encoding: 1114154 -1 133
Width: 1753
GlyphClass: 3
Flags: MW
LayerCount: 2
Fore
SplineSet
627 73 m 1,0,1
 526 -15 526 -15 400 -15 c 0,2,3
 179 -15 179 -15 179 182 c 0,4,5
 179 207 179 207 182 234 c 2,6,-1
 255 835 l 1,7,-1
 142 835 l 2,8,9
 128 835 128 835 119 845 c 0,10,11
 112 853 112 853 112 867 c 0,12,13
 112 870 112 870 112 873 c 2,14,-1
 119 940 l 1,15,-1
 277 959 l 1,16,-1
 355 1263 l 1,17,18
 362 1295 362 1295 397 1295 c 2,19,-1
 482 1295 l 1,20,-1
 440 958 l 1,21,-1
 884 958 l 1,22,-1
 962 1263 l 1,23,24
 968 1295 968 1295 1005 1295 c 2,25,-1
 1090 1295 l 1,26,-1
 1048 958 l 1,27,-1
 1685 958 l 1,28,-1
 1671 835 l 1,29,-1
 1670 835 l 1,30,-1
 1568 0 l 1,31,-1
 1399 0 l 1,32,-1
 1500 835 l 1,33,-1
 1033 835 l 1,34,-1
 961 245 l 2,35,36
 959 230 959 230 959 216 c 0,37,38
 960 175 960 175 978 153 c 0,39,40
 1002 123 1002 123 1038 123 c 128,-1,41
 1074 123 1074 123 1094 130.5 c 128,-1,42
 1114 138 1114 138 1129 146.5 c 128,-1,43
 1144 155 1144 155 1154.5 162.5 c 128,-1,44
 1165 170 1165 170 1173 170 c 256,45,46
 1184 170 1184 170 1194 154 c 1,47,-1
 1235 73 l 1,48,49
 1134 -15 1134 -15 1008 -15 c 0,50,51
 787 -15 787 -15 787 182 c 0,52,53
 787 207 787 207 790 234 c 2,54,-1
 863 835 l 1,55,-1
 425 835 l 1,56,-1
 353 245 l 2,57,58
 351 230 351 230 351 216 c 0,59,60
 351 174 351 174 370 152 c 0,61,62
 395 122 395 122 430 122 c 0,63,64
 431 122 l 0,65,66
 467 122 467 122 486.5 130 c 128,-1,67
 506 138 506 138 521 146.5 c 128,-1,68
 536 155 536 155 546.5 162.5 c 128,-1,69
 557 170 557 170 565 170 c 256,70,71
 577 170 577 170 587 154 c 1,72,-1
 627 73 l 1,0,1
EndSplineSet
Ligature2: "sous-table 'liga' Ligatures standard dans Latin lookup 37" t t dotlessi
EndChar

StartChar: u
Encoding: 117 117 134
Width: 1053
GlyphClass: 2
Flags: MW
LayerCount: 2
Fore
SplineSet
270 289 m 0,0,1
 270 132 270 132 399 132 c 0,2,3
 494 132 494 132 591 225.5 c 128,-1,4
 688 319 688 319 743 473 c 1,5,-1
 803 978 l 1,6,-1
 978 978 l 1,7,-1
 860 0 l 1,8,-1
 773 0 l 2,9,10
 711 0 711 0 711 55 c 0,11,12
 711 59 711 59 711 63 c 2,13,-1
 724 242 l 1,14,15
 644 115 644 115 543 50.5 c 128,-1,16
 442 -14 442 -14 323 -14 c 128,-1,17
 204 -14 204 -14 142 83 c 0,18,19
 95 155 95 155 95 269 c 0,20,21
 95 312 95 312 100 356 c 2,22,-1
 173 978 l 1,23,-1
 348 978 l 1,24,-1
 274 356 l 2,25,26
 270 319 270 319 270 289 c 0,0,1
EndSplineSet
Substitution2: "sous-table 'ordn' Ordinaux dans Latin lookup 39" u.superior
Substitution2: "sous-table 'sups' Exposant lookups25" u.superior
EndChar

StartChar: uogonek
Encoding: 371 371 135
Width: 1053
GlyphClass: 2
Flags: MW
LayerCount: 2
Fore
SplineSet
629 -207 m 0,0,1
 629 -90 629 -90 776 0 c 1,2,-1
 773 0 l 2,3,4
 711 0 711 0 711 55 c 0,5,6
 711 59 711 59 711 63 c 2,7,-1
 724 242 l 1,8,9
 644 115 644 115 543 50.5 c 128,-1,10
 442 -14 442 -14 323 -14 c 128,-1,11
 204 -14 204 -14 141 84 c 0,12,13
 94 157 94 157 94 271 c 0,14,15
 94 311 94 311 100 356 c 1,16,-1
 173 978 l 1,17,-1
 348 978 l 1,18,-1
 274 356 l 2,19,20
 270 320 270 320 270 289 c 0,21,22
 270 132 270 132 399 132 c 0,23,24
 494 132 494 132 591 225.5 c 128,-1,25
 688 319 688 319 743 473 c 1,26,-1
 803 978 l 1,27,-1
 978 978 l 1,28,-1
 860 3 l 1,29,-1
 883 0 l 1,30,31
 802 -44 802 -44 772 -108 c 0,32,33
 760 -131 760 -131 760 -159 c 0,34,35
 760 -160 760 -160 760 -162 c 0,36,37
 760 -192 760 -192 779 -210 c 128,-1,38
 798 -228 798 -228 823.5 -228 c 128,-1,39
 849 -228 849 -228 863 -224.5 c 128,-1,40
 877 -221 877 -221 886 -216.5 c 128,-1,41
 895 -212 895 -212 900.5 -208.5 c 128,-1,42
 906 -205 906 -205 910 -205 c 0,43,44
 924 -205 924 -205 927 -217 c 2,45,-1
 945 -280 l 1,46,47
 877 -330 877 -330 793 -330 c 128,-1,48
 709 -330 709 -330 669 -296.5 c 128,-1,49
 629 -263 629 -263 629 -207 c 0,0,1
EndSplineSet
EndChar

StartChar: v
Encoding: 118 118 136
Width: 913
GlyphClass: 2
Flags: MW
LayerCount: 2
Fore
SplineSet
72 978 m 1,0,-1
 214 978 l 2,1,2
 252 978 252 978 260 942 c 2,3,-1
 397 317 l 2,4,5
 412 249 412 249 416 174 c 1,6,7
 439 247 439 247 471 315 c 2,8,-1
 763 942 l 1,9,10
 782 978 782 978 816 978 c 2,11,-1
 953 978 l 1,12,-1
 467 0 l 1,13,-1
 320 0 l 1,14,-1
 72 978 l 1,0,-1
EndSplineSet
Substitution2: "sous-table 'ordn' Ordinaux dans Latin lookup 39" v.superior
Substitution2: "sous-table 'sups' Exposant lookups25" v.superior
EndChar

StartChar: w
Encoding: 119 119 137
Width: 1464
GlyphClass: 2
Flags: MW
LayerCount: 2
Fore
SplineSet
76 978 m 1,0,-1
 206 978 l 2,1,2
 248 978 248 978 255 941 c 2,3,-1
 356 318 l 1,4,5
 364 261 364 261 369 187 c 1,6,7
 382 224 382 224 420 317 c 1,8,-1
 706 946 l 2,9,10
 721 980 721 980 755 980 c 2,11,-1
 828 980 l 2,12,13
 867 980 867 980 872 947 c 1,14,-1
 995 318 l 1,15,16
 1011 225 1011 225 1015 187 c 1,17,18
 1035 257 1035 257 1059 316 c 2,19,-1
 1324 942 l 1,20,21
 1338 978 1338 978 1374 978 c 2,22,-1
 1501 978 l 1,23,-1
 1071 0 l 1,24,-1
 938 0 l 2,25,26
 914 0 914 0 908 33 c 2,27,-1
 773 692 l 2,28,29
 767 723 767 723 764 755 c 1,30,31
 754 723 754 723 740 691 c 2,32,-1
 437 33 l 1,33,34
 423 0 423 0 397 0 c 2,35,-1
 270 0 l 1,36,-1
 76 978 l 1,0,-1
EndSplineSet
Substitution2: "sous-table 'ordn' Ordinaux dans Latin lookup 39" w.superior
Substitution2: "sous-table 'sups' Exposant lookups25" w.superior
EndChar

StartChar: x
Encoding: 120 120 138
Width: 887
GlyphClass: 2
Flags: MW
LayerCount: 2
Fore
SplineSet
338 526 m 1,0,-1
 113 978 l 1,1,-1
 270 978 l 2,2,3
 302 978 302 978 313 954 c 2,4,-1
 468 621 l 1,5,6
 480 645 480 645 492 660 c 1,7,-1
 700 951 l 2,8,9
 719 978 719 978 742 978 c 2,10,-1
 900 978 l 1,11,-1
 559 526 l 1,12,-1
 809 0 l 1,13,-1
 652 0 l 2,14,15
 620 0 620 0 605 34 c 2,16,-1
 431 422 l 1,17,18
 423 402 423 402 410 385 c 2,19,-1
 158 33 l 2,20,21
 134 0 134 0 106 0 c 2,22,-1
 -47 0 l 1,23,-1
 338 526 l 1,0,-1
EndSplineSet
Substitution2: "sous-table 'ordn' Ordinaux dans Latin lookup 39" x.superior
Substitution2: "sous-table 'sups' Exposant lookups25" x.superior
EndChar

StartChar: y
Encoding: 121 121 139
Width: 916
GlyphClass: 2
Flags: MW
LayerCount: 2
Fore
SplineSet
307 -290 m 2,0,1
 287 -330 287 -330 247 -330 c 2,2,-1
 118 -330 l 1,3,-1
 329 57 l 1,4,-1
 78 978 l 1,5,-1
 223 978 l 2,6,7
 260 978 260 978 269 941 c 2,8,-1
 420 331 l 2,9,10
 430 292 430 292 434 248 c 1,11,12
 452 292 452 292 472 332 c 2,13,-1
 773 944 l 2,14,15
 790 978 790 978 824 978 c 2,16,-1
 964 978 l 1,17,-1
 307 -290 l 2,0,1
EndSplineSet
Substitution2: "sous-table 'ss04' Style 4 lookups34" y.salt
Substitution2: "sous-table 'salt' Alternatives stylistiques lookups28" y.salt
Substitution2: "sous-table 'sups' Exposant lookups25" y.superior
Substitution2: "sous-table 'ordn' Ordinaux dans Latin lookup 39" y.superior
EndChar

StartChar: z
Encoding: 122 122 140
Width: 809
GlyphClass: 2
Flags: MW
LayerCount: 2
Fore
SplineSet
803 904 m 1,0,1
 797 868 797 868 772 836 c 2,2,-1
 228 137 l 1,3,-1
 693 137 l 1,4,-1
 676 0 l 1,5,-1
 3 0 l 1,6,-1
 11 73 l 1,7,8
 16 104 16 104 42 136 c 2,9,-1
 587 841 l 1,10,-1
 131 841 l 1,11,-1
 149 978 l 1,12,-1
 812 978 l 1,13,-1
 803 904 l 1,0,1
EndSplineSet
Substitution2: "sous-table 'ordn' Ordinaux dans Latin lookup 39" z.superior
Substitution2: "sous-table 'sups' Exposant lookups25" z.superior
EndChar

StartChar: ordfeminine
Encoding: 170 170 141
Width: 882
GlyphClass: 2
Flags: MW
LayerCount: 2
Fore
SplineSet
345 1307 m 1,0,1
 447 1399 447 1399 579 1399 c 0,2,3
 670 1398 670 1398 714 1339.5 c 128,-1,4
 758 1281 758 1281 758 1211 c 0,5,6
 758 1195 758 1195 756 1178 c 2,7,-1
 711 811 l 1,8,-1
 654 811 l 2,9,10
 637 811 637 811 628.5 816 c 128,-1,11
 620 821 620 821 618 838 c 2,12,-1
 611 886 l 1,13,14
 515 802 515 802 414 802 c 0,15,16
 352 802 352 802 312.5 835.5 c 128,-1,17
 273 869 273 869 273 926 c 0,18,19
 273 1133 273 1133 631 1142 c 1,20,-1
 636 1178 l 2,21,22
 637 1190 637 1190 637 1215 c 128,-1,23
 637 1240 637 1240 621 1269 c 128,-1,24
 605 1298 605 1298 562 1298 c 0,25,26
 502 1298 502 1298 470 1279 c 0,27,28
 412 1244 412 1244 392.5 1244 c 128,-1,29
 373 1244 373 1244 363 1267 c 2,30,-1
 345 1307 l 1,0,1
393 951 m 0,31,32
 393 889 393 889 464 889 c 128,-1,33
 535 889 535 889 610 958 c 1,34,-1
 622 1063 l 1,35,36
 442 1057 442 1057 405 996 c 0,37,38
 393 976 393 976 393 951 c 0,31,32
EndSplineSet
Substitution2: "sous-table 'case' Formes sensibles +AOAA la casse lookups14" ordfeminine.case
EndChar

StartChar: ordmasculine
Encoding: 186 186 142
Width: 865
GlyphClass: 2
Flags: MW
LayerCount: 2
Fore
SplineSet
723 1330 m 0,0,1
 789 1261 789 1261 789 1160 c 0,2,3
 789 986 789 986 702 893 c 0,4,5
 615 799 615 799 487.5 799 c 128,-1,6
 360 799 360 799 294 868 c 0,7,8
 228 936 228 936 228 1034 c 0,9,10
 228 1132 228 1132 252 1196 c 0,11,12
 276 1260 276 1260 318 1305 c 0,13,14
 405 1398 405 1398 531.5 1398 c 128,-1,15
 658 1398 658 1398 723 1330 c 0,0,1
362 1052 m 0,16,17
 362 900 362 900 487 900 c 0,18,19
 573 900 573 900 615 965.5 c 128,-1,20
 657 1031 657 1031 657 1144 c 0,21,22
 657 1297 657 1297 535 1297 c 0,23,24
 362 1297 362 1297 362 1052 c 0,16,17
EndSplineSet
EndChar

StartChar: ordfeminine.case
Encoding: 1114155 -1 143
Width: 888
GlyphClass: 2
Flags: MW
LayerCount: 2
Fore
SplineSet
746 812 m 1,0,-1
 651 812 l 2,1,2
 622 812 622 812 618 836 c 1,3,-1
 596 941 l 1,4,-1
 398 941 l 1,5,-1
 350 836 l 2,6,7
 338 812 338 812 312 812 c 2,8,-1
 216 812 l 1,9,-1
 496 1383 l 1,10,-1
 606 1383 l 1,11,-1
 746 812 l 1,0,-1
438 1030 m 1,12,-1
 578 1030 l 1,13,-1
 542 1203 l 2,14,15
 539 1213 539 1213 537.5 1224.5 c 128,-1,16
 536 1236 536 1236 534 1248 c 1,17,18
 527 1225 527 1225 517 1203 c 2,19,-1
 438 1030 l 1,12,-1
EndSplineSet
EndChar

StartChar: a.superior
Encoding: 1114156 -1 144
Width: 728
GlyphClass: 2
Flags: MW
LayerCount: 2
Fore
SplineSet
577 883 m 2,0,1
 545 883 545 883 540 909 c 2,2,-1
 534 943 l 1,3,4
 495 910 495 910 459.5 892.5 c 128,-1,5
 424 875 424 875 372 875 c 128,-1,6
 320 875 320 875 287 904 c 0,7,8
 254 934 254 934 254 978 c 0,9,10
 254 1164 254 1164 550 1169 c 1,11,12
 554 1199 554 1199 554 1221 c 0,13,14
 554 1257 554 1257 544 1271 c 0,15,16
 528 1295 528 1295 497.5 1295 c 128,-1,17
 467 1295 467 1295 449 1288 c 128,-1,18
 431 1281 431 1281 416.5 1273 c 128,-1,19
 402 1265 402 1265 390 1258 c 128,-1,20
 378 1251 378 1251 360.5 1251 c 128,-1,21
 343 1251 343 1251 331 1273 c 1,22,-1
 314 1313 l 1,23,24
 406 1392 406 1392 504 1392 c 0,25,-1
 505 1392 l 0,26,27
 602 1392 602 1392 642 1340 c 0,28,29
 672 1300 672 1300 672 1239 c 0,30,31
 672 1217 672 1217 670 1198 c 2,32,-1
 669 1185 l 1,33,-1
 668 1185 l 1,34,-1
 632 883 l 1,35,-1
 577 883 l 2,0,1
370 1006 m 0,36,37
 370 958 370 958 423.5 958 c 128,-1,38
 477 958 477 958 530 1011 c 1,39,-1
 541 1095 l 1,40,41
 370 1088 370 1088 370 1006 c 0,36,37
EndSplineSet
EndChar

StartChar: b.superior
Encoding: 1114157 -1 145
Width: 725
GlyphClass: 2
Flags: MW
LayerCount: 2
Fore
SplineSet
707 1202 m 0,0,1
 707 978 707 978 566 900 c 0,2,3
 523 876 523 876 461.5 876 c 128,-1,4
 400 876 400 876 360 942 c 1,5,-1
 352 907 l 2,6,7
 347 883 347 883 320 883 c 2,8,-1
 241 883 l 1,9,-1
 330 1606 l 1,10,-1
 450 1606 l 1,11,-1
 415 1323 l 1,12,13
 484 1390 484 1390 556.5 1390 c 128,-1,14
 629 1390 629 1390 668 1337 c 128,-1,15
 707 1284 707 1284 707 1202 c 0,0,1
546.5 1020 m 128,-1,17
 583 1072 583 1072 583 1183.5 c 128,-1,18
 583 1295 583 1295 508 1295 c 0,19,20
 454 1295 454 1295 405 1238 c 1,21,-1
 377 1010 l 1,22,23
 406 968 406 968 458 968 c 128,-1,16
 510 968 510 968 546.5 1020 c 128,-1,17
EndSplineSet
EndChar

StartChar: c.superior
Encoding: 1114158 -1 146
Width: 577
GlyphClass: 2
Flags: MW
LayerCount: 2
Fore
SplineSet
582 957 m 1,0,1
 506 876 506 876 387 876 c 0,2,3
 308 876 308 876 257.5 934 c 128,-1,4
 207 992 207 992 207 1074 c 0,5,6
 207 1223 207 1223 277.5 1306.5 c 128,-1,7
 348 1390 348 1390 457.5 1390 c 128,-1,8
 567 1390 567 1390 623 1320 c 1,9,-1
 586 1276 l 2,10,11
 573 1261 573 1261 561.5 1261 c 128,-1,12
 550 1261 550 1261 542.5 1266.5 c 128,-1,13
 535 1272 535 1272 517 1284.5 c 128,-1,14
 499 1297 499 1297 464 1297 c 0,15,16
 401 1297 401 1297 365.5 1245.5 c 128,-1,17
 330 1194 330 1194 330 1115 c 0,18,19
 330 968 330 968 420 968 c 0,20,21
 460 968 460 968 482 983.5 c 128,-1,22
 504 999 504 999 513 1006 c 128,-1,23
 522 1013 522 1013 535 1013 c 128,-1,24
 548 1013 548 1013 554 1002 c 2,25,-1
 582 957 l 1,0,1
EndSplineSet
EndChar

StartChar: d.superior
Encoding: 1114159 -1 147
Width: 728
GlyphClass: 2
Flags: MW
LayerCount: 2
Fore
SplineSet
241 1065 m 0,0,1
 242 1290 242 1290 382 1368 c 0,2,3
 423 1392 423 1392 479 1392 c 0,4,5
 480 1392 480 1392 481 1392 c 0,6,7
 538 1392 538 1392 580 1345 c 1,8,-1
 612 1606 l 1,9,-1
 732 1606 l 1,10,-1
 644 883 l 1,11,-1
 570 883 l 2,12,13
 545 883 545 883 544 905 c 2,14,-1
 542 955 l 1,15,16
 470 876 470 876 394 876 c 128,-1,17
 318 876 318 876 279.5 929.5 c 128,-1,18
 241 983 241 983 241 1065 c 0,0,1
400.5 1247 m 128,-1,20
 364 1195 364 1195 364 1083.5 c 128,-1,21
 364 972 364 972 442 972 c 0,22,23
 495 972 495 972 541 1028 c 1,24,-1
 569 1255 l 1,25,26
 541 1299 541 1299 489 1299 c 128,-1,19
 437 1299 437 1299 400.5 1247 c 128,-1,20
EndSplineSet
EndChar

StartChar: e.superior
Encoding: 1114160 -1 148
Width: 673
GlyphClass: 2
Flags: MW
LayerCount: 2
Fore
SplineSet
635 957 m 1,0,1
 554 876 554 876 423.5 876 c 128,-1,2
 293 876 293 876 247 1004 c 0,3,4
 232 1046 232 1046 232 1104 c 0,5,6
 232 1225 232 1225 304 1307.5 c 128,-1,7
 376 1390 376 1390 472.5 1390 c 128,-1,8
 569 1390 569 1390 618 1339 c 128,-1,9
 667 1288 667 1288 667 1208 c 128,-1,10
 667 1128 667 1128 646 1120 c 0,11,12
 639 1118 639 1118 631 1117 c 1,13,-1
 350 1117 l 1,14,-1
 350 1104 l 2,15,16
 350 970 350 970 454 970 c 0,17,18
 497 970 497 970 535 991.5 c 128,-1,19
 573 1013 573 1013 586.5 1013 c 128,-1,20
 600 1013 600 1013 606 1002 c 2,21,-1
 635 957 l 1,0,1
521 1294 m 0,22,23
 504 1303 504 1303 469.5 1303 c 128,-1,24
 435 1303 435 1303 404 1274.5 c 128,-1,25
 373 1246 373 1246 359 1190 c 1,26,-1
 560 1190 l 1,27,28
 562 1203 562 1203 562 1215 c 0,29,30
 562 1272 562 1272 521 1294 c 0,22,23
EndSplineSet
EndChar

StartChar: f.superior
Encoding: 1114161 -1 149
Width: 449
GlyphClass: 2
Flags: MW
LayerCount: 2
Fore
SplineSet
223 883 m 1,0,-1
 273 1291 l 1,1,-1
 237 1298 l 1,2,3
 210 1302 210 1302 210 1323 c 0,4,5
 210 1326 210 1326 210 1328 c 2,6,-1
 216 1378 l 1,7,-1
 283 1378 l 1,8,-1
 288 1415 l 2,9,10
 299 1502 299 1502 352 1550.5 c 128,-1,11
 405 1599 405 1599 487 1599 c 0,12,13
 520 1599 520 1599 547 1590 c 1,14,-1
 536 1529 l 2,15,16
 533 1507 533 1507 495 1507 c 128,-1,17
 457 1507 457 1507 434 1486.5 c 128,-1,18
 411 1466 411 1466 404 1410 c 2,19,-1
 400 1378 l 1,20,-1
 516 1378 l 1,21,-1
 505 1291 l 1,22,-1
 393 1291 l 1,23,-1
 343 883 l 1,24,-1
 223 883 l 1,0,-1
EndSplineSet
EndChar

StartChar: g.superior
Encoding: 1114162 -1 150
Width: 728
GlyphClass: 2
Flags: MW
LayerCount: 2
Fore
SplineSet
349 1095 m 1,0,1
 288 1135 288 1135 288 1213.5 c 128,-1,2
 288 1292 288 1292 347 1341 c 128,-1,3
 406 1390 406 1390 480 1390 c 0,4,5
 481 1390 481 1390 483 1391 c 0,6,7
 555 1391 555 1391 595 1365 c 1,8,-1
 730 1365 l 1,9,-1
 724 1319 l 1,10,11
 720 1298 720 1298 696 1293 c 2,12,-1
 653 1285 l 1,13,14
 658 1265 658 1265 658 1236 c 0,15,16
 658 1167 658 1167 599 1117 c 0,17,18
 541 1067 541 1067 458 1067 c 0,19,20
 456 1067 456 1067 455 1067 c 0,21,22
 432 1067 432 1067 407 1072 c 1,23,24
 384 1058 384 1058 384 1039 c 128,-1,25
 384 1020 384 1020 404.5 1012.5 c 128,-1,26
 425 1005 425 1005 456.5 1000.5 c 128,-1,27
 488 996 488 996 524 992 c 0,28,29
 664 978 664 978 664 900 c 128,-1,30
 664 822 664 822 594 765 c 128,-1,31
 524 708 524 708 399 708 c 128,-1,32
 274 708 274 708 234 782 c 0,33,34
 223 802 223 802 223 824 c 0,35,36
 223 826 223 826 223 828 c 0,37,38
 223 913 223 913 333 943 c 1,39,40
 276 961 276 961 276 995 c 0,41,42
 276 1061 276 1061 349 1095 c 1,0,1
406 929 m 1,43,44
 329 900 329 900 329 848 c 0,45,46
 329 824 329 824 352 806.5 c 128,-1,47
 375 789 375 789 430.5 789 c 128,-1,48
 486 789 486 789 518 812 c 128,-1,49
 550 835 550 835 550 859.5 c 128,-1,50
 550 884 550 884 538 894 c 0,51,52
 511 913 511 913 406 929 c 1,43,44
397 1212 m 0,53,54
 397 1145 397 1145 464 1145 c 0,55,56
 552 1145 552 1145 552 1239 c 0,57,58
 552 1269 552 1269 535 1287.5 c 128,-1,59
 518 1306 518 1306 483 1306 c 0,60,61
 397 1306 397 1306 397 1212 c 0,53,54
EndSplineSet
EndChar

StartChar: h.superior
Encoding: 1114163 -1 151
Width: 730
GlyphClass: 2
Flags: MW
LayerCount: 2
Fore
SplineSet
422 1331 m 1,0,1
 488 1390 488 1390 562.5 1390 c 128,-1,2
 637 1390 637 1390 670 1337 c 0,3,4
 695 1296 695 1296 695 1237 c 0,5,6
 695 1219 695 1219 693 1200 c 2,7,-1
 654 883 l 1,8,-1
 535 883 l 1,9,-1
 573 1200 l 1,10,11
 575 1214 575 1214 575 1227 c 0,12,13
 575 1295 575 1295 513 1295 c 0,14,15
 463 1295 463 1295 412 1246 c 1,16,-1
 368 883 l 1,17,-1
 247 883 l 1,18,-1
 336 1606 l 1,19,-1
 456 1606 l 1,20,-1
 422 1331 l 1,0,1
EndSplineSet
EndChar

StartChar: i.superior
Encoding: 1114164 -1 152
Width: 354
GlyphClass: 2
Flags: MW
LayerCount: 2
Fore
SplineSet
375 1362 m 1,0,-1
 317 883 l 1,1,-1
 197 883 l 1,2,-1
 255 1362 l 1,3,-1
 375 1362 l 1,0,-1
394 1585 m 0,4,5
 413 1565 413 1565 413 1542 c 0,6,7
 413 1502 413 1502 386 1476 c 0,8,9
 360 1450 360 1450 330 1450 c 0,10,11
 329 1450 l 0,12,13
 298 1450 298 1450 280 1470 c 0,14,15
 262 1490 262 1490 262 1514 c 0,16,17
 262 1554 262 1554 288 1579 c 128,-1,18
 314 1604 314 1604 344 1604 c 0,19,20
 345 1604 345 1604 346 1605 c 0,21,22
 375 1605 375 1605 394 1585 c 0,4,5
EndSplineSet
EndChar

StartChar: j.superior
Encoding: 1114165 -1 153
Width: 365
GlyphClass: 2
Flags: MW
LayerCount: 2
Fore
SplineSet
385 1362 m 1,0,-1
 325 867 l 2,1,2
 306 708 306 708 153 708 c 0,3,4
 124 708 124 708 96 717 c 1,5,-1
 109 782 l 2,6,7
 112 798 112 798 142 798 c 128,-1,8
 172 798 172 798 186 813 c 128,-1,9
 200 828 200 828 205 867 c 2,10,-1
 266 1362 l 1,11,-1
 385 1362 l 1,0,-1
404 1585 m 0,12,13
 424 1565 424 1565 424 1542 c 0,14,15
 424 1502 424 1502 397 1476 c 0,16,17
 371 1450 371 1450 341 1450 c 0,18,19
 340 1450 l 0,20,21
 310 1450 310 1450 291 1470 c 0,22,23
 272 1490 272 1490 272 1514 c 0,24,25
 272 1554 272 1554 298 1579 c 128,-1,26
 324 1604 324 1604 354 1604 c 0,27,28
 355 1604 355 1604 356 1605 c 0,29,30
 385 1605 385 1605 404 1585 c 0,12,13
EndSplineSet
EndChar

StartChar: k.superior
Encoding: 1114166 -1 154
Width: 663
GlyphClass: 2
Flags: MW
LayerCount: 2
Fore
SplineSet
427 1606 m 1,0,-1
 376 1192 l 1,1,-1
 397 1192 l 2,2,3
 418 1192 418 1192 431 1208 c 2,4,-1
 555 1362 l 1,5,6
 570 1383 570 1383 599 1383 c 2,7,-1
 708 1383 l 1,8,-1
 551 1196 l 2,9,10
 531 1173 531 1173 507 1160 c 1,11,12
 528 1150 528 1150 540 1125 c 2,13,-1
 654 883 l 1,14,-1
 546 883 l 2,15,16
 515 883 515 883 506 904 c 2,17,-1
 424 1093 l 2,18,19
 416 1111 416 1111 392 1111 c 2,20,-1
 366 1111 l 1,21,-1
 339 883 l 1,22,-1
 218 883 l 1,23,-1
 307 1606 l 1,24,-1
 427 1606 l 1,0,-1
EndSplineSet
EndChar

StartChar: l.superior
Encoding: 1114167 -1 155
Width: 350
GlyphClass: 2
Flags: MW
LayerCount: 2
Fore
SplineSet
403 1606 m 1,0,-1
 315 883 l 1,1,-1
 195 883 l 1,2,-1
 284 1606 l 1,3,-1
 403 1606 l 1,0,-1
EndSplineSet
EndChar

StartChar: m.superior
Encoding: 1114168 -1 156
Width: 1100
GlyphClass: 2
Flags: MW
LayerCount: 2
Fore
SplineSet
703 1299 m 1,0,1
 757 1390 757 1390 863 1390 c 0,2,3
 941 1390 941 1390 976 1340 c 0,4,5
 1003 1302 1003 1302 1003 1241 c 0,6,7
 1003 1222 1003 1222 1000 1200 c 2,8,-1
 960 883 l 1,9,-1
 841 883 l 1,10,-1
 880 1200 l 2,11,12
 882 1214 882 1214 882 1225 c 0,13,14
 882 1295 882 1295 820 1295 c 0,15,16
 789 1295 789 1295 763.5 1271 c 128,-1,17
 738 1247 738 1247 732 1200 c 2,18,-1
 693 883 l 1,19,-1
 574 883 l 1,20,-1
 612 1200 l 2,21,22
 614 1214 614 1214 614 1226 c 0,23,24
 614 1295 614 1295 554 1295 c 0,25,26
 515 1295 515 1295 471 1251 c 1,27,-1
 426 883 l 1,28,-1
 306 883 l 1,29,-1
 367 1383 l 1,30,-1
 441 1383 l 2,31,32
 465 1383 465 1383 465 1359 c 2,33,-1
 464 1318 l 1,34,35
 531 1390 531 1390 607 1390 c 128,-1,36
 683 1390 683 1390 703 1299 c 1,0,1
EndSplineSet
EndChar

StartChar: uni207F
Encoding: 8319 8319 157
Width: 731
GlyphClass: 2
Flags: MW
LayerCount: 2
Fore
SplineSet
400 1314 m 1,0,1
 484 1393 484 1393 574 1393 c 0,2,3
 575 1393 575 1393 576 1393 c 0,4,5
 694 1393 694 1393 716 1280 c 0,6,7
 720 1260 720 1260 720 1236 c 0,8,9
 720 1220 720 1220 718 1203 c 1,10,-1
 679 886 l 1,11,-1
 559 886 l 1,12,-1
 598 1203 l 1,13,14
 599 1213 599 1213 599 1222 c 0,15,16
 599 1298 599 1298 525 1298 c 0,17,18
 468 1298 468 1298 408 1245 c 1,19,-1
 365 886 l 1,20,-1
 245 886 l 1,21,-1
 306 1385 l 1,22,-1
 369 1385 l 2,23,24
 393 1385 393 1385 397 1360 c 1,25,-1
 400 1314 l 1,0,1
EndSplineSet
EndChar

StartChar: o.superior
Encoding: 1114169 -1 158
Width: 726
GlyphClass: 2
Flags: MW
LayerCount: 2
Fore
SplineSet
653 1330.5 m 128,-1,1
 707 1271 707 1271 707 1188 c 0,2,3
 707 1037 707 1037 633 956.5 c 128,-1,4
 559 876 559 876 442 876 c 0,5,6
 299 876 299 876 254 1004 c 0,7,8
 240 1044 240 1044 240 1102.5 c 128,-1,9
 240 1161 240 1161 260 1216 c 0,10,11
 278 1272 278 1272 314 1310 c 0,12,13
 388 1390 388 1390 493.5 1390 c 128,-1,0
 599 1390 599 1390 653 1330.5 c 128,-1,1
453 969 m 0,14,15
 583 969 583 969 583 1183 c 0,16,17
 583 1297 583 1297 494 1297 c 0,18,19
 362 1296 362 1296 362 1082 c 0,20,21
 362 969 362 969 451 969 c 0,22,23
 452 969 452 969 453 969 c 0,14,15
EndSplineSet
EndChar

StartChar: p.superior
Encoding: 1114170 -1 159
Width: 727
GlyphClass: 2
Flags: MW
LayerCount: 2
Fore
SplineSet
566 899.5 m 128,-1,1
 523 876 523 876 464 876 c 128,-1,2
 405 876 405 876 367 923 c 1,3,-1
 342 720 l 1,4,-1
 222 720 l 1,5,-1
 303 1383 l 1,6,-1
 377 1383 l 2,7,8
 403 1383 403 1383 403 1360 c 2,9,-1
 403 1310 l 1,10,11
 477 1391 477 1391 554 1391 c 128,-1,12
 631 1391 631 1391 669.5 1337.5 c 128,-1,13
 708 1284 708 1284 708 1202 c 128,-1,14
 708 1120 708 1120 690 1063 c 128,-1,15
 672 1006 672 1006 640.5 964.5 c 128,-1,0
 609 923 609 923 566 899.5 c 128,-1,1
547.5 1020 m 128,-1,17
 584 1072 584 1072 584 1183.5 c 128,-1,18
 584 1295 584 1295 511 1295 c 0,19,20
 454 1295 454 1295 405 1238 c 1,21,-1
 377 1011 l 1,22,23
 404 968 404 968 457.5 968 c 128,-1,16
 511 968 511 968 547.5 1020 c 128,-1,17
EndSplineSet
EndChar

StartChar: q.superior
Encoding: 1114171 -1 160
Width: 727
GlyphClass: 2
Flags: MW
LayerCount: 2
Fore
SplineSet
241 1065 m 0,0,1
 242 1290 242 1290 382 1368 c 0,2,3
 423 1392 423 1392 483 1392 c 0,4,5
 484 1392 484 1392 485 1392 c 0,6,7
 546 1392 546 1392 590 1331 c 1,8,-1
 600 1360 l 2,9,10
 608 1383 608 1383 631 1383 c 2,11,-1
 705 1383 l 1,12,-1
 624 720 l 1,13,-1
 504 720 l 1,14,-1
 531 944 l 1,15,16
 463 876 463 876 390.5 876 c 128,-1,17
 318 876 318 876 279.5 929.5 c 128,-1,18
 241 983 241 983 241 1065 c 0,0,1
398 1244.5 m 128,-1,20
 364 1190 364 1190 364 1081 c 128,-1,21
 364 972 364 972 439 972 c 0,22,23
 494 972 494 972 541 1029 c 1,24,-1
 569 1255 l 1,25,26
 543 1299 543 1299 487.5 1299 c 128,-1,19
 432 1299 432 1299 398 1244.5 c 128,-1,20
EndSplineSet
EndChar

StartChar: r.superior
Encoding: 1114172 -1 161
Width: 496
GlyphClass: 2
Flags: MW
LayerCount: 2
Fore
SplineSet
513 1269 m 1,0,-1
 468 1274 l 1,1,2
 408 1274 408 1274 368 1193 c 1,3,-1
 330 883 l 1,4,-1
 210 883 l 1,5,-1
 271 1383 l 1,6,-1
 342 1383 l 2,7,8
 360 1383 360 1383 366 1376 c 0,9,10
 371 1370 371 1370 371 1357 c 0,11,12
 371 1355 371 1355 371 1352 c 2,13,-1
 369 1293 l 1,14,15
 430 1391 430 1391 504 1391 c 0,16,17
 536 1391 536 1391 554 1376 c 1,18,-1
 534 1285 l 2,19,20
 530 1269 530 1269 513 1269 c 1,0,-1
EndSplineSet
EndChar

StartChar: s.superior
Encoding: 1114173 -1 162
Width: 560
GlyphClass: 2
Flags: MW
LayerCount: 2
Fore
SplineSet
552 1284 m 2,0,1
 541 1269 541 1269 529.5 1269 c 128,-1,2
 518 1269 518 1269 509.5 1274 c 128,-1,3
 501 1279 501 1279 481 1290 c 128,-1,4
 461 1301 461 1301 428 1301 c 128,-1,5
 395 1301 395 1301 376.5 1284.5 c 128,-1,6
 358 1268 358 1268 358 1245.5 c 128,-1,7
 358 1223 358 1223 372.5 1212 c 128,-1,8
 387 1201 387 1201 409 1192 c 0,9,10
 430 1183 430 1183 456 1174 c 0,11,12
 554 1139 554 1139 555 1069 c 0,13,14
 555 981 555 981 499.5 928 c 128,-1,15
 444 875 444 875 345.5 875 c 128,-1,16
 247 875 247 875 191 936 c 1,17,-1
 225 982 l 2,18,19
 238 1000 238 1000 254 1000 c 128,-1,20
 270 1000 270 1000 278 994 c 128,-1,21
 286 988 286 988 306 974 c 128,-1,22
 326 960 326 960 364 960 c 128,-1,23
 402 960 402 960 420.5 980 c 128,-1,24
 439 1000 439 1000 439 1023 c 128,-1,25
 439 1046 439 1046 424.5 1057.5 c 128,-1,26
 410 1069 410 1069 388 1077.5 c 128,-1,27
 366 1086 366 1086 340 1095 c 0,28,29
 242 1130 242 1130 242 1210 c 128,-1,30
 242 1290 242 1290 294 1340 c 128,-1,31
 346 1390 346 1390 438 1390 c 256,32,33
 534 1390 534 1390 585 1328 c 1,34,-1
 552 1284 l 2,0,1
EndSplineSet
EndChar

StartChar: t.superior
Encoding: 1114174 -1 163
Width: 483
GlyphClass: 2
Flags: MW
LayerCount: 2
Fore
SplineSet
483 920 m 1,0,1
 426 875 426 875 358 875 c 0,2,3
 241 875 241 875 241 984 c 0,4,5
 241 998 241 998 243 1014 c 2,6,-1
 277 1291 l 1,7,-1
 233 1291 l 2,8,9
 212 1291 212 1291 212 1309 c 0,10,11
 212 1312 212 1312 213 1316 c 2,12,-1
 219 1365 l 1,13,-1
 293 1378 l 1,14,-1
 335 1514 l 2,15,16
 341 1535 341 1535 364 1535 c 2,17,-1
 427 1535 l 1,18,-1
 407 1378 l 1,19,-1
 528 1378 l 1,20,-1
 517 1291 l 1,21,-1
 397 1291 l 1,22,-1
 364 1022 l 2,23,24
 363 1015 363 1015 363 1009 c 0,25,26
 363 973 363 973 394 973 c 0,27,28
 413 973 413 973 422 981 c 128,-1,29
 431 989 431 989 439.5 989 c 128,-1,30
 448 989 448 989 454 978 c 2,31,-1
 483 920 l 1,0,1
EndSplineSet
EndChar

StartChar: u.superior
Encoding: 1114175 -1 164
Width: 731
GlyphClass: 2
Flags: MW
LayerCount: 2
Fore
SplineSet
543 946 m 1,0,1
 472 874 472 874 394 874 c 0,2,3
 393 874 l 0,4,5
 316 874 316 874 282 926 c 0,6,7
 257 966 257 966 257 1025 c 0,8,9
 257 1044 257 1044 260 1065 c 2,10,-1
 298 1383 l 1,11,-1
 418 1383 l 1,12,-1
 379 1065 l 2,13,14
 378 1052 378 1052 378 1041 c 0,15,16
 378 970 378 970 440 970 c 0,17,18
 490 970 490 970 541 1019 c 1,19,-1
 586 1383 l 1,20,-1
 706 1383 l 1,21,-1
 645 883 l 1,22,-1
 571 883 l 2,23,24
 547 883 547 883 545 905 c 2,25,-1
 543 946 l 1,0,1
EndSplineSet
EndChar

StartChar: v.superior
Encoding: 1114176 -1 165
Width: 645
GlyphClass: 2
Flags: MW
LayerCount: 2
Fore
SplineSet
227 1383 m 1,0,-1
 326 1383 l 2,1,2
 352 1383 352 1383 357 1360 c 2,3,-1
 406 1094 l 2,4,5
 412 1056 412 1056 417 1002 c 1,6,7
 436 1058 436 1058 453 1094 c 1,8,-1
 569 1360 l 1,9,10
 581 1383 581 1383 604 1383 c 2,11,-1
 700 1383 l 1,12,-1
 456 883 l 1,13,-1
 347 883 l 1,14,-1
 227 1383 l 1,0,-1
EndSplineSet
EndChar

StartChar: w.superior
Encoding: 1114177 -1 166
Width: 1007
GlyphClass: 2
Flags: MW
LayerCount: 2
Fore
SplineSet
289 1383 m 1,0,-1
 387 1383 l 2,1,2
 416 1383 416 1383 419 1355 c 2,3,-1
 445 1096 l 2,4,5
 447 1074 447 1074 449 1054 c 128,-1,6
 451 1034 451 1034 453 1014 c 1,7,8
 460 1034 460 1034 467 1054 c 128,-1,9
 474 1074 474 1074 483 1096 c 2,10,-1
 587 1357 l 2,11,12
 597 1383 597 1383 623 1383 c 2,13,-1
 671 1383 l 2,14,15
 699 1383 699 1383 702 1356 c 2,16,-1
 740 1096 l 2,17,18
 742 1076 742 1076 744.5 1056.5 c 128,-1,19
 747 1037 747 1037 748 1018 c 1,20,21
 762 1063 762 1063 775 1095 c 1,22,-1
 869 1355 l 2,23,24
 880 1383 880 1383 906 1383 c 2,25,-1
 1000 1383 l 1,26,-1
 790 883 l 1,27,-1
 697 883 l 2,28,29
 680 883 680 883 677 905 c 2,30,-1
 633 1191 l 2,31,32
 629 1217 629 1217 627 1246 c 1,33,34
 622 1227 622 1227 608 1189 c 1,35,-1
 493 904 l 2,36,37
 485 883 485 883 465 883 c 2,38,-1
 372 883 l 1,39,-1
 289 1383 l 1,0,-1
EndSplineSet
EndChar

StartChar: x.superior
Encoding: 1114178 -1 167
Width: 636
GlyphClass: 2
Flags: MW
LayerCount: 2
Fore
SplineSet
350 1140 m 1,0,-1
 229 1383 l 1,1,-1
 344 1383 l 2,2,3
 364 1383 364 1383 373 1366 c 1,4,-1
 446 1202 l 1,5,6
 454 1217 454 1217 463 1232 c 2,7,-1
 550 1364 l 2,8,9
 562 1383 562 1383 580 1383 c 2,10,-1
 689 1383 l 1,11,-1
 509 1146 l 1,12,-1
 634 883 l 1,13,-1
 519 883 l 2,14,15
 498 883 498 883 488 905 c 2,16,-1
 414 1075 l 1,17,18
 409 1062 409 1062 400 1048 c 2,19,-1
 304 905 l 1,20,21
 288 883 288 883 268 883 c 2,22,-1
 161 883 l 1,23,-1
 350 1140 l 1,0,-1
EndSplineSet
EndChar

StartChar: y.superior
Encoding: 1114179 -1 168
Width: 646
GlyphClass: 2
Flags: MW
LayerCount: 2
Fore
SplineSet
377 753 m 2,0,1
 359 720 359 720 331 720 c 2,2,-1
 241 720 l 1,3,-1
 354 920 l 1,4,-1
 224 1383 l 1,5,-1
 330 1383 l 2,6,7
 354 1383 354 1383 360 1360 c 2,8,-1
 419 1103 l 2,9,10
 425 1075 425 1075 428 1050 c 1,11,12
 439 1080 439 1080 452 1106 c 2,13,-1
 573 1359 l 2,14,15
 585 1383 585 1383 609 1383 c 2,16,-1
 702 1383 l 1,17,-1
 377 753 l 2,0,1
EndSplineSet
EndChar

StartChar: z.superior
Encoding: 1114180 -1 169
Width: 568
GlyphClass: 2
Flags: MW
LayerCount: 2
Fore
SplineSet
601 1332 m 2,0,1
 597 1305 597 1305 578 1282 c 2,2,-1
 330 976 l 1,3,-1
 552 976 l 1,4,-1
 541 883 l 1,5,-1
 182 883 l 1,6,-1
 188 934 l 2,7,8
 189 950 189 950 213 980 c 2,9,-1
 461 1289 l 1,10,-1
 245 1289 l 1,11,-1
 256 1383 l 1,12,-1
 607 1383 l 1,13,-1
 601 1332 l 2,0,1
EndSplineSet
EndChar

StartChar: grave
Encoding: 96 96 170
Width: 596
GlyphClass: 2
Flags: MW
LayerCount: 2
Fore
SplineSet
466 1397 m 2,0,1
 515 1397 515 1397 533 1356 c 2,2,-1
 635 1123 l 1,3,-1
 539 1123 l 2,4,5
 505 1123 505 1123 485 1149 c 2,6,-1
 305 1397 l 1,7,-1
 466 1397 l 2,0,1
EndSplineSet
Substitution2: "sous-table 'locl' Formes localis+AOkA-es g+AOkA-ographiquement dans Grec lookup 38" uni1FEF
EndChar

StartChar: glyph171
Encoding: 1114181 -1 171
Width: 660
GlyphClass: 2
Flags: MW
LayerCount: 2
Fore
SplineSet
436 1788 m 2,0,1
 467 1788 467 1788 481.5 1783 c 128,-1,2
 496 1778 496 1778 510 1757 c 2,3,-1
 678 1492 l 1,4,-1
 556 1492 l 2,5,6
 518 1492 518 1492 500 1510 c 1,7,-1
 256 1788 l 1,8,-1
 436 1788 l 2,0,1
EndSplineSet
EndChar

StartChar: acute
Encoding: 180 180 172
Width: 598
GlyphClass: 2
Flags: MW
LayerCount: 2
Fore
SplineSet
681 1397 m 1,0,-1
 440 1149 l 2,1,2
 416 1123 416 1123 378 1123 c 2,3,-1
 277 1123 l 1,4,-1
 438 1356 l 1,5,6
 465 1397 465 1397 516 1397 c 2,7,-1
 681 1397 l 1,0,-1
EndSplineSet
Substitution2: "sous-table 'locl' Formes localis+AOkA-es g+AOkA-ographiquement dans Grec lookup 38" uni1FFD
EndChar

StartChar: glyph173
Encoding: 1114182 -1 173
Width: 660
GlyphClass: 2
Flags: MW
LayerCount: 2
Fore
SplineSet
773 1788 m 1,0,-1
 451 1512 l 2,1,2
 428 1492 428 1492 389 1492 c 2,3,-1
 267 1492 l 1,4,-1
 500 1757 l 2,5,6
 518 1778 518 1778 534.5 1783 c 128,-1,7
 551 1788 551 1788 581 1788 c 2,8,-1
 773 1788 l 1,0,-1
EndSplineSet
EndChar

StartChar: circumflex
Encoding: 710 710 174
Width: 809
GlyphClass: 2
Flags: MW
LayerCount: 2
Fore
SplineSet
763 1128 m 1,0,-1
 651 1128 l 2,1,2
 628 1128 628 1128 616 1142 c 2,3,-1
 520 1263 l 1,4,5
 513 1270 513 1270 507 1279 c 1,6,-1
 364 1142 l 1,7,8
 347 1128 347 1128 325 1128 c 2,9,-1
 207 1128 l 1,10,-1
 438 1382 l 1,11,-1
 596 1382 l 1,12,-1
 763 1128 l 1,0,-1
EndSplineSet
EndChar

StartChar: glyph175
Encoding: 1114183 -1 175
Width: 916
GlyphClass: 2
Flags: MW
LayerCount: 2
Fore
SplineSet
903 1492 m 1,0,-1
 780 1492 l 2,1,2
 743 1492 743 1492 726 1521 c 2,3,-1
 634 1674 l 1,4,-1
 506 1521 l 1,5,6
 480 1492 480 1492 445 1492 c 2,7,-1
 326 1492 l 1,8,-1
 570 1754 l 1,9,-1
 723 1754 l 1,10,-1
 903 1492 l 1,0,-1
EndSplineSet
EndChar

StartChar: caron
Encoding: 711 711 176
Width: 809
GlyphClass: 2
Flags: MW
LayerCount: 2
Fore
SplineSet
238 1382 m 1,0,-1
 356 1382 l 2,1,2
 376 1382 376 1382 390 1368 c 1,3,-1
 486 1245 l 1,4,-1
 499 1226 l 1,5,6
 504 1231 504 1231 508 1236 c 128,-1,7
 512 1241 512 1241 517 1245 c 2,8,-1
 643 1368 l 2,9,10
 657 1382 657 1382 682 1382 c 2,11,-1
 795 1382 l 1,12,-1
 564 1128 l 1,13,-1
 407 1128 l 1,14,-1
 238 1382 l 1,0,-1
EndSplineSet
EndChar

StartChar: glyph177
Encoding: 1114184 -1 177
Width: 916
GlyphClass: 2
Flags: MW
LayerCount: 2
Fore
SplineSet
353 1754 m 1,0,-1
 477 1754 l 2,1,2
 515 1754 515 1754 527 1733 c 2,3,-1
 612 1585 l 1,4,-1
 621 1568 l 1,5,-1
 754 1731 l 2,6,7
 773 1754 773 1754 811 1754 c 2,8,-1
 935 1754 l 1,9,-1
 690 1492 l 1,10,-1
 533 1492 l 1,11,-1
 353 1754 l 1,0,-1
EndSplineSet
EndChar

StartChar: uni0315
Encoding: 789 789 178
Width: 511
GlyphClass: 4
Flags: MW
LayerCount: 2
Fore
SplineSet
474 1423 m 2,0,1
 502 1423 502 1423 502 1398 c 256,2,3
 502 1368 502 1368 465.5 1291.5 c 128,-1,4
 429 1215 429 1215 394 1143 c 0,5,6
 376 1109 376 1109 331 1109 c 2,7,-1
 271 1109 l 1,8,-1
 361 1423 l 1,9,-1
 474 1423 l 2,0,1
EndSplineSet
EndChar

StartChar: tilde
Encoding: 732 732 179
Width: 922
GlyphClass: 2
Flags: MW
LayerCount: 2
Fore
SplineSet
465 1246 m 0,0,1
 402 1246 402 1246 390 1161 c 1,2,-1
 286 1161 l 1,3,4
 296 1250 296 1250 350 1308 c 128,-1,5
 404 1366 404 1366 462 1366 c 128,-1,6
 520 1366 520 1366 559.5 1335.5 c 128,-1,7
 599 1305 599 1305 618.5 1291 c 128,-1,8
 638 1277 638 1277 658 1277 c 0,9,10
 721 1277 721 1277 734 1361 c 1,11,-1
 837 1361 l 1,12,13
 826 1272 826 1272 774 1214 c 0,14,15
 723 1157 723 1157 666 1157 c 0,16,17
 665 1157 665 1157 664 1157 c 0,18,19
 606 1157 606 1157 565 1187.5 c 128,-1,20
 524 1218 524 1218 504.5 1232 c 128,-1,21
 485 1246 485 1246 465 1246 c 0,0,1
EndSplineSet
EndChar

StartChar: glyph180
Encoding: 1114185 -1 180
Width: 936
GlyphClass: 2
Flags: MW
LayerCount: 2
Fore
SplineSet
702 1620 m 128,-1,1
 724 1604 724 1604 746 1604 c 0,2,3
 786 1604 786 1604 812 1634 c 128,-1,4
 838 1664 838 1664 842 1701 c 1,5,-1
 945 1701 l 1,6,7
 928 1562 928 1562 827 1508 c 0,8,9
 795 1490 795 1490 756 1490 c 0,10,11
 754 1490 l 0,12,13
 714 1490 714 1490 683.5 1506.5 c 128,-1,14
 653 1523 653 1523 628 1542 c 128,-1,15
 603 1561 603 1561 580.5 1577 c 128,-1,16
 558 1593 558 1593 536 1593 c 0,17,18
 497 1593 497 1593 471.5 1562.5 c 128,-1,19
 446 1532 446 1532 442 1495 c 1,20,-1
 336 1495 l 1,21,22
 347 1581 347 1581 400 1643 c 0,23,24
 453 1705 453 1705 519 1705 c 0,25,26
 520 1704 l 0,27,28
 587 1704 587 1704 655 1654 c 0,29,0
 680 1636 680 1636 702 1620 c 128,-1,1
EndSplineSet
EndChar

StartChar: dieresis
Encoding: 168 168 181
Width: 804
GlyphClass: 2
Flags: MW
LayerCount: 2
Fore
SplineSet
403.5 1189.5 m 128,-1,1
 371 1157 371 1157 325 1157 c 256,2,3
 324 1157 324 1157 322 1157 c 0,4,5
 281 1157 281 1157 249 1189 c 0,6,7
 216 1222 216 1222 216 1255 c 0,8,9
 216 1311 216 1311 249 1344 c 128,-1,10
 282 1377 282 1377 325 1377 c 256,11,12
 370 1377 370 1377 394 1353 c 0,13,14
 436 1311 436 1311 436 1266.5 c 128,-1,0
 436 1222 436 1222 403.5 1189.5 c 128,-1,1
663 1377 m 0,15,16
 746 1376 746 1376 776 1308 c 0,17,18
 785 1288 785 1288 785 1266 c 0,19,20
 785 1222 785 1222 752.5 1189.5 c 128,-1,21
 720 1157 720 1157 686 1157 c 0,22,23
 630 1157 630 1157 598 1189 c 0,24,25
 566 1220 566 1220 565 1254 c 0,26,27
 565 1312 565 1312 597.5 1344.5 c 128,-1,28
 630 1377 630 1377 663 1377 c 0,15,16
EndSplineSet
EndChar

StartChar: glyph182
Encoding: 1114186 -1 182
Width: 871
GlyphClass: 2
Flags: MW
LayerCount: 2
Fore
SplineSet
492 1687 m 0,0,1
 518 1660 518 1660 518 1628 c 0,2,3
 518 1576 518 1576 482 1541 c 128,-1,4
 446 1506 446 1506 415 1506 c 0,5,6
 366 1506 366 1506 340 1532 c 0,7,8
 314 1558 314 1558 314 1590 c 0,9,10
 314 1644 314 1644 349 1679.5 c 128,-1,11
 384 1715 384 1715 425 1715 c 128,-1,12
 466 1715 466 1715 492 1687 c 0,0,1
792 1715 m 0,13,14
 866 1714 866 1714 888 1656 c 0,15,16
 894 1638 894 1638 894 1618 c 0,17,18
 894 1578 894 1578 859 1542 c 128,-1,19
 824 1506 824 1506 782.5 1506 c 128,-1,20
 741 1506 741 1506 715 1533 c 128,-1,21
 689 1560 689 1560 689 1591 c 0,22,23
 689 1645 689 1645 724 1680 c 0,24,25
 760 1715 760 1715 792 1715 c 0,13,14
EndSplineSet
EndChar

StartChar: macron
Encoding: 175 175 183
Width: 807
GlyphClass: 2
Flags: MW
LayerCount: 2
Fore
SplineSet
251 1299 m 1,0,-1
 764 1299 l 1,1,-1
 750 1188 l 1,2,-1
 237 1188 l 1,3,-1
 251 1299 l 1,0,-1
EndSplineSet
EndChar

StartChar: glyph184
Encoding: 1114187 -1 184
Width: 874
GlyphClass: 2
Flags: MW
LayerCount: 2
Fore
SplineSet
358 1635 m 1,0,-1
 860 1635 l 1,1,-1
 848 1535 l 1,2,-1
 345 1535 l 1,3,-1
 358 1635 l 1,0,-1
EndSplineSet
EndChar

StartChar: breve
Encoding: 728 728 185
Width: 780
GlyphClass: 2
Flags: MW
LayerCount: 2
Fore
SplineSet
486 1234 m 0,0,1
 614 1234 614 1234 633 1382 c 1,2,-1
 753 1382 l 1,3,4
 729 1202 729 1202 592 1144 c 0,5,6
 542 1123 542 1123 472 1123 c 0,7,8
 340 1123 340 1123 291 1195 c 0,9,10
 253 1250 253 1250 253 1329 c 0,11,12
 253 1354 253 1354 257 1382 c 1,13,-1
 376 1382 l 1,14,15
 373 1358 373 1358 373 1339 c 0,16,17
 373 1301 373 1301 385 1283 c 0,18,19
 416 1234 416 1234 486 1234 c 0,0,1
EndSplineSet
Substitution2: "sous-table 'locl' Formes localis+AOkA-es g+AOkA-ographiquement dans Cyrillique lookup 35" breve.locl
EndChar

StartChar: glyph186
Encoding: 1114188 -1 186
Width: 785
GlyphClass: 2
Flags: MW
LayerCount: 2
Fore
SplineSet
546 1491 m 0,0,1
 303 1491 303 1491 303 1696 c 0,2,3
 303 1720 303 1720 306 1746 c 1,4,-1
 437 1746 l 1,5,6
 435 1728 435 1728 435 1712 c 0,7,8
 435 1666 435 1666 454 1636 c 0,9,10
 480 1596 480 1596 558.5 1596 c 128,-1,11
 637 1596 637 1596 672.5 1635 c 128,-1,12
 708 1674 708 1674 717 1746 c 1,13,-1
 848 1746 l 1,14,15
 833 1624 833 1624 753 1557.5 c 128,-1,16
 673 1491 673 1491 546 1491 c 0,0,1
EndSplineSet
EndChar

StartChar: ring
Encoding: 730 730 187
Width: 657
GlyphClass: 2
Flags: MW
LayerCount: 2
Fore
SplineSet
289 1398.5 m 128,-1,1
 346 1451 346 1451 426 1451 c 128,-1,2
 506 1451 506 1451 563.5 1399.5 c 128,-1,3
 621 1348 621 1348 621 1269 c 128,-1,4
 621 1190 621 1190 563.5 1140 c 128,-1,5
 506 1090 506 1090 426 1090 c 128,-1,6
 346 1090 346 1090 289 1141 c 128,-1,7
 232 1192 232 1192 232 1269 c 128,-1,0
 232 1346 232 1346 289 1398.5 c 128,-1,1
356 1339.5 m 128,-1,9
 330 1313 330 1313 330 1270 c 128,-1,10
 330 1227 330 1227 356 1200 c 128,-1,11
 382 1173 382 1173 426 1173 c 128,-1,12
 470 1173 470 1173 496.5 1200 c 128,-1,13
 523 1227 523 1227 523 1270 c 128,-1,14
 523 1313 523 1313 496.5 1339.5 c 128,-1,15
 470 1366 470 1366 426 1366 c 128,-1,8
 382 1366 382 1366 356 1339.5 c 128,-1,9
EndSplineSet
EndChar

StartChar: glyph188
Encoding: 1114189 -1 188
Width: 672
GlyphClass: 2
Flags: MW
LayerCount: 2
Fore
SplineSet
347 1559 m 0,0,1
 335 1586 335 1586 335 1624 c 0,2,3
 335 1702 335 1702 393 1755.5 c 128,-1,4
 451 1809 451 1809 527 1809 c 0,5,6
 630 1809 630 1809 669 1718 c 0,7,8
 682 1688 682 1688 682 1657 c 0,9,10
 682 1620 682 1620 664 1582 c 0,11,12
 648 1546 648 1546 621 1522 c 0,13,14
 565 1471 565 1471 489 1471 c 0,15,16
 488 1471 488 1471 486 1471 c 0,17,18
 386 1471 386 1471 347 1559 c 0,0,1
596 1646 m 0,19,20
 596 1736 596 1736 515 1736 c 0,21,22
 474 1736 474 1736 446 1704 c 0,23,24
 418 1672 418 1672 419 1630 c 0,25,26
 420 1541 420 1541 498 1541 c 0,27,28
 499 1541 499 1541 500 1541 c 0,29,30
 540 1541 540 1541 568 1572.5 c 128,-1,31
 596 1604 596 1604 596 1646 c 0,19,20
EndSplineSet
EndChar

StartChar: glyph190
Encoding: 1114191 -1 190
Width: 693
GlyphClass: 2
Flags: MW
LayerCount: 2
Fore
SplineSet
532 1762 m 0,0,1
 629 1762 629 1762 665 1676 c 0,2,3
 676 1650 676 1650 676 1614 c 0,4,5
 676 1540 676 1540 621.5 1489 c 128,-1,6
 567 1438 567 1438 499.5 1438 c 128,-1,7
 432 1438 432 1438 390 1478 c 0,8,9
 349 1517 349 1517 349 1568 c 0,10,11
 349 1658 349 1658 404.5 1710 c 128,-1,12
 460 1762 460 1762 532 1762 c 0,0,1
598 1606 m 0,13,14
 598 1694 598 1694 520 1694 c 0,15,16
 482 1694 482 1694 455 1663.5 c 128,-1,17
 428 1633 428 1633 428 1592 c 0,18,19
 428 1504 428 1504 505 1504 c 0,20,21
 543 1504 543 1504 570.5 1534 c 128,-1,22
 598 1564 598 1564 598 1606 c 0,13,14
927 2034 m 1,23,-1
 643 1829 l 2,24,25
 616 1810 616 1810 582 1810 c 2,26,-1
 460 1810 l 1,27,-1
 654 2003 l 2,28,29
 673 2023 673 2023 690 2028.5 c 128,-1,30
 707 2034 707 2034 737 2034 c 2,31,-1
 927 2034 l 1,23,-1
EndSplineSet
EndChar

StartChar: hungarumlaut
Encoding: 733 733 191
Width: 961
GlyphClass: 2
Flags: MW
LayerCount: 2
Fore
SplineSet
706 1397 m 1,0,-1
 499 1149 l 2,1,2
 478 1123 478 1123 437 1123 c 2,3,-1
 366 1123 l 1,4,-1
 516 1356 l 2,5,6
 543 1397 543 1397 593 1397 c 2,7,-1
 706 1397 l 1,0,-1
990 1397 m 1,8,-1
 742 1149 l 2,9,10
 716 1123 716 1123 681 1123 c 2,11,-1
 600 1123 l 1,12,-1
 788 1356 l 2,13,14
 804 1376 804 1376 819.5 1386.5 c 128,-1,15
 835 1397 835 1397 866 1397 c 2,16,-1
 990 1397 l 1,8,-1
EndSplineSet
EndChar

StartChar: glyph192
Encoding: 1114192 -1 192
Width: 1024
GlyphClass: 2
Flags: MW
LayerCount: 2
Fore
SplineSet
805 1755 m 1,0,-1
 592 1520 l 1,1,2
 564 1492 564 1492 532 1492 c 2,3,-1
 451 1492 l 1,4,-1
 608 1713 l 1,5,6
 640 1755 640 1755 693 1755 c 2,7,-1
 805 1755 l 1,0,-1
1140 1755 m 1,8,-1
 887 1519 l 1,9,10
 856 1492 856 1492 821 1492 c 2,11,-1
 730 1492 l 1,12,-1
 921 1713 l 1,13,14
 959 1755 959 1755 1011 1755 c 2,15,-1
 1140 1755 l 1,8,-1
EndSplineSet
EndChar

StartChar: dotaccent
Encoding: 729 729 193
Width: 457
GlyphClass: 2
Flags: MW
LayerCount: 2
Fore
SplineSet
427 1202.5 m 128,-1,1
 389 1168 389 1168 340 1168 c 256,2,3
 290 1168 290 1168 254 1204 c 128,-1,4
 218 1240 218 1240 218 1278 c 0,5,6
 218 1340 218 1340 254 1378 c 128,-1,7
 290 1416 290 1416 340 1416 c 256,8,9
 391 1416 391 1416 418 1389 c 0,10,11
 465 1342 465 1342 465 1289.5 c 128,-1,0
 465 1237 465 1237 427 1202.5 c 128,-1,1
EndSplineSet
EndChar

StartChar: glyph194
Encoding: 1114193 -1 194
Width: 462
GlyphClass: 2
Flags: MW
LayerCount: 2
Fore
SplineSet
476 1552 m 128,-1,1
 436 1514 436 1514 401 1514 c 0,2,3
 348 1514 348 1514 318 1546 c 0,4,5
 288 1576 288 1576 288 1610 c 0,6,7
 288 1668 288 1668 328 1707 c 128,-1,8
 368 1746 368 1746 402 1746 c 0,9,10
 404 1746 404 1746 406 1747 c 0,11,12
 436 1746 436 1746 454 1738 c 0,13,14
 472 1730 472 1730 486 1716 c 0,15,16
 516 1684 516 1684 516 1637 c 128,-1,0
 516 1590 516 1590 476 1552 c 128,-1,1
EndSplineSet
EndChar

StartChar: cedilla
Encoding: 184 184 195
Width: 629
GlyphClass: 2
Flags: MW
LayerCount: 2
Fore
SplineSet
268 -69 m 1,0,1
 403 -102 403 -102 403 -191 c 0,2,3
 402 -258 402 -258 343 -299 c 0,4,5
 285 -340 285 -340 204 -340 c 0,6,7
 203 -340 203 -340 202 -340 c 0,8,9
 120 -340 120 -340 62 -308 c 1,10,-1
 85 -256 l 2,11,12
 93 -240 93 -240 103.5 -240 c 128,-1,13
 114 -240 114 -240 120 -244 c 128,-1,14
 126 -248 126 -248 142 -256 c 0,15,16
 158 -264 158 -264 189 -264 c 0,17,18
 191 -264 191 -264 193 -264 c 0,19,20
 227 -264 227 -264 248 -244.5 c 128,-1,21
 269 -225 269 -225 269 -194.5 c 128,-1,22
 269 -164 269 -164 235 -150 c 128,-1,23
 201 -136 201 -136 137 -127 c 1,24,-1
 192 10 l 1,25,-1
 299 10 l 1,26,-1
 268 -69 l 1,0,1
EndSplineSet
EndChar

StartChar: ogonek
Encoding: 731 731 196
Width: 639
GlyphClass: 2
Flags: MW
LayerCount: 2
Fore
SplineSet
406 -280 m 1,0,1
 338 -330 338 -330 254 -330 c 128,-1,2
 170 -330 170 -330 130 -296 c 0,3,4
 90 -262 90 -262 90 -218 c 0,5,6
 90 -80 90 -80 258 12 c 1,7,-1
 344 0 l 1,8,9
 264 -44 264 -44 234 -108 c 0,10,11
 222 -132 222 -132 222 -161.5 c 128,-1,12
 222 -191 222 -191 240.5 -209.5 c 128,-1,13
 259 -228 259 -228 284.5 -228 c 128,-1,14
 310 -228 310 -228 324 -224.5 c 128,-1,15
 338 -221 338 -221 347 -216.5 c 128,-1,16
 356 -212 356 -212 361.5 -208.5 c 128,-1,17
 367 -205 367 -205 371 -205 c 0,18,19
 385 -205 385 -205 388 -217 c 2,20,-1
 406 -280 l 1,0,1
EndSplineSet
EndChar

StartChar: glyph197
Encoding: 1114194 -1 197
Width: 503
GlyphClass: 2
Flags: MW
LayerCount: 2
Fore
SplineSet
263 -93 m 2,0,1
 291 -94 291 -94 291 -124 c 0,2,3
 291 -154 291 -154 260.5 -221.5 c 128,-1,4
 230 -289 230 -289 212 -325.5 c 128,-1,5
 194 -362 194 -362 179 -368.5 c 128,-1,6
 164 -375 164 -375 141 -375 c 2,7,-1
 82 -375 l 1,8,-1
 160 -93 l 1,9,-1
 263 -93 l 2,0,1
EndSplineSet
EndChar

StartChar: glyph198
Encoding: 1114195 -1 198
Width: 561
GlyphClass: 2
Flags: MW
LayerCount: 2
Fore
SplineSet
462 1117 m 1,0,-1
 313 1117 l 1,1,-1
 432 1389 l 1,2,-1
 538 1389 l 1,3,-1
 462 1117 l 1,0,-1
EndSplineSet
EndChar

StartChar: Gamma
Encoding: 915 915 199
Width: 851
GlyphClass: 2
Flags: MW
LayerCount: 2
Fore
SplineSet
935 1314 m 1,0,-1
 917 1176 l 1,1,-1
 418 1176 l 1,2,-1
 274 0 l 1,3,-1
 97 0 l 1,4,-1
 259 1314 l 1,5,-1
 935 1314 l 1,0,-1
EndSplineSet
Position2: "sous-table 'cpsp' Chasses pour composition en capitales lookups0" dx=40 dy=0 dh=80 dv=0
EndChar

StartChar: uni0394
Encoding: 916 916 200
Width: 1156
GlyphClass: 2
Flags: MW
LayerCount: 2
Fore
SplineSet
1091 0 m 1,0,-1
 -43 0 l 1,1,-1
 606 1313 l 1,2,-1
 766 1313 l 1,3,-1
 1091 0 l 1,0,-1
204 141 m 1,4,-1
 879 141 l 1,5,-1
 683 1026 l 1,6,7
 672 1068 672 1068 663 1129 c 1,8,9
 638 1063 638 1063 617 1024 c 1,10,-1
 204 141 l 1,4,-1
EndSplineSet
Position2: "sous-table 'cpsp' Chasses pour composition en capitales lookups0" dx=40 dy=0 dh=80 dv=0
EndChar

StartChar: Theta
Encoding: 920 920 201
Width: 1344
GlyphClass: 2
Flags: MW
LayerCount: 2
Fore
SplineSet
503 736 m 1,0,-1
 972 736 l 1,1,-1
 954 593 l 1,2,-1
 486 593 l 1,3,-1
 503 736 l 1,0,-1
1255.5 982 m 128,-1,5
 1292 876 1292 876 1292 757.5 c 128,-1,6
 1292 639 1292 639 1268 539 c 0,7,8
 1197 238 1197 238 956 85 c 0,9,10
 798 -14 798 -14 602 -14 c 0,11,12
 362 -14 362 -14 221 147.5 c 128,-1,13
 80 309 80 309 79 563 c 0,14,15
 79 895 79 895 276 1113 c 0,16,17
 368 1215 368 1215 494.5 1272 c 128,-1,18
 621 1329 621 1329 755 1329 c 128,-1,19
 889 1329 889 1329 986 1285.5 c 128,-1,20
 1083 1242 1083 1242 1151 1165 c 128,-1,4
 1219 1088 1219 1088 1255.5 982 c 128,-1,5
1074 492.5 m 128,-1,22
 1110 606 1110 606 1110 726 c 0,23,24
 1110 948 1110 948 1012 1065 c 128,-1,25
 914 1182 914 1182 746 1182 c 0,26,27
 530 1182 530 1182 395 1013 c 128,-1,28
 260 844 260 844 259 567 c 0,29,30
 259 369 259 369 356 251 c 128,-1,31
 453 133 453 133 622 133 c 0,32,33
 840 133 840 133 974 299 c 0,34,21
 1038 379 1038 379 1074 492.5 c 128,-1,22
EndSplineSet
Position2: "sous-table 'cpsp' Chasses pour composition en capitales lookups0" dx=40 dy=0 dh=80 dv=0
EndChar

StartChar: Lambda
Encoding: 923 923 202
Width: 1173
GlyphClass: 2
Flags: MW
LayerCount: 2
Fore
SplineSet
1138 0 m 1,0,-1
 986 0 l 2,1,2
 942 0 942 0 931 41 c 1,3,-1
 708 973 l 1,4,5
 693 1029 693 1029 682 1113 c 1,6,7
 654 1030 654 1030 627 973 c 2,8,-1
 176 41 l 2,9,10
 156 0 156 0 111 0 c 2,11,-1
 -21 0 l 1,12,-1
 640 1314 l 1,13,-1
 799 1314 l 1,14,-1
 1138 0 l 1,0,-1
EndSplineSet
Position2: "sous-table 'cpsp' Chasses pour composition en capitales lookups0" dx=40 dy=0 dh=80 dv=0
EndChar

StartChar: Xi
Encoding: 926 926 203
Width: 1007
GlyphClass: 2
Flags: MW
LayerCount: 2
Fore
SplineSet
1077 1314 m 1,0,-1
 1058 1166 l 1,1,-1
 183 1166 l 1,2,-1
 202 1314 l 1,3,-1
 1077 1314 l 1,0,-1
934 148 m 1,4,-1
 916 0 l 1,5,-1
 40 0 l 1,6,-1
 58 148 l 1,7,-1
 934 148 l 1,4,-1
333 740 m 1,8,-1
 803 740 l 1,9,-1
 784 589 l 1,10,-1
 313 589 l 1,11,-1
 333 740 l 1,8,-1
EndSplineSet
Position2: "sous-table 'cpsp' Chasses pour composition en capitales lookups0" dx=40 dy=0 dh=80 dv=0
EndChar

StartChar: Pi
Encoding: 928 928 204
Width: 1276
GlyphClass: 2
Flags: MW
LayerCount: 2
Fore
SplineSet
1107 0 m 1,0,-1
 930 0 l 1,1,-1
 1074 1176 l 1,2,-1
 437 1176 l 1,3,-1
 293 0 l 1,4,-1
 116 0 l 1,5,-1
 278 1314 l 1,6,-1
 1267 1314 l 1,7,-1
 1107 0 l 1,0,-1
EndSplineSet
Position2: "sous-table 'cpsp' Chasses pour composition en capitales lookups0" dx=40 dy=0 dh=80 dv=0
EndChar

StartChar: Sigma
Encoding: 931 931 205
Width: 939
GlyphClass: 2
Flags: MW
LayerCount: 2
Fore
SplineSet
242 129 m 1,0,1
 293 137 293 137 351 137 c 2,2,-1
 875 137 l 1,3,-1
 856 0 l 1,4,-1
 35 0 l 1,5,-1
 44 66 l 1,6,7
 47 97 47 97 85 140 c 1,8,-1
 508 652 l 1,9,-1
 200 1186 l 1,10,11
 185 1206 185 1206 185 1228 c 0,12,13
 185 1233 185 1233 186 1238 c 2,14,-1
 196 1314 l 1,15,-1
 1018 1314 l 1,16,-1
 999 1176 l 1,17,-1
 497 1176 l 2,18,19
 426 1176 426 1176 364 1188 c 1,20,21
 433 1146 433 1146 463 1091 c 1,22,-1
 621 759 l 1,23,24
 651 706 651 706 651 674 c 0,25,26
 651 670 651 670 651 667 c 0,27,28
 647 634 647 634 596 577 c 1,29,-1
 326 211 l 1,30,31
 273 149 273 149 242 129 c 1,0,1
EndSplineSet
Position2: "sous-table 'cpsp' Chasses pour composition en capitales lookups0" dx=40 dy=0 dh=80 dv=0
EndChar

StartChar: Phi
Encoding: 934 934 206
Width: 1556
GlyphClass: 2
Flags: MW
LayerCount: 2
Fore
SplineSet
984 1248 m 1,0,1
 1243 1246 1243 1246 1393 1096 c 128,-1,2
 1543 946 1543 946 1543 725 c 0,3,4
 1542 453 1542 453 1345 263.5 c 128,-1,5
 1148 74 1148 74 839 72 c 1,6,-1
 818 -104 l 1,7,-1
 651 -104 l 1,8,-1
 672 72 l 1,9,10
 414 74 414 74 264.5 223.5 c 128,-1,11
 115 373 115 373 115 596 c 0,12,13
 115 728 115 728 166.5 846 c 128,-1,14
 218 964 218 964 310 1053 c 0,15,16
 509 1244 509 1244 817 1248 c 1,17,-1
 838 1419 l 1,18,-1
 1005 1419 l 1,19,-1
 984 1248 l 1,0,1
1227 360 m 0,20,21
 1294 428 1294 428 1332 519.5 c 128,-1,22
 1370 611 1370 611 1370 703 c 0,23,24
 1370 883 1370 883 1261 996.5 c 128,-1,25
 1152 1110 1152 1110 967 1112 c 1,26,-1
 856 209 l 1,27,28
 1079 210 1079 210 1227 360 c 0,20,21
326 800 m 0,29,30
 288 710 288 710 288 618 c 0,31,32
 288 439 288 439 397 325 c 128,-1,33
 506 211 506 211 689 209 c 1,34,-1
 800 1112 l 1,35,36
 577 1108 577 1108 431 960 c 0,37,38
 364 891 364 891 326 800 c 0,29,30
EndSplineSet
Position2: "sous-table 'cpsp' Chasses pour composition en capitales lookups0" dx=40 dy=0 dh=80 dv=0
EndChar

StartChar: Psi
Encoding: 936 936 207
Width: 1536
GlyphClass: 2
Flags: MW
LayerCount: 2
Fore
SplineSet
347 1314 m 2,0,1
 376 1314 376 1314 390 1296 c 0,2,3
 402 1280 402 1280 402 1259 c 0,4,5
 402 1256 402 1256 402 1253 c 1,6,-1
 351 845 l 1,7,8
 346 805 346 805 346 769 c 0,9,10
 346 476 346 476 704 463 c 1,11,-1
 808 1314 l 1,12,-1
 986 1314 l 1,13,-1
 882 463 l 1,14,15
 1287 478 1287 478 1332 845 c 1,16,-1
 1331 845 l 1,17,-1
 1382 1253 l 1,18,19
 1384 1278 1384 1278 1402 1296 c 128,-1,20
 1420 1314 1420 1314 1449 1314 c 2,21,-1
 1567 1314 l 1,22,-1
 1509 845 l 1,23,24
 1482 609 1482 609 1315 470 c 128,-1,25
 1148 331 1148 331 865 321 c 1,26,-1
 826 0 l 1,27,-1
 647 0 l 1,28,-1
 686 321 l 1,29,30
 408 332 408 332 276 470 c 0,31,32
 169 582 169 582 168 759 c 0,33,34
 168 800 168 800 174 845 c 1,35,-1
 231 1314 l 1,36,-1
 347 1314 l 2,0,1
EndSplineSet
Position2: "sous-table 'cpsp' Chasses pour composition en capitales lookups0" dx=40 dy=0 dh=80 dv=0
EndChar

StartChar: uni03A9
Encoding: 937 937 208
Width: 1360
GlyphClass: 2
Flags: MW
LayerCount: 2
Fore
SplineSet
293 730 m 0,0,1
 293 463 293 463 585 400 c 1,2,-1
 539 0 l 1,3,-1
 79 0 l 2,4,5
 52 0 52 0 38 16 c 0,6,7
 26 30 26 30 26 51 c 0,8,9
 26 54 26 54 26 57 c 1,10,-1
 37 148 l 1,11,-1
 419 148 l 1,12,-1
 438 309 l 1,13,14
 286 350 286 350 199 462 c 0,15,16
 112 576 112 576 112 720 c 0,17,18
 112 992 112 992 305 1159.5 c 128,-1,19
 498 1327 498 1327 783 1327 c 0,20,21
 1022 1327 1022 1327 1172 1194 c 128,-1,22
 1322 1061 1322 1061 1322 853.5 c 128,-1,23
 1322 646 1322 646 1200.5 499 c 128,-1,24
 1079 352 1079 352 876 308 c 1,25,-1
 857 148 l 1,26,-1
 1239 148 l 1,27,-1
 1229 57 l 1,28,29
 1220 4 1220 4 1162 0 c 1,30,-1
 704 0 l 1,31,-1
 720 148 l 1,32,-1
 721 148 l 1,33,-1
 750 400 l 1,34,35
 1030 453 1030 453 1112 666 c 0,36,37
 1142 742 1142 742 1142 837 c 0,38,39
 1142 1005 1142 1005 1040 1095 c 0,40,41
 936 1186 936 1186 747.5 1186 c 128,-1,42
 559 1186 559 1186 426 1067 c 128,-1,43
 293 948 293 948 293 730 c 0,0,1
EndSplineSet
Position2: "sous-table 'cpsp' Chasses pour composition en capitales lookups0" dx=40 dy=0 dh=80 dv=0
EndChar

StartChar: alpha
Encoding: 945 945 209
Width: 1157
GlyphClass: 2
Flags: MW
LayerCount: 2
Fore
SplineSet
1002 -8 m 0,0,1
 811 -8 811 -8 787 171 c 1,2,3
 647 -14 647 -14 437 -14 c 0,4,5
 288 -14 288 -14 193 98 c 128,-1,6
 98 210 98 210 98 397 c 0,7,8
 98 664 98 664 247 829 c 128,-1,9
 396 994 396 994 601.5 994 c 128,-1,10
 807 994 807 994 900 836 c 1,11,-1
 934 942 l 1,12,13
 943 977 943 977 981 977 c 2,14,-1
 1082 977 l 1,15,-1
 966 455 l 2,16,17
 953 395 953 395 941 343 c 0,18,19
 929 292 929 292 929 254 c 0,20,21
 933 119 933 119 1063 119 c 0,22,23
 1065 119 1065 119 1067 119 c 1,24,-1
 1123 119 l 1,25,-1
 1115 50 l 2,26,27
 1112 28 1112 28 1080.5 10 c 128,-1,28
 1049 -8 1049 -8 1002 -8 c 0,0,1
680.5 203 m 128,-1,30
 763 283 763 283 800 438 c 1,31,-1
 855 689 l 1,32,33
 820 806 820 806 710 848 c 0,34,35
 665 865 665 865 618 865 c 0,36,37
 556 865 556 865 492 836 c 0,38,39
 428 808 428 808 380 752 c 0,40,41
 273 628 273 628 273 411 c 0,42,43
 273 409 273 409 273 407 c 0,44,45
 273 405 273 405 273 403 c 0,46,47
 273 266 273 266 333 195 c 0,48,49
 394 123 394 123 496 123 c 128,-1,29
 598 123 598 123 680.5 203 c 128,-1,30
EndSplineSet
EndChar

StartChar: beta
Encoding: 946 946 210
Width: 1081
GlyphClass: 2
Flags: MW
LayerCount: 2
Fore
SplineSet
551 -14 m 0,0,1
 384 -14 384 -14 301 99 c 1,2,-1
 245 -355 l 1,3,-1
 75 -355 l 1,4,-1
 227 880 l 2,5,6
 258 1129 258 1129 373 1263 c 128,-1,7
 488 1397 488 1397 689 1397 c 0,8,9
 852 1396 852 1396 936 1310.5 c 128,-1,10
 1020 1225 1020 1225 1020 1101.5 c 128,-1,11
 1020 978 1020 978 954 889 c 128,-1,12
 888 800 888 800 769 763 c 1,13,14
 892 732 892 732 960 648 c 0,15,16
 1028 566 1028 566 1028 460 c 0,17,18
 1028 254 1028 254 891 120 c 128,-1,19
 754 -14 754 -14 551 -14 c 0,0,1
578 826 m 2,20,21
 859 826 859 826 859 1084 c 0,22,23
 859 1173 859 1173 810 1222.5 c 128,-1,24
 761 1272 761 1272 687.5 1272 c 128,-1,25
 614 1272 614 1272 569 1251 c 0,26,27
 435 1189 435 1189 397 875 c 2,28,-1
 318 239 l 1,29,30
 351 178 351 178 399 148 c 128,-1,31
 447 118 447 118 526 118 c 0,32,33
 678 118 678 118 768 216 c 0,34,35
 858 314 858 314 858 446 c 0,36,37
 858 690 858 690 583 693 c 1,38,-1
 524 693 l 1,39,-1
 540 826 l 1,40,-1
 578 826 l 2,20,21
EndSplineSet
Substitution2: "sous-table 'ss03' Style 3 lookups32" beta.salt
Substitution2: "sous-table 'salt' Alternatives stylistiques lookups28" beta.salt
EndChar

StartChar: beta.salt
Encoding: 1114196 -1 211
Width: 1082
GlyphClass: 2
Flags: MW
LayerCount: 2
Fore
SplineSet
977.5 978 m 128,-1,1
 915 899 915 899 775 828 c 1,2,3
 899 826 899 826 967 744 c 0,4,5
 1035 660 1035 660 1035 530 c 0,6,7
 1035 282 1035 282 878 134 c 0,8,9
 722 -14 722 -14 518 -15 c 0,10,-1
 516 -14 l 0,11,12
 312 -14 312 -14 218 118 c 128,-1,13
 124 250 124 250 124 476 c 0,14,15
 124 704 124 704 176 874 c 0,16,17
 226 1044 226 1044 312.5 1160.5 c 128,-1,18
 399 1277 399 1277 515.5 1337.5 c 128,-1,19
 632 1398 632 1398 767.5 1398 c 128,-1,20
 903 1398 903 1398 971.5 1328 c 128,-1,21
 1040 1258 1040 1258 1040 1157.5 c 128,-1,0
 1040 1057 1040 1057 977.5 978 c 128,-1,1
298 591 m 1,22,23
 290 518 290 518 290 457 c 0,24,25
 290 120 290 120 522 120 c 0,26,27
 669 120 669 120 769.5 232 c 128,-1,28
 870 344 870 344 870 518 c 0,29,30
 870 652 870 652 782 700 c 0,31,32
 743 721 743 721 692 721 c 0,33,34
 625 721 625 721 536 687 c 1,35,-1
 298 591 l 1,22,23
839 1232 m 0,36,37
 802 1266 802 1266 734 1266 c 0,38,39
 588 1266 588 1266 477.5 1132 c 128,-1,40
 367 998 367 998 318 725 c 1,41,-1
 564 821 l 1,42,43
 875 938 875 938 875 1141 c 0,44,45
 875 1198 875 1198 839 1232 c 0,36,37
EndSplineSet
EndChar

StartChar: gamma
Encoding: 947 947 212
Width: 913
GlyphClass: 2
Flags: MW
LayerCount: 2
Fore
SplineSet
285 -330 m 1,0,-1
 335 82 l 1,1,2
 304 643 304 643 196 798 c 0,3,4
 154 857 154 857 96 857 c 2,5,-1
 62 857 l 1,6,-1
 69 920 l 2,7,8
 76 983 76 983 162 983 c 0,9,10
 324 983 324 983 394.5 797 c 128,-1,11
 465 611 465 611 469 232 c 1,12,13
 655 502 655 502 780 919 c 0,14,15
 798 977 798 977 839 977 c 2,16,-1
 982 977 l 1,17,18
 844 543 844 543 506 87 c 1,19,-1
 454 -330 l 1,20,-1
 285 -330 l 1,0,-1
EndSplineSet
EndChar

